%TF.GenerationSoftware,KiCad,Pcbnew,8.0.6*%
%TF.CreationDate,2024-11-16T22:08:29-08:00*%
%TF.ProjectId,SYNC-VT,53594e43-2d56-4542-9e6b-696361645f70,rev?*%
%TF.SameCoordinates,Original*%
%TF.FileFunction,Drillmap*%
%TF.FilePolarity,Positive*%
%FSLAX45Y45*%
G04 Gerber Fmt 4.5, Leading zero omitted, Abs format (unit mm)*
G04 Created by KiCad (PCBNEW 8.0.6) date 2024-11-16 22:08:29*
%MOMM*%
%LPD*%
G01*
G04 APERTURE LIST*
%ADD10C,0.100000*%
%ADD11C,0.010000*%
%ADD12C,0.200000*%
G04 APERTURE END LIST*
D10*
X14887000Y-6163000D02*
G75*
G02*
X14587000Y-6463000I-300000J0D01*
G01*
X14587000Y-3466000D02*
G75*
G02*
X14887000Y-3766000I0J-300000D01*
G01*
X8683000Y-6463000D02*
G75*
G02*
X8383000Y-6163000I0J300000D01*
G01*
X8383000Y-3766000D02*
G75*
G02*
X8683000Y-3466000I300000J0D01*
G01*
X14587000Y-6463000D02*
X8683000Y-6463000D01*
X14887000Y-3766000D02*
X14887000Y-6163000D01*
X8683000Y-3466000D02*
X14587000Y-3466000D01*
X8383000Y-6163000D02*
X8383000Y-3766000D01*
D11*
X9054500Y-5831500D02*
X9054500Y-5793500D01*
X9054500Y-5869500D02*
X9054500Y-5831500D01*
X9054500Y-6281500D02*
X9054500Y-6253500D01*
X9054500Y-6309500D02*
X9054500Y-6281500D01*
X9119500Y-5793500D02*
X9119500Y-5831500D01*
X9119500Y-5831500D02*
X9119500Y-5869500D01*
X9119500Y-6253500D02*
X9119500Y-6281500D01*
X9119500Y-6281500D02*
X9119500Y-6309500D01*
X10139500Y-5831500D02*
X10139500Y-5793500D01*
X10139500Y-5869500D02*
X10139500Y-5831500D01*
X10139500Y-6281500D02*
X10139500Y-6253500D01*
X10139500Y-6309500D02*
X10139500Y-6281500D01*
X10204500Y-5793500D02*
X10204500Y-5831500D01*
X10204500Y-5831500D02*
X10204500Y-5869500D01*
X10204500Y-6253500D02*
X10204500Y-6281500D01*
X10204500Y-6281500D02*
X10204500Y-6309500D01*
X9054500Y-5793500D02*
G75*
G02*
X9087000Y-5761500I32250J-250D01*
G01*
X9054500Y-6253500D02*
G75*
G02*
X9087000Y-6221500I32250J-250D01*
G01*
X9087000Y-5761500D02*
G75*
G02*
X9119500Y-5793500I250J-32250D01*
G01*
X9087000Y-5901500D02*
G75*
G02*
X9054500Y-5869500I-250J32250D01*
G01*
X9087000Y-6221500D02*
G75*
G02*
X9119500Y-6253500I250J-32250D01*
G01*
X9087000Y-6341500D02*
G75*
G02*
X9054500Y-6309500I-250J32250D01*
G01*
X9119500Y-5869500D02*
G75*
G02*
X9087000Y-5901500I-32250J250D01*
G01*
X9119500Y-6309500D02*
G75*
G02*
X9087000Y-6341500I-32250J250D01*
G01*
X10139500Y-5793500D02*
G75*
G02*
X10172000Y-5761500I32250J-250D01*
G01*
X10139500Y-6253500D02*
G75*
G02*
X10172000Y-6221500I32250J-250D01*
G01*
X10172000Y-5761500D02*
G75*
G02*
X10204500Y-5793500I250J-32250D01*
G01*
X10172000Y-5901500D02*
G75*
G02*
X10139500Y-5869500I-250J32250D01*
G01*
X10172000Y-6221500D02*
G75*
G02*
X10204500Y-6253500I250J-32250D01*
G01*
X10172000Y-6341500D02*
G75*
G02*
X10139500Y-6309500I-250J32250D01*
G01*
X10204500Y-5869500D02*
G75*
G02*
X10172000Y-5901500I-32250J250D01*
G01*
X10204500Y-6309500D02*
G75*
G02*
X10172000Y-6341500I-32250J250D01*
G01*
D12*
D10*
X12221000Y-5856500D02*
X12281000Y-5916500D01*
X12281000Y-5856500D02*
X12221000Y-5916500D01*
X12799000Y-5856500D02*
X12859000Y-5916500D01*
X12859000Y-5856500D02*
X12799000Y-5916500D01*
X13467000Y-5863000D02*
X13527000Y-5923000D01*
X13527000Y-5863000D02*
X13467000Y-5923000D01*
X14045000Y-5863000D02*
X14105000Y-5923000D01*
X14105000Y-5863000D02*
X14045000Y-5923000D01*
X9305000Y-5911500D02*
G75*
G02*
X9205000Y-5911500I-50000J0D01*
G01*
X9205000Y-5911500D02*
G75*
G02*
X9305000Y-5911500I50000J0D01*
G01*
X10055000Y-5911500D02*
G75*
G02*
X9955000Y-5911500I-50000J0D01*
G01*
X9955000Y-5911500D02*
G75*
G02*
X10055000Y-5911500I50000J0D01*
G01*
D12*
X8638777Y-6779484D02*
X8638777Y-6579484D01*
X8638777Y-6579484D02*
X8686396Y-6579484D01*
X8686396Y-6579484D02*
X8714967Y-6589008D01*
X8714967Y-6589008D02*
X8734015Y-6608055D01*
X8734015Y-6608055D02*
X8743539Y-6627103D01*
X8743539Y-6627103D02*
X8753063Y-6665198D01*
X8753063Y-6665198D02*
X8753063Y-6693769D01*
X8753063Y-6693769D02*
X8743539Y-6731865D01*
X8743539Y-6731865D02*
X8734015Y-6750912D01*
X8734015Y-6750912D02*
X8714967Y-6769960D01*
X8714967Y-6769960D02*
X8686396Y-6779484D01*
X8686396Y-6779484D02*
X8638777Y-6779484D01*
X8838777Y-6779484D02*
X8838777Y-6646150D01*
X8838777Y-6684246D02*
X8848301Y-6665198D01*
X8848301Y-6665198D02*
X8857824Y-6655674D01*
X8857824Y-6655674D02*
X8876872Y-6646150D01*
X8876872Y-6646150D02*
X8895920Y-6646150D01*
X8962586Y-6779484D02*
X8962586Y-6646150D01*
X8962586Y-6579484D02*
X8953063Y-6589008D01*
X8953063Y-6589008D02*
X8962586Y-6598531D01*
X8962586Y-6598531D02*
X8972110Y-6589008D01*
X8972110Y-6589008D02*
X8962586Y-6579484D01*
X8962586Y-6579484D02*
X8962586Y-6598531D01*
X9086396Y-6779484D02*
X9067348Y-6769960D01*
X9067348Y-6769960D02*
X9057824Y-6750912D01*
X9057824Y-6750912D02*
X9057824Y-6579484D01*
X9191158Y-6779484D02*
X9172110Y-6769960D01*
X9172110Y-6769960D02*
X9162586Y-6750912D01*
X9162586Y-6750912D02*
X9162586Y-6579484D01*
X9419729Y-6779484D02*
X9419729Y-6579484D01*
X9419729Y-6579484D02*
X9486396Y-6722341D01*
X9486396Y-6722341D02*
X9553063Y-6579484D01*
X9553063Y-6579484D02*
X9553063Y-6779484D01*
X9734015Y-6779484D02*
X9734015Y-6674722D01*
X9734015Y-6674722D02*
X9724491Y-6655674D01*
X9724491Y-6655674D02*
X9705444Y-6646150D01*
X9705444Y-6646150D02*
X9667348Y-6646150D01*
X9667348Y-6646150D02*
X9648301Y-6655674D01*
X9734015Y-6769960D02*
X9714967Y-6779484D01*
X9714967Y-6779484D02*
X9667348Y-6779484D01*
X9667348Y-6779484D02*
X9648301Y-6769960D01*
X9648301Y-6769960D02*
X9638777Y-6750912D01*
X9638777Y-6750912D02*
X9638777Y-6731865D01*
X9638777Y-6731865D02*
X9648301Y-6712817D01*
X9648301Y-6712817D02*
X9667348Y-6703293D01*
X9667348Y-6703293D02*
X9714967Y-6703293D01*
X9714967Y-6703293D02*
X9734015Y-6693769D01*
X9829253Y-6646150D02*
X9829253Y-6846150D01*
X9829253Y-6655674D02*
X9848301Y-6646150D01*
X9848301Y-6646150D02*
X9886396Y-6646150D01*
X9886396Y-6646150D02*
X9905444Y-6655674D01*
X9905444Y-6655674D02*
X9914967Y-6665198D01*
X9914967Y-6665198D02*
X9924491Y-6684246D01*
X9924491Y-6684246D02*
X9924491Y-6741388D01*
X9924491Y-6741388D02*
X9914967Y-6760436D01*
X9914967Y-6760436D02*
X9905444Y-6769960D01*
X9905444Y-6769960D02*
X9886396Y-6779484D01*
X9886396Y-6779484D02*
X9848301Y-6779484D01*
X9848301Y-6779484D02*
X9829253Y-6769960D01*
X10010205Y-6760436D02*
X10019729Y-6769960D01*
X10019729Y-6769960D02*
X10010205Y-6779484D01*
X10010205Y-6779484D02*
X10000682Y-6769960D01*
X10000682Y-6769960D02*
X10010205Y-6760436D01*
X10010205Y-6760436D02*
X10010205Y-6779484D01*
X10010205Y-6655674D02*
X10019729Y-6665198D01*
X10019729Y-6665198D02*
X10010205Y-6674722D01*
X10010205Y-6674722D02*
X10000682Y-6665198D01*
X10000682Y-6665198D02*
X10010205Y-6655674D01*
X10010205Y-6655674D02*
X10010205Y-6674722D01*
D10*
X8318000Y-7078000D02*
X8378000Y-7138000D01*
X8378000Y-7078000D02*
X8318000Y-7138000D01*
D12*
X8676872Y-6999484D02*
X8695920Y-6999484D01*
X8695920Y-6999484D02*
X8714967Y-7009008D01*
X8714967Y-7009008D02*
X8724491Y-7018531D01*
X8724491Y-7018531D02*
X8734015Y-7037579D01*
X8734015Y-7037579D02*
X8743539Y-7075674D01*
X8743539Y-7075674D02*
X8743539Y-7123293D01*
X8743539Y-7123293D02*
X8734015Y-7161388D01*
X8734015Y-7161388D02*
X8724491Y-7180436D01*
X8724491Y-7180436D02*
X8714967Y-7189960D01*
X8714967Y-7189960D02*
X8695920Y-7199484D01*
X8695920Y-7199484D02*
X8676872Y-7199484D01*
X8676872Y-7199484D02*
X8657824Y-7189960D01*
X8657824Y-7189960D02*
X8648301Y-7180436D01*
X8648301Y-7180436D02*
X8638777Y-7161388D01*
X8638777Y-7161388D02*
X8629253Y-7123293D01*
X8629253Y-7123293D02*
X8629253Y-7075674D01*
X8629253Y-7075674D02*
X8638777Y-7037579D01*
X8638777Y-7037579D02*
X8648301Y-7018531D01*
X8648301Y-7018531D02*
X8657824Y-7009008D01*
X8657824Y-7009008D02*
X8676872Y-6999484D01*
X8829253Y-7180436D02*
X8838777Y-7189960D01*
X8838777Y-7189960D02*
X8829253Y-7199484D01*
X8829253Y-7199484D02*
X8819729Y-7189960D01*
X8819729Y-7189960D02*
X8829253Y-7180436D01*
X8829253Y-7180436D02*
X8829253Y-7199484D01*
X9010205Y-6999484D02*
X8972110Y-6999484D01*
X8972110Y-6999484D02*
X8953063Y-7009008D01*
X8953063Y-7009008D02*
X8943539Y-7018531D01*
X8943539Y-7018531D02*
X8924491Y-7047103D01*
X8924491Y-7047103D02*
X8914967Y-7085198D01*
X8914967Y-7085198D02*
X8914967Y-7161388D01*
X8914967Y-7161388D02*
X8924491Y-7180436D01*
X8924491Y-7180436D02*
X8934015Y-7189960D01*
X8934015Y-7189960D02*
X8953063Y-7199484D01*
X8953063Y-7199484D02*
X8991158Y-7199484D01*
X8991158Y-7199484D02*
X9010205Y-7189960D01*
X9010205Y-7189960D02*
X9019729Y-7180436D01*
X9019729Y-7180436D02*
X9029253Y-7161388D01*
X9029253Y-7161388D02*
X9029253Y-7113769D01*
X9029253Y-7113769D02*
X9019729Y-7094722D01*
X9019729Y-7094722D02*
X9010205Y-7085198D01*
X9010205Y-7085198D02*
X8991158Y-7075674D01*
X8991158Y-7075674D02*
X8953063Y-7075674D01*
X8953063Y-7075674D02*
X8934015Y-7085198D01*
X8934015Y-7085198D02*
X8924491Y-7094722D01*
X8924491Y-7094722D02*
X8914967Y-7113769D01*
X9153063Y-6999484D02*
X9172110Y-6999484D01*
X9172110Y-6999484D02*
X9191158Y-7009008D01*
X9191158Y-7009008D02*
X9200682Y-7018531D01*
X9200682Y-7018531D02*
X9210205Y-7037579D01*
X9210205Y-7037579D02*
X9219729Y-7075674D01*
X9219729Y-7075674D02*
X9219729Y-7123293D01*
X9219729Y-7123293D02*
X9210205Y-7161388D01*
X9210205Y-7161388D02*
X9200682Y-7180436D01*
X9200682Y-7180436D02*
X9191158Y-7189960D01*
X9191158Y-7189960D02*
X9172110Y-7199484D01*
X9172110Y-7199484D02*
X9153063Y-7199484D01*
X9153063Y-7199484D02*
X9134015Y-7189960D01*
X9134015Y-7189960D02*
X9124491Y-7180436D01*
X9124491Y-7180436D02*
X9114967Y-7161388D01*
X9114967Y-7161388D02*
X9105444Y-7123293D01*
X9105444Y-7123293D02*
X9105444Y-7075674D01*
X9105444Y-7075674D02*
X9114967Y-7037579D01*
X9114967Y-7037579D02*
X9124491Y-7018531D01*
X9124491Y-7018531D02*
X9134015Y-7009008D01*
X9134015Y-7009008D02*
X9153063Y-6999484D01*
X9343539Y-6999484D02*
X9362586Y-6999484D01*
X9362586Y-6999484D02*
X9381634Y-7009008D01*
X9381634Y-7009008D02*
X9391158Y-7018531D01*
X9391158Y-7018531D02*
X9400682Y-7037579D01*
X9400682Y-7037579D02*
X9410205Y-7075674D01*
X9410205Y-7075674D02*
X9410205Y-7123293D01*
X9410205Y-7123293D02*
X9400682Y-7161388D01*
X9400682Y-7161388D02*
X9391158Y-7180436D01*
X9391158Y-7180436D02*
X9381634Y-7189960D01*
X9381634Y-7189960D02*
X9362586Y-7199484D01*
X9362586Y-7199484D02*
X9343539Y-7199484D01*
X9343539Y-7199484D02*
X9324491Y-7189960D01*
X9324491Y-7189960D02*
X9314967Y-7180436D01*
X9314967Y-7180436D02*
X9305444Y-7161388D01*
X9305444Y-7161388D02*
X9295920Y-7123293D01*
X9295920Y-7123293D02*
X9295920Y-7075674D01*
X9295920Y-7075674D02*
X9305444Y-7037579D01*
X9305444Y-7037579D02*
X9314967Y-7018531D01*
X9314967Y-7018531D02*
X9324491Y-7009008D01*
X9324491Y-7009008D02*
X9343539Y-6999484D01*
X9495920Y-7199484D02*
X9495920Y-7066150D01*
X9495920Y-7085198D02*
X9505444Y-7075674D01*
X9505444Y-7075674D02*
X9524491Y-7066150D01*
X9524491Y-7066150D02*
X9553063Y-7066150D01*
X9553063Y-7066150D02*
X9572110Y-7075674D01*
X9572110Y-7075674D02*
X9581634Y-7094722D01*
X9581634Y-7094722D02*
X9581634Y-7199484D01*
X9581634Y-7094722D02*
X9591158Y-7075674D01*
X9591158Y-7075674D02*
X9610205Y-7066150D01*
X9610205Y-7066150D02*
X9638777Y-7066150D01*
X9638777Y-7066150D02*
X9657825Y-7075674D01*
X9657825Y-7075674D02*
X9667348Y-7094722D01*
X9667348Y-7094722D02*
X9667348Y-7199484D01*
X9762586Y-7199484D02*
X9762586Y-7066150D01*
X9762586Y-7085198D02*
X9772110Y-7075674D01*
X9772110Y-7075674D02*
X9791158Y-7066150D01*
X9791158Y-7066150D02*
X9819729Y-7066150D01*
X9819729Y-7066150D02*
X9838777Y-7075674D01*
X9838777Y-7075674D02*
X9848301Y-7094722D01*
X9848301Y-7094722D02*
X9848301Y-7199484D01*
X9848301Y-7094722D02*
X9857825Y-7075674D01*
X9857825Y-7075674D02*
X9876872Y-7066150D01*
X9876872Y-7066150D02*
X9905444Y-7066150D01*
X9905444Y-7066150D02*
X9924491Y-7075674D01*
X9924491Y-7075674D02*
X9934015Y-7094722D01*
X9934015Y-7094722D02*
X9934015Y-7199484D01*
X10324491Y-6989960D02*
X10153063Y-7247103D01*
X10581634Y-6999484D02*
X10600682Y-6999484D01*
X10600682Y-6999484D02*
X10619729Y-7009008D01*
X10619729Y-7009008D02*
X10629253Y-7018531D01*
X10629253Y-7018531D02*
X10638777Y-7037579D01*
X10638777Y-7037579D02*
X10648301Y-7075674D01*
X10648301Y-7075674D02*
X10648301Y-7123293D01*
X10648301Y-7123293D02*
X10638777Y-7161388D01*
X10638777Y-7161388D02*
X10629253Y-7180436D01*
X10629253Y-7180436D02*
X10619729Y-7189960D01*
X10619729Y-7189960D02*
X10600682Y-7199484D01*
X10600682Y-7199484D02*
X10581634Y-7199484D01*
X10581634Y-7199484D02*
X10562587Y-7189960D01*
X10562587Y-7189960D02*
X10553063Y-7180436D01*
X10553063Y-7180436D02*
X10543539Y-7161388D01*
X10543539Y-7161388D02*
X10534015Y-7123293D01*
X10534015Y-7123293D02*
X10534015Y-7075674D01*
X10534015Y-7075674D02*
X10543539Y-7037579D01*
X10543539Y-7037579D02*
X10553063Y-7018531D01*
X10553063Y-7018531D02*
X10562587Y-7009008D01*
X10562587Y-7009008D02*
X10581634Y-6999484D01*
X10734015Y-7180436D02*
X10743539Y-7189960D01*
X10743539Y-7189960D02*
X10734015Y-7199484D01*
X10734015Y-7199484D02*
X10724491Y-7189960D01*
X10724491Y-7189960D02*
X10734015Y-7180436D01*
X10734015Y-7180436D02*
X10734015Y-7199484D01*
X10867348Y-6999484D02*
X10886396Y-6999484D01*
X10886396Y-6999484D02*
X10905444Y-7009008D01*
X10905444Y-7009008D02*
X10914968Y-7018531D01*
X10914968Y-7018531D02*
X10924491Y-7037579D01*
X10924491Y-7037579D02*
X10934015Y-7075674D01*
X10934015Y-7075674D02*
X10934015Y-7123293D01*
X10934015Y-7123293D02*
X10924491Y-7161388D01*
X10924491Y-7161388D02*
X10914968Y-7180436D01*
X10914968Y-7180436D02*
X10905444Y-7189960D01*
X10905444Y-7189960D02*
X10886396Y-7199484D01*
X10886396Y-7199484D02*
X10867348Y-7199484D01*
X10867348Y-7199484D02*
X10848301Y-7189960D01*
X10848301Y-7189960D02*
X10838777Y-7180436D01*
X10838777Y-7180436D02*
X10829253Y-7161388D01*
X10829253Y-7161388D02*
X10819729Y-7123293D01*
X10819729Y-7123293D02*
X10819729Y-7075674D01*
X10819729Y-7075674D02*
X10829253Y-7037579D01*
X10829253Y-7037579D02*
X10838777Y-7018531D01*
X10838777Y-7018531D02*
X10848301Y-7009008D01*
X10848301Y-7009008D02*
X10867348Y-6999484D01*
X11010206Y-7018531D02*
X11019729Y-7009008D01*
X11019729Y-7009008D02*
X11038777Y-6999484D01*
X11038777Y-6999484D02*
X11086396Y-6999484D01*
X11086396Y-6999484D02*
X11105444Y-7009008D01*
X11105444Y-7009008D02*
X11114968Y-7018531D01*
X11114968Y-7018531D02*
X11124491Y-7037579D01*
X11124491Y-7037579D02*
X11124491Y-7056627D01*
X11124491Y-7056627D02*
X11114968Y-7085198D01*
X11114968Y-7085198D02*
X11000682Y-7199484D01*
X11000682Y-7199484D02*
X11124491Y-7199484D01*
X11191158Y-6999484D02*
X11314967Y-6999484D01*
X11314967Y-6999484D02*
X11248301Y-7075674D01*
X11248301Y-7075674D02*
X11276872Y-7075674D01*
X11276872Y-7075674D02*
X11295920Y-7085198D01*
X11295920Y-7085198D02*
X11305444Y-7094722D01*
X11305444Y-7094722D02*
X11314967Y-7113769D01*
X11314967Y-7113769D02*
X11314967Y-7161388D01*
X11314967Y-7161388D02*
X11305444Y-7180436D01*
X11305444Y-7180436D02*
X11295920Y-7189960D01*
X11295920Y-7189960D02*
X11276872Y-7199484D01*
X11276872Y-7199484D02*
X11219729Y-7199484D01*
X11219729Y-7199484D02*
X11200682Y-7189960D01*
X11200682Y-7189960D02*
X11191158Y-7180436D01*
X11486396Y-6999484D02*
X11448301Y-6999484D01*
X11448301Y-6999484D02*
X11429253Y-7009008D01*
X11429253Y-7009008D02*
X11419729Y-7018531D01*
X11419729Y-7018531D02*
X11400682Y-7047103D01*
X11400682Y-7047103D02*
X11391158Y-7085198D01*
X11391158Y-7085198D02*
X11391158Y-7161388D01*
X11391158Y-7161388D02*
X11400682Y-7180436D01*
X11400682Y-7180436D02*
X11410206Y-7189960D01*
X11410206Y-7189960D02*
X11429253Y-7199484D01*
X11429253Y-7199484D02*
X11467348Y-7199484D01*
X11467348Y-7199484D02*
X11486396Y-7189960D01*
X11486396Y-7189960D02*
X11495920Y-7180436D01*
X11495920Y-7180436D02*
X11505444Y-7161388D01*
X11505444Y-7161388D02*
X11505444Y-7113769D01*
X11505444Y-7113769D02*
X11495920Y-7094722D01*
X11495920Y-7094722D02*
X11486396Y-7085198D01*
X11486396Y-7085198D02*
X11467348Y-7075674D01*
X11467348Y-7075674D02*
X11429253Y-7075674D01*
X11429253Y-7075674D02*
X11410206Y-7085198D01*
X11410206Y-7085198D02*
X11400682Y-7094722D01*
X11400682Y-7094722D02*
X11391158Y-7113769D01*
X11581634Y-6999484D02*
X11581634Y-7037579D01*
X11657825Y-6999484D02*
X11657825Y-7037579D01*
X11953063Y-7275674D02*
X11943539Y-7266150D01*
X11943539Y-7266150D02*
X11924491Y-7237579D01*
X11924491Y-7237579D02*
X11914968Y-7218531D01*
X11914968Y-7218531D02*
X11905444Y-7189960D01*
X11905444Y-7189960D02*
X11895920Y-7142341D01*
X11895920Y-7142341D02*
X11895920Y-7104246D01*
X11895920Y-7104246D02*
X11905444Y-7056627D01*
X11905444Y-7056627D02*
X11914968Y-7028055D01*
X11914968Y-7028055D02*
X11924491Y-7009008D01*
X11924491Y-7009008D02*
X11943539Y-6980436D01*
X11943539Y-6980436D02*
X11953063Y-6970912D01*
X12114968Y-7066150D02*
X12114968Y-7199484D01*
X12067348Y-6989960D02*
X12019729Y-7132817D01*
X12019729Y-7132817D02*
X12143539Y-7132817D01*
X12372110Y-7199484D02*
X12372110Y-6999484D01*
X12457825Y-7199484D02*
X12457825Y-7094722D01*
X12457825Y-7094722D02*
X12448301Y-7075674D01*
X12448301Y-7075674D02*
X12429253Y-7066150D01*
X12429253Y-7066150D02*
X12400682Y-7066150D01*
X12400682Y-7066150D02*
X12381634Y-7075674D01*
X12381634Y-7075674D02*
X12372110Y-7085198D01*
X12581634Y-7199484D02*
X12562587Y-7189960D01*
X12562587Y-7189960D02*
X12553063Y-7180436D01*
X12553063Y-7180436D02*
X12543539Y-7161388D01*
X12543539Y-7161388D02*
X12543539Y-7104246D01*
X12543539Y-7104246D02*
X12553063Y-7085198D01*
X12553063Y-7085198D02*
X12562587Y-7075674D01*
X12562587Y-7075674D02*
X12581634Y-7066150D01*
X12581634Y-7066150D02*
X12610206Y-7066150D01*
X12610206Y-7066150D02*
X12629253Y-7075674D01*
X12629253Y-7075674D02*
X12638777Y-7085198D01*
X12638777Y-7085198D02*
X12648301Y-7104246D01*
X12648301Y-7104246D02*
X12648301Y-7161388D01*
X12648301Y-7161388D02*
X12638777Y-7180436D01*
X12638777Y-7180436D02*
X12629253Y-7189960D01*
X12629253Y-7189960D02*
X12610206Y-7199484D01*
X12610206Y-7199484D02*
X12581634Y-7199484D01*
X12762587Y-7199484D02*
X12743539Y-7189960D01*
X12743539Y-7189960D02*
X12734015Y-7170912D01*
X12734015Y-7170912D02*
X12734015Y-6999484D01*
X12914968Y-7189960D02*
X12895920Y-7199484D01*
X12895920Y-7199484D02*
X12857825Y-7199484D01*
X12857825Y-7199484D02*
X12838777Y-7189960D01*
X12838777Y-7189960D02*
X12829253Y-7170912D01*
X12829253Y-7170912D02*
X12829253Y-7094722D01*
X12829253Y-7094722D02*
X12838777Y-7075674D01*
X12838777Y-7075674D02*
X12857825Y-7066150D01*
X12857825Y-7066150D02*
X12895920Y-7066150D01*
X12895920Y-7066150D02*
X12914968Y-7075674D01*
X12914968Y-7075674D02*
X12924491Y-7094722D01*
X12924491Y-7094722D02*
X12924491Y-7113769D01*
X12924491Y-7113769D02*
X12829253Y-7132817D01*
X13000682Y-7189960D02*
X13019730Y-7199484D01*
X13019730Y-7199484D02*
X13057825Y-7199484D01*
X13057825Y-7199484D02*
X13076872Y-7189960D01*
X13076872Y-7189960D02*
X13086396Y-7170912D01*
X13086396Y-7170912D02*
X13086396Y-7161388D01*
X13086396Y-7161388D02*
X13076872Y-7142341D01*
X13076872Y-7142341D02*
X13057825Y-7132817D01*
X13057825Y-7132817D02*
X13029253Y-7132817D01*
X13029253Y-7132817D02*
X13010206Y-7123293D01*
X13010206Y-7123293D02*
X13000682Y-7104246D01*
X13000682Y-7104246D02*
X13000682Y-7094722D01*
X13000682Y-7094722D02*
X13010206Y-7075674D01*
X13010206Y-7075674D02*
X13029253Y-7066150D01*
X13029253Y-7066150D02*
X13057825Y-7066150D01*
X13057825Y-7066150D02*
X13076872Y-7075674D01*
X13153063Y-7275674D02*
X13162587Y-7266150D01*
X13162587Y-7266150D02*
X13181634Y-7237579D01*
X13181634Y-7237579D02*
X13191158Y-7218531D01*
X13191158Y-7218531D02*
X13200682Y-7189960D01*
X13200682Y-7189960D02*
X13210206Y-7142341D01*
X13210206Y-7142341D02*
X13210206Y-7104246D01*
X13210206Y-7104246D02*
X13200682Y-7056627D01*
X13200682Y-7056627D02*
X13191158Y-7028055D01*
X13191158Y-7028055D02*
X13181634Y-7009008D01*
X13181634Y-7009008D02*
X13162587Y-6980436D01*
X13162587Y-6980436D02*
X13153063Y-6970912D01*
X13514968Y-7275674D02*
X13505444Y-7266150D01*
X13505444Y-7266150D02*
X13486396Y-7237579D01*
X13486396Y-7237579D02*
X13476872Y-7218531D01*
X13476872Y-7218531D02*
X13467349Y-7189960D01*
X13467349Y-7189960D02*
X13457825Y-7142341D01*
X13457825Y-7142341D02*
X13457825Y-7104246D01*
X13457825Y-7104246D02*
X13467349Y-7056627D01*
X13467349Y-7056627D02*
X13476872Y-7028055D01*
X13476872Y-7028055D02*
X13486396Y-7009008D01*
X13486396Y-7009008D02*
X13505444Y-6980436D01*
X13505444Y-6980436D02*
X13514968Y-6970912D01*
X13591158Y-7066150D02*
X13591158Y-7199484D01*
X13591158Y-7085198D02*
X13600682Y-7075674D01*
X13600682Y-7075674D02*
X13619730Y-7066150D01*
X13619730Y-7066150D02*
X13648301Y-7066150D01*
X13648301Y-7066150D02*
X13667349Y-7075674D01*
X13667349Y-7075674D02*
X13676872Y-7094722D01*
X13676872Y-7094722D02*
X13676872Y-7199484D01*
X13800682Y-7199484D02*
X13781634Y-7189960D01*
X13781634Y-7189960D02*
X13772111Y-7180436D01*
X13772111Y-7180436D02*
X13762587Y-7161388D01*
X13762587Y-7161388D02*
X13762587Y-7104246D01*
X13762587Y-7104246D02*
X13772111Y-7085198D01*
X13772111Y-7085198D02*
X13781634Y-7075674D01*
X13781634Y-7075674D02*
X13800682Y-7066150D01*
X13800682Y-7066150D02*
X13829253Y-7066150D01*
X13829253Y-7066150D02*
X13848301Y-7075674D01*
X13848301Y-7075674D02*
X13857825Y-7085198D01*
X13857825Y-7085198D02*
X13867349Y-7104246D01*
X13867349Y-7104246D02*
X13867349Y-7161388D01*
X13867349Y-7161388D02*
X13857825Y-7180436D01*
X13857825Y-7180436D02*
X13848301Y-7189960D01*
X13848301Y-7189960D02*
X13829253Y-7199484D01*
X13829253Y-7199484D02*
X13800682Y-7199484D01*
X13924492Y-7066150D02*
X14000682Y-7066150D01*
X13953063Y-6999484D02*
X13953063Y-7170912D01*
X13953063Y-7170912D02*
X13962587Y-7189960D01*
X13962587Y-7189960D02*
X13981634Y-7199484D01*
X13981634Y-7199484D02*
X14000682Y-7199484D01*
X14219730Y-7066150D02*
X14219730Y-7266150D01*
X14219730Y-7075674D02*
X14238777Y-7066150D01*
X14238777Y-7066150D02*
X14276873Y-7066150D01*
X14276873Y-7066150D02*
X14295920Y-7075674D01*
X14295920Y-7075674D02*
X14305444Y-7085198D01*
X14305444Y-7085198D02*
X14314968Y-7104246D01*
X14314968Y-7104246D02*
X14314968Y-7161388D01*
X14314968Y-7161388D02*
X14305444Y-7180436D01*
X14305444Y-7180436D02*
X14295920Y-7189960D01*
X14295920Y-7189960D02*
X14276873Y-7199484D01*
X14276873Y-7199484D02*
X14238777Y-7199484D01*
X14238777Y-7199484D02*
X14219730Y-7189960D01*
X14429253Y-7199484D02*
X14410206Y-7189960D01*
X14410206Y-7189960D02*
X14400682Y-7170912D01*
X14400682Y-7170912D02*
X14400682Y-6999484D01*
X14591158Y-7199484D02*
X14591158Y-7094722D01*
X14591158Y-7094722D02*
X14581634Y-7075674D01*
X14581634Y-7075674D02*
X14562587Y-7066150D01*
X14562587Y-7066150D02*
X14524492Y-7066150D01*
X14524492Y-7066150D02*
X14505444Y-7075674D01*
X14591158Y-7189960D02*
X14572111Y-7199484D01*
X14572111Y-7199484D02*
X14524492Y-7199484D01*
X14524492Y-7199484D02*
X14505444Y-7189960D01*
X14505444Y-7189960D02*
X14495920Y-7170912D01*
X14495920Y-7170912D02*
X14495920Y-7151865D01*
X14495920Y-7151865D02*
X14505444Y-7132817D01*
X14505444Y-7132817D02*
X14524492Y-7123293D01*
X14524492Y-7123293D02*
X14572111Y-7123293D01*
X14572111Y-7123293D02*
X14591158Y-7113769D01*
X14657825Y-7066150D02*
X14734015Y-7066150D01*
X14686396Y-6999484D02*
X14686396Y-7170912D01*
X14686396Y-7170912D02*
X14695920Y-7189960D01*
X14695920Y-7189960D02*
X14714968Y-7199484D01*
X14714968Y-7199484D02*
X14734015Y-7199484D01*
X14876873Y-7189960D02*
X14857825Y-7199484D01*
X14857825Y-7199484D02*
X14819730Y-7199484D01*
X14819730Y-7199484D02*
X14800682Y-7189960D01*
X14800682Y-7189960D02*
X14791158Y-7170912D01*
X14791158Y-7170912D02*
X14791158Y-7094722D01*
X14791158Y-7094722D02*
X14800682Y-7075674D01*
X14800682Y-7075674D02*
X14819730Y-7066150D01*
X14819730Y-7066150D02*
X14857825Y-7066150D01*
X14857825Y-7066150D02*
X14876873Y-7075674D01*
X14876873Y-7075674D02*
X14886396Y-7094722D01*
X14886396Y-7094722D02*
X14886396Y-7113769D01*
X14886396Y-7113769D02*
X14791158Y-7132817D01*
X15057825Y-7199484D02*
X15057825Y-6999484D01*
X15057825Y-7189960D02*
X15038777Y-7199484D01*
X15038777Y-7199484D02*
X15000682Y-7199484D01*
X15000682Y-7199484D02*
X14981634Y-7189960D01*
X14981634Y-7189960D02*
X14972111Y-7180436D01*
X14972111Y-7180436D02*
X14962587Y-7161388D01*
X14962587Y-7161388D02*
X14962587Y-7104246D01*
X14962587Y-7104246D02*
X14972111Y-7085198D01*
X14972111Y-7085198D02*
X14981634Y-7075674D01*
X14981634Y-7075674D02*
X15000682Y-7066150D01*
X15000682Y-7066150D02*
X15038777Y-7066150D01*
X15038777Y-7066150D02*
X15057825Y-7075674D01*
X15134015Y-7275674D02*
X15143539Y-7266150D01*
X15143539Y-7266150D02*
X15162587Y-7237579D01*
X15162587Y-7237579D02*
X15172111Y-7218531D01*
X15172111Y-7218531D02*
X15181634Y-7189960D01*
X15181634Y-7189960D02*
X15191158Y-7142341D01*
X15191158Y-7142341D02*
X15191158Y-7104246D01*
X15191158Y-7104246D02*
X15181634Y-7056627D01*
X15181634Y-7056627D02*
X15172111Y-7028055D01*
X15172111Y-7028055D02*
X15162587Y-7009008D01*
X15162587Y-7009008D02*
X15143539Y-6980436D01*
X15143539Y-6980436D02*
X15134015Y-6970912D01*
D10*
X8378000Y-7372000D02*
G75*
G02*
X8278000Y-7372000I-50000J0D01*
G01*
X8278000Y-7372000D02*
G75*
G02*
X8378000Y-7372000I50000J0D01*
G01*
D12*
X8743539Y-7463484D02*
X8629253Y-7463484D01*
X8686396Y-7463484D02*
X8686396Y-7263484D01*
X8686396Y-7263484D02*
X8667348Y-7292055D01*
X8667348Y-7292055D02*
X8648301Y-7311103D01*
X8648301Y-7311103D02*
X8629253Y-7320627D01*
X8829253Y-7444436D02*
X8838777Y-7453960D01*
X8838777Y-7453960D02*
X8829253Y-7463484D01*
X8829253Y-7463484D02*
X8819729Y-7453960D01*
X8819729Y-7453960D02*
X8829253Y-7444436D01*
X8829253Y-7444436D02*
X8829253Y-7463484D01*
X8962586Y-7263484D02*
X8981634Y-7263484D01*
X8981634Y-7263484D02*
X9000682Y-7273008D01*
X9000682Y-7273008D02*
X9010205Y-7282531D01*
X9010205Y-7282531D02*
X9019729Y-7301579D01*
X9019729Y-7301579D02*
X9029253Y-7339674D01*
X9029253Y-7339674D02*
X9029253Y-7387293D01*
X9029253Y-7387293D02*
X9019729Y-7425388D01*
X9019729Y-7425388D02*
X9010205Y-7444436D01*
X9010205Y-7444436D02*
X9000682Y-7453960D01*
X9000682Y-7453960D02*
X8981634Y-7463484D01*
X8981634Y-7463484D02*
X8962586Y-7463484D01*
X8962586Y-7463484D02*
X8943539Y-7453960D01*
X8943539Y-7453960D02*
X8934015Y-7444436D01*
X8934015Y-7444436D02*
X8924491Y-7425388D01*
X8924491Y-7425388D02*
X8914967Y-7387293D01*
X8914967Y-7387293D02*
X8914967Y-7339674D01*
X8914967Y-7339674D02*
X8924491Y-7301579D01*
X8924491Y-7301579D02*
X8934015Y-7282531D01*
X8934015Y-7282531D02*
X8943539Y-7273008D01*
X8943539Y-7273008D02*
X8962586Y-7263484D01*
X9153063Y-7263484D02*
X9172110Y-7263484D01*
X9172110Y-7263484D02*
X9191158Y-7273008D01*
X9191158Y-7273008D02*
X9200682Y-7282531D01*
X9200682Y-7282531D02*
X9210205Y-7301579D01*
X9210205Y-7301579D02*
X9219729Y-7339674D01*
X9219729Y-7339674D02*
X9219729Y-7387293D01*
X9219729Y-7387293D02*
X9210205Y-7425388D01*
X9210205Y-7425388D02*
X9200682Y-7444436D01*
X9200682Y-7444436D02*
X9191158Y-7453960D01*
X9191158Y-7453960D02*
X9172110Y-7463484D01*
X9172110Y-7463484D02*
X9153063Y-7463484D01*
X9153063Y-7463484D02*
X9134015Y-7453960D01*
X9134015Y-7453960D02*
X9124491Y-7444436D01*
X9124491Y-7444436D02*
X9114967Y-7425388D01*
X9114967Y-7425388D02*
X9105444Y-7387293D01*
X9105444Y-7387293D02*
X9105444Y-7339674D01*
X9105444Y-7339674D02*
X9114967Y-7301579D01*
X9114967Y-7301579D02*
X9124491Y-7282531D01*
X9124491Y-7282531D02*
X9134015Y-7273008D01*
X9134015Y-7273008D02*
X9153063Y-7263484D01*
X9343539Y-7263484D02*
X9362586Y-7263484D01*
X9362586Y-7263484D02*
X9381634Y-7273008D01*
X9381634Y-7273008D02*
X9391158Y-7282531D01*
X9391158Y-7282531D02*
X9400682Y-7301579D01*
X9400682Y-7301579D02*
X9410205Y-7339674D01*
X9410205Y-7339674D02*
X9410205Y-7387293D01*
X9410205Y-7387293D02*
X9400682Y-7425388D01*
X9400682Y-7425388D02*
X9391158Y-7444436D01*
X9391158Y-7444436D02*
X9381634Y-7453960D01*
X9381634Y-7453960D02*
X9362586Y-7463484D01*
X9362586Y-7463484D02*
X9343539Y-7463484D01*
X9343539Y-7463484D02*
X9324491Y-7453960D01*
X9324491Y-7453960D02*
X9314967Y-7444436D01*
X9314967Y-7444436D02*
X9305444Y-7425388D01*
X9305444Y-7425388D02*
X9295920Y-7387293D01*
X9295920Y-7387293D02*
X9295920Y-7339674D01*
X9295920Y-7339674D02*
X9305444Y-7301579D01*
X9305444Y-7301579D02*
X9314967Y-7282531D01*
X9314967Y-7282531D02*
X9324491Y-7273008D01*
X9324491Y-7273008D02*
X9343539Y-7263484D01*
X9495920Y-7463484D02*
X9495920Y-7330150D01*
X9495920Y-7349198D02*
X9505444Y-7339674D01*
X9505444Y-7339674D02*
X9524491Y-7330150D01*
X9524491Y-7330150D02*
X9553063Y-7330150D01*
X9553063Y-7330150D02*
X9572110Y-7339674D01*
X9572110Y-7339674D02*
X9581634Y-7358722D01*
X9581634Y-7358722D02*
X9581634Y-7463484D01*
X9581634Y-7358722D02*
X9591158Y-7339674D01*
X9591158Y-7339674D02*
X9610205Y-7330150D01*
X9610205Y-7330150D02*
X9638777Y-7330150D01*
X9638777Y-7330150D02*
X9657825Y-7339674D01*
X9657825Y-7339674D02*
X9667348Y-7358722D01*
X9667348Y-7358722D02*
X9667348Y-7463484D01*
X9762586Y-7463484D02*
X9762586Y-7330150D01*
X9762586Y-7349198D02*
X9772110Y-7339674D01*
X9772110Y-7339674D02*
X9791158Y-7330150D01*
X9791158Y-7330150D02*
X9819729Y-7330150D01*
X9819729Y-7330150D02*
X9838777Y-7339674D01*
X9838777Y-7339674D02*
X9848301Y-7358722D01*
X9848301Y-7358722D02*
X9848301Y-7463484D01*
X9848301Y-7358722D02*
X9857825Y-7339674D01*
X9857825Y-7339674D02*
X9876872Y-7330150D01*
X9876872Y-7330150D02*
X9905444Y-7330150D01*
X9905444Y-7330150D02*
X9924491Y-7339674D01*
X9924491Y-7339674D02*
X9934015Y-7358722D01*
X9934015Y-7358722D02*
X9934015Y-7463484D01*
X10324491Y-7253960D02*
X10153063Y-7511103D01*
X10581634Y-7263484D02*
X10600682Y-7263484D01*
X10600682Y-7263484D02*
X10619729Y-7273008D01*
X10619729Y-7273008D02*
X10629253Y-7282531D01*
X10629253Y-7282531D02*
X10638777Y-7301579D01*
X10638777Y-7301579D02*
X10648301Y-7339674D01*
X10648301Y-7339674D02*
X10648301Y-7387293D01*
X10648301Y-7387293D02*
X10638777Y-7425388D01*
X10638777Y-7425388D02*
X10629253Y-7444436D01*
X10629253Y-7444436D02*
X10619729Y-7453960D01*
X10619729Y-7453960D02*
X10600682Y-7463484D01*
X10600682Y-7463484D02*
X10581634Y-7463484D01*
X10581634Y-7463484D02*
X10562587Y-7453960D01*
X10562587Y-7453960D02*
X10553063Y-7444436D01*
X10553063Y-7444436D02*
X10543539Y-7425388D01*
X10543539Y-7425388D02*
X10534015Y-7387293D01*
X10534015Y-7387293D02*
X10534015Y-7339674D01*
X10534015Y-7339674D02*
X10543539Y-7301579D01*
X10543539Y-7301579D02*
X10553063Y-7282531D01*
X10553063Y-7282531D02*
X10562587Y-7273008D01*
X10562587Y-7273008D02*
X10581634Y-7263484D01*
X10734015Y-7444436D02*
X10743539Y-7453960D01*
X10743539Y-7453960D02*
X10734015Y-7463484D01*
X10734015Y-7463484D02*
X10724491Y-7453960D01*
X10724491Y-7453960D02*
X10734015Y-7444436D01*
X10734015Y-7444436D02*
X10734015Y-7463484D01*
X10867348Y-7263484D02*
X10886396Y-7263484D01*
X10886396Y-7263484D02*
X10905444Y-7273008D01*
X10905444Y-7273008D02*
X10914968Y-7282531D01*
X10914968Y-7282531D02*
X10924491Y-7301579D01*
X10924491Y-7301579D02*
X10934015Y-7339674D01*
X10934015Y-7339674D02*
X10934015Y-7387293D01*
X10934015Y-7387293D02*
X10924491Y-7425388D01*
X10924491Y-7425388D02*
X10914968Y-7444436D01*
X10914968Y-7444436D02*
X10905444Y-7453960D01*
X10905444Y-7453960D02*
X10886396Y-7463484D01*
X10886396Y-7463484D02*
X10867348Y-7463484D01*
X10867348Y-7463484D02*
X10848301Y-7453960D01*
X10848301Y-7453960D02*
X10838777Y-7444436D01*
X10838777Y-7444436D02*
X10829253Y-7425388D01*
X10829253Y-7425388D02*
X10819729Y-7387293D01*
X10819729Y-7387293D02*
X10819729Y-7339674D01*
X10819729Y-7339674D02*
X10829253Y-7301579D01*
X10829253Y-7301579D02*
X10838777Y-7282531D01*
X10838777Y-7282531D02*
X10848301Y-7273008D01*
X10848301Y-7273008D02*
X10867348Y-7263484D01*
X11000682Y-7263484D02*
X11124491Y-7263484D01*
X11124491Y-7263484D02*
X11057825Y-7339674D01*
X11057825Y-7339674D02*
X11086396Y-7339674D01*
X11086396Y-7339674D02*
X11105444Y-7349198D01*
X11105444Y-7349198D02*
X11114968Y-7358722D01*
X11114968Y-7358722D02*
X11124491Y-7377769D01*
X11124491Y-7377769D02*
X11124491Y-7425388D01*
X11124491Y-7425388D02*
X11114968Y-7444436D01*
X11114968Y-7444436D02*
X11105444Y-7453960D01*
X11105444Y-7453960D02*
X11086396Y-7463484D01*
X11086396Y-7463484D02*
X11029253Y-7463484D01*
X11029253Y-7463484D02*
X11010206Y-7453960D01*
X11010206Y-7453960D02*
X11000682Y-7444436D01*
X11219729Y-7463484D02*
X11257825Y-7463484D01*
X11257825Y-7463484D02*
X11276872Y-7453960D01*
X11276872Y-7453960D02*
X11286396Y-7444436D01*
X11286396Y-7444436D02*
X11305444Y-7415865D01*
X11305444Y-7415865D02*
X11314967Y-7377769D01*
X11314967Y-7377769D02*
X11314967Y-7301579D01*
X11314967Y-7301579D02*
X11305444Y-7282531D01*
X11305444Y-7282531D02*
X11295920Y-7273008D01*
X11295920Y-7273008D02*
X11276872Y-7263484D01*
X11276872Y-7263484D02*
X11238777Y-7263484D01*
X11238777Y-7263484D02*
X11219729Y-7273008D01*
X11219729Y-7273008D02*
X11210206Y-7282531D01*
X11210206Y-7282531D02*
X11200682Y-7301579D01*
X11200682Y-7301579D02*
X11200682Y-7349198D01*
X11200682Y-7349198D02*
X11210206Y-7368246D01*
X11210206Y-7368246D02*
X11219729Y-7377769D01*
X11219729Y-7377769D02*
X11238777Y-7387293D01*
X11238777Y-7387293D02*
X11276872Y-7387293D01*
X11276872Y-7387293D02*
X11295920Y-7377769D01*
X11295920Y-7377769D02*
X11305444Y-7368246D01*
X11305444Y-7368246D02*
X11314967Y-7349198D01*
X11486396Y-7330150D02*
X11486396Y-7463484D01*
X11438777Y-7253960D02*
X11391158Y-7396817D01*
X11391158Y-7396817D02*
X11514967Y-7396817D01*
X11581634Y-7263484D02*
X11581634Y-7301579D01*
X11657825Y-7263484D02*
X11657825Y-7301579D01*
X11953063Y-7539674D02*
X11943539Y-7530150D01*
X11943539Y-7530150D02*
X11924491Y-7501579D01*
X11924491Y-7501579D02*
X11914968Y-7482531D01*
X11914968Y-7482531D02*
X11905444Y-7453960D01*
X11905444Y-7453960D02*
X11895920Y-7406341D01*
X11895920Y-7406341D02*
X11895920Y-7368246D01*
X11895920Y-7368246D02*
X11905444Y-7320627D01*
X11905444Y-7320627D02*
X11914968Y-7292055D01*
X11914968Y-7292055D02*
X11924491Y-7273008D01*
X11924491Y-7273008D02*
X11943539Y-7244436D01*
X11943539Y-7244436D02*
X11953063Y-7234912D01*
X12019729Y-7282531D02*
X12029253Y-7273008D01*
X12029253Y-7273008D02*
X12048301Y-7263484D01*
X12048301Y-7263484D02*
X12095920Y-7263484D01*
X12095920Y-7263484D02*
X12114968Y-7273008D01*
X12114968Y-7273008D02*
X12124491Y-7282531D01*
X12124491Y-7282531D02*
X12134015Y-7301579D01*
X12134015Y-7301579D02*
X12134015Y-7320627D01*
X12134015Y-7320627D02*
X12124491Y-7349198D01*
X12124491Y-7349198D02*
X12010206Y-7463484D01*
X12010206Y-7463484D02*
X12134015Y-7463484D01*
X12372110Y-7463484D02*
X12372110Y-7263484D01*
X12457825Y-7463484D02*
X12457825Y-7358722D01*
X12457825Y-7358722D02*
X12448301Y-7339674D01*
X12448301Y-7339674D02*
X12429253Y-7330150D01*
X12429253Y-7330150D02*
X12400682Y-7330150D01*
X12400682Y-7330150D02*
X12381634Y-7339674D01*
X12381634Y-7339674D02*
X12372110Y-7349198D01*
X12581634Y-7463484D02*
X12562587Y-7453960D01*
X12562587Y-7453960D02*
X12553063Y-7444436D01*
X12553063Y-7444436D02*
X12543539Y-7425388D01*
X12543539Y-7425388D02*
X12543539Y-7368246D01*
X12543539Y-7368246D02*
X12553063Y-7349198D01*
X12553063Y-7349198D02*
X12562587Y-7339674D01*
X12562587Y-7339674D02*
X12581634Y-7330150D01*
X12581634Y-7330150D02*
X12610206Y-7330150D01*
X12610206Y-7330150D02*
X12629253Y-7339674D01*
X12629253Y-7339674D02*
X12638777Y-7349198D01*
X12638777Y-7349198D02*
X12648301Y-7368246D01*
X12648301Y-7368246D02*
X12648301Y-7425388D01*
X12648301Y-7425388D02*
X12638777Y-7444436D01*
X12638777Y-7444436D02*
X12629253Y-7453960D01*
X12629253Y-7453960D02*
X12610206Y-7463484D01*
X12610206Y-7463484D02*
X12581634Y-7463484D01*
X12762587Y-7463484D02*
X12743539Y-7453960D01*
X12743539Y-7453960D02*
X12734015Y-7434912D01*
X12734015Y-7434912D02*
X12734015Y-7263484D01*
X12914968Y-7453960D02*
X12895920Y-7463484D01*
X12895920Y-7463484D02*
X12857825Y-7463484D01*
X12857825Y-7463484D02*
X12838777Y-7453960D01*
X12838777Y-7453960D02*
X12829253Y-7434912D01*
X12829253Y-7434912D02*
X12829253Y-7358722D01*
X12829253Y-7358722D02*
X12838777Y-7339674D01*
X12838777Y-7339674D02*
X12857825Y-7330150D01*
X12857825Y-7330150D02*
X12895920Y-7330150D01*
X12895920Y-7330150D02*
X12914968Y-7339674D01*
X12914968Y-7339674D02*
X12924491Y-7358722D01*
X12924491Y-7358722D02*
X12924491Y-7377769D01*
X12924491Y-7377769D02*
X12829253Y-7396817D01*
X13000682Y-7453960D02*
X13019730Y-7463484D01*
X13019730Y-7463484D02*
X13057825Y-7463484D01*
X13057825Y-7463484D02*
X13076872Y-7453960D01*
X13076872Y-7453960D02*
X13086396Y-7434912D01*
X13086396Y-7434912D02*
X13086396Y-7425388D01*
X13086396Y-7425388D02*
X13076872Y-7406341D01*
X13076872Y-7406341D02*
X13057825Y-7396817D01*
X13057825Y-7396817D02*
X13029253Y-7396817D01*
X13029253Y-7396817D02*
X13010206Y-7387293D01*
X13010206Y-7387293D02*
X13000682Y-7368246D01*
X13000682Y-7368246D02*
X13000682Y-7358722D01*
X13000682Y-7358722D02*
X13010206Y-7339674D01*
X13010206Y-7339674D02*
X13029253Y-7330150D01*
X13029253Y-7330150D02*
X13057825Y-7330150D01*
X13057825Y-7330150D02*
X13076872Y-7339674D01*
X13153063Y-7539674D02*
X13162587Y-7530150D01*
X13162587Y-7530150D02*
X13181634Y-7501579D01*
X13181634Y-7501579D02*
X13191158Y-7482531D01*
X13191158Y-7482531D02*
X13200682Y-7453960D01*
X13200682Y-7453960D02*
X13210206Y-7406341D01*
X13210206Y-7406341D02*
X13210206Y-7368246D01*
X13210206Y-7368246D02*
X13200682Y-7320627D01*
X13200682Y-7320627D02*
X13191158Y-7292055D01*
X13191158Y-7292055D02*
X13181634Y-7273008D01*
X13181634Y-7273008D02*
X13162587Y-7244436D01*
X13162587Y-7244436D02*
X13153063Y-7234912D01*
X13514968Y-7539674D02*
X13505444Y-7530150D01*
X13505444Y-7530150D02*
X13486396Y-7501579D01*
X13486396Y-7501579D02*
X13476872Y-7482531D01*
X13476872Y-7482531D02*
X13467349Y-7453960D01*
X13467349Y-7453960D02*
X13457825Y-7406341D01*
X13457825Y-7406341D02*
X13457825Y-7368246D01*
X13457825Y-7368246D02*
X13467349Y-7320627D01*
X13467349Y-7320627D02*
X13476872Y-7292055D01*
X13476872Y-7292055D02*
X13486396Y-7273008D01*
X13486396Y-7273008D02*
X13505444Y-7244436D01*
X13505444Y-7244436D02*
X13514968Y-7234912D01*
X13591158Y-7330150D02*
X13591158Y-7463484D01*
X13591158Y-7349198D02*
X13600682Y-7339674D01*
X13600682Y-7339674D02*
X13619730Y-7330150D01*
X13619730Y-7330150D02*
X13648301Y-7330150D01*
X13648301Y-7330150D02*
X13667349Y-7339674D01*
X13667349Y-7339674D02*
X13676872Y-7358722D01*
X13676872Y-7358722D02*
X13676872Y-7463484D01*
X13800682Y-7463484D02*
X13781634Y-7453960D01*
X13781634Y-7453960D02*
X13772111Y-7444436D01*
X13772111Y-7444436D02*
X13762587Y-7425388D01*
X13762587Y-7425388D02*
X13762587Y-7368246D01*
X13762587Y-7368246D02*
X13772111Y-7349198D01*
X13772111Y-7349198D02*
X13781634Y-7339674D01*
X13781634Y-7339674D02*
X13800682Y-7330150D01*
X13800682Y-7330150D02*
X13829253Y-7330150D01*
X13829253Y-7330150D02*
X13848301Y-7339674D01*
X13848301Y-7339674D02*
X13857825Y-7349198D01*
X13857825Y-7349198D02*
X13867349Y-7368246D01*
X13867349Y-7368246D02*
X13867349Y-7425388D01*
X13867349Y-7425388D02*
X13857825Y-7444436D01*
X13857825Y-7444436D02*
X13848301Y-7453960D01*
X13848301Y-7453960D02*
X13829253Y-7463484D01*
X13829253Y-7463484D02*
X13800682Y-7463484D01*
X13924492Y-7330150D02*
X14000682Y-7330150D01*
X13953063Y-7263484D02*
X13953063Y-7434912D01*
X13953063Y-7434912D02*
X13962587Y-7453960D01*
X13962587Y-7453960D02*
X13981634Y-7463484D01*
X13981634Y-7463484D02*
X14000682Y-7463484D01*
X14219730Y-7330150D02*
X14219730Y-7530150D01*
X14219730Y-7339674D02*
X14238777Y-7330150D01*
X14238777Y-7330150D02*
X14276873Y-7330150D01*
X14276873Y-7330150D02*
X14295920Y-7339674D01*
X14295920Y-7339674D02*
X14305444Y-7349198D01*
X14305444Y-7349198D02*
X14314968Y-7368246D01*
X14314968Y-7368246D02*
X14314968Y-7425388D01*
X14314968Y-7425388D02*
X14305444Y-7444436D01*
X14305444Y-7444436D02*
X14295920Y-7453960D01*
X14295920Y-7453960D02*
X14276873Y-7463484D01*
X14276873Y-7463484D02*
X14238777Y-7463484D01*
X14238777Y-7463484D02*
X14219730Y-7453960D01*
X14429253Y-7463484D02*
X14410206Y-7453960D01*
X14410206Y-7453960D02*
X14400682Y-7434912D01*
X14400682Y-7434912D02*
X14400682Y-7263484D01*
X14591158Y-7463484D02*
X14591158Y-7358722D01*
X14591158Y-7358722D02*
X14581634Y-7339674D01*
X14581634Y-7339674D02*
X14562587Y-7330150D01*
X14562587Y-7330150D02*
X14524492Y-7330150D01*
X14524492Y-7330150D02*
X14505444Y-7339674D01*
X14591158Y-7453960D02*
X14572111Y-7463484D01*
X14572111Y-7463484D02*
X14524492Y-7463484D01*
X14524492Y-7463484D02*
X14505444Y-7453960D01*
X14505444Y-7453960D02*
X14495920Y-7434912D01*
X14495920Y-7434912D02*
X14495920Y-7415865D01*
X14495920Y-7415865D02*
X14505444Y-7396817D01*
X14505444Y-7396817D02*
X14524492Y-7387293D01*
X14524492Y-7387293D02*
X14572111Y-7387293D01*
X14572111Y-7387293D02*
X14591158Y-7377769D01*
X14657825Y-7330150D02*
X14734015Y-7330150D01*
X14686396Y-7263484D02*
X14686396Y-7434912D01*
X14686396Y-7434912D02*
X14695920Y-7453960D01*
X14695920Y-7453960D02*
X14714968Y-7463484D01*
X14714968Y-7463484D02*
X14734015Y-7463484D01*
X14876873Y-7453960D02*
X14857825Y-7463484D01*
X14857825Y-7463484D02*
X14819730Y-7463484D01*
X14819730Y-7463484D02*
X14800682Y-7453960D01*
X14800682Y-7453960D02*
X14791158Y-7434912D01*
X14791158Y-7434912D02*
X14791158Y-7358722D01*
X14791158Y-7358722D02*
X14800682Y-7339674D01*
X14800682Y-7339674D02*
X14819730Y-7330150D01*
X14819730Y-7330150D02*
X14857825Y-7330150D01*
X14857825Y-7330150D02*
X14876873Y-7339674D01*
X14876873Y-7339674D02*
X14886396Y-7358722D01*
X14886396Y-7358722D02*
X14886396Y-7377769D01*
X14886396Y-7377769D02*
X14791158Y-7396817D01*
X15057825Y-7463484D02*
X15057825Y-7263484D01*
X15057825Y-7453960D02*
X15038777Y-7463484D01*
X15038777Y-7463484D02*
X15000682Y-7463484D01*
X15000682Y-7463484D02*
X14981634Y-7453960D01*
X14981634Y-7453960D02*
X14972111Y-7444436D01*
X14972111Y-7444436D02*
X14962587Y-7425388D01*
X14962587Y-7425388D02*
X14962587Y-7368246D01*
X14962587Y-7368246D02*
X14972111Y-7349198D01*
X14972111Y-7349198D02*
X14981634Y-7339674D01*
X14981634Y-7339674D02*
X15000682Y-7330150D01*
X15000682Y-7330150D02*
X15038777Y-7330150D01*
X15038777Y-7330150D02*
X15057825Y-7339674D01*
X15134015Y-7539674D02*
X15143539Y-7530150D01*
X15143539Y-7530150D02*
X15162587Y-7501579D01*
X15162587Y-7501579D02*
X15172111Y-7482531D01*
X15172111Y-7482531D02*
X15181634Y-7453960D01*
X15181634Y-7453960D02*
X15191158Y-7406341D01*
X15191158Y-7406341D02*
X15191158Y-7368246D01*
X15191158Y-7368246D02*
X15181634Y-7320627D01*
X15181634Y-7320627D02*
X15172111Y-7292055D01*
X15172111Y-7292055D02*
X15162587Y-7273008D01*
X15162587Y-7273008D02*
X15143539Y-7244436D01*
X15143539Y-7244436D02*
X15134015Y-7234912D01*
M02*
