M48
; DRILL file {KiCad 8.0.6} date 2024-11-19T20:15:17-0800
; FORMAT={-:-/ absolute / inch / decimal}
; #@! TF.CreationDate,2024-11-19T20:15:17-08:00
; #@! TF.GenerationSoftware,Kicad,Pcbnew,8.0.6
; #@! TF.FileFunction,Plated,1,6,PTH
FMAT,2
INCH
; #@! TA.AperFunction,Plated,PTH,ViaDrill
T1C0.0079
; #@! TA.AperFunction,Plated,PTH,ComponentDrill
T2C0.0118
; #@! TA.AperFunction,Plated,PTH,ComponentDrill
T3C0.0236
; #@! TA.AperFunction,Plated,PTH,ComponentDrill
T4C0.0256
; #@! TA.AperFunction,Plated,PTH,ComponentDrill
T5C0.0315
; #@! TA.AperFunction,Plated,PTH,ComponentDrill
T6C0.0394
; #@! TA.AperFunction,Plated,PTH,ComponentDrill
T7C0.1260
%
G90
G05
T1
X3.5177Y-2.2882
X3.5732Y-2.1429
X3.5874Y-2.1972
X3.5898Y-1.9079
X3.5917Y-2.0394
X3.5972Y-2.1106
X3.5976Y-2.0949
X3.6071Y-2.0425
X3.6079Y-2.1665
X3.615Y-2.1394
X3.6157Y-2.0782
X3.6189Y-2.0205
X3.6232Y-2.0453
X3.6236Y-2.1669
X3.6283Y-2.1933
X3.6307Y-2.1441
X3.6343Y-2.022
X3.6394Y-2.1673
X3.6417Y-1.9748
X3.6461Y-2.1449
X3.6463Y-1.9928
X3.6551Y-2.1677
X3.6575Y-1.9748
X3.6634Y-2.2917
X3.6681Y-2.1925
X3.6736Y-1.9748
X3.676Y-2.1665
X3.6764Y-2.1445
X3.678Y-1.7311
X3.6785Y-1.7693
X3.6795Y-1.8075
X3.6807Y-1.8417
X3.6858Y-2.2992
X3.6894Y-1.9752
X3.6921Y-2.1665
X3.6925Y-2.1441
X3.7043Y-2.1933
X3.7051Y-1.9752
X3.7142Y-2.1677
X3.715Y-2.1472
X3.7177Y-1.7307
X3.7183Y-1.7689
X3.7185Y-1.9555
X3.7193Y-1.8071
X3.7205Y-1.8413
X3.7209Y-1.976
X3.7244Y-2.0779
X3.7264Y-2.133
X3.7303Y-2.1677
X3.7366Y-1.9756
X3.7382Y-1.9422
X3.7394Y-2.3567
X3.74Y-2.3949
X3.7409Y-2.4331
X3.7413Y-2.0445
X3.7421Y-2.1331
X3.7421Y-2.1933
X3.7421Y-2.4673
X3.7461Y-2.1677
X3.7528Y-1.9756
X3.7535Y-2.0555
X3.7577Y-1.9555
X3.7622Y-1.7315
X3.7622Y-2.1677
X3.7628Y-1.7697
X3.7634Y-2.0346
X3.7638Y-1.8079
X3.765Y-1.8421
X3.7665Y-2.0646
X3.7677Y-1.9709
X3.7681Y-2.0197
X3.7709Y-2.1146
X3.7785Y-1.9443
X3.7791Y-2.3563
X3.7795Y-1.9602
X3.7797Y-2.3945
X3.7807Y-2.4327
X3.7819Y-2.4669
X3.7839Y-2.0173
X3.787Y-2.0374
X3.7878Y-2.0012
X3.7933Y-1.985
X3.8055Y-2.0213
X3.8077Y-1.7299
X3.8083Y-1.7681
X3.8093Y-1.8063
X3.8104Y-1.8406
X3.8169Y-1.6961
X3.8177Y-1.6169
X3.8217Y-2.0024
X3.8236Y-2.3571
X3.8242Y-2.3953
X3.8252Y-2.4335
X3.8264Y-2.4677
X3.8465Y-1.9831
X3.8472Y-1.8563
X3.848Y-1.7854
X3.8494Y-1.8217
X3.8618Y-2.0807
X3.8827Y-2.0687
X3.9286Y-1.8074
X3.9287Y-1.7776
X3.9327Y-1.9301
X3.9381Y-1.8429
X3.9409Y-1.8736
X3.9476Y-1.9484
X4.0283Y-1.713
X4.0299Y-2.1701
X4.0303Y-2.1969
X4.0404Y-1.8484
X4.0406Y-2.1163
X4.0547Y-1.6903
X4.0607Y-2.0687
X4.0859Y-1.8689
X4.0872Y-1.7101
X4.0976Y-2.051
X4.1035Y-1.8846
X4.1086Y-1.7296
X4.1261Y-1.9848
X4.135Y-2.3642
X4.1358Y-2.3256
X4.15Y-2.1213
X4.15Y-2.1524
X4.1504Y-1.837
X4.1585Y-1.9065
X4.1632Y-1.76
X4.1646Y-2.0706
X4.1756Y-2.3646
X4.176Y-2.4437
X4.1768Y-2.4051
X4.1819Y-1.7764
X4.1883Y-2.3365
X4.1932Y-2.0179
X4.1961Y-2.1949
X4.1968Y-1.9081
X4.1984Y-2.1689
X4.213Y-2.089
X4.2161Y-2.4433
X4.2169Y-2.3634
X4.2172Y-2.0222
X4.2224Y-1.7953
X4.2236Y-1.8545
X4.2267Y-1.9078
X4.2287Y-2.1047
X4.2292Y-1.7236
X4.2297Y-2.0422
X4.2351Y-1.9543
X4.2366Y-1.8161
X4.239Y-1.8738
X4.2529Y-2.408
X4.2531Y-2.0386
X4.2547Y-2.3642
X4.2547Y-2.4429
X4.2566Y-1.983
X4.2573Y-1.6852
X4.2577Y-1.757
X4.2585Y-1.889
X4.2682Y-2.018
X4.2696Y-1.9098
X4.2731Y-1.5978
X4.2752Y-1.8374
X4.285Y-1.8917
X4.2917Y-2.0736
X4.2921Y-2.018
X4.2929Y-1.7277
X4.2929Y-1.7894
X4.2931Y-2.1439
X4.2937Y-2.2862
X4.2949Y-2.3276
X4.295Y-1.8254
X4.3008Y-1.8531
X4.3121Y-1.905
X4.3147Y-2.1662
X4.3168Y-1.9838
X4.3207Y-1.7293
X4.3209Y-1.7894
X4.3236Y-1.7559
X4.3236Y-2.1443
X4.3247Y-2.0188
X4.3254Y-2.0659
X4.3292Y-2.1053
X4.334Y-1.6606
X4.3394Y-1.7744
X4.3481Y-1.7069
X4.3497Y-2.0176
X4.35Y-1.8894
X4.3528Y-2.1053
X4.3531Y-1.7579
X4.3543Y-1.8543
X4.3544Y-2.1403
X4.3555Y-1.8244
X4.3575Y-1.9516
X4.3613Y-2.1629
X4.3701Y-2.4657
X4.3787Y-1.8194
X4.3787Y-1.6776
X4.3806Y-1.7233
X4.3836Y-1.9823
X4.3837Y-2.11
X4.3842Y-2.1687
X4.3864Y-2.4454
X4.3866Y-1.885
X4.3868Y-2.3708
X4.387Y-1.8588
X4.3873Y-2.145
X4.3874Y-2.0358
X4.3879Y-1.9472
X4.3901Y-2.33
X4.3936Y-1.7929
X4.3947Y-2.0708
X4.402Y-1.7425
X4.4031Y-1.8992
X4.4108Y-2.1398
X4.4122Y-1.9472
X4.415Y-1.7098
X4.4156Y-1.9823
X4.4172Y-1.792
X4.4189Y-2.0821
X4.4192Y-2.1729
X4.4197Y-1.8858
X4.42Y-2.3486
X4.4206Y-1.821
X4.4217Y-1.75
X4.4219Y-1.6767
X4.4268Y-2.3713
X4.4272Y-2.0176
X4.4406Y-1.9823
X4.4439Y-1.8306
X4.4447Y-1.9118
X4.4448Y-1.7956
X4.4472Y-2.0724
X4.4488Y-2.0441
X4.4519Y-1.7584
X4.4521Y-2.0193
X4.4523Y-2.1291
X4.4548Y-2.1749
X4.4555Y-1.8908
X4.464Y-2.3683
X4.4677Y-2.3268
X4.4705Y-1.6545
X4.471Y-1.9716
X4.4734Y-2.0071
X4.478Y-2.17
X4.4787Y-2.0409
X4.4797Y-1.9102
X4.4799Y-1.9496
X4.4799Y-2.1398
X4.4813Y-1.7576
X4.4846Y-2.0728
X4.4858Y-2.4279
X4.4882Y-1.8882
X4.4988Y-2.2737
X4.5102Y-1.9138
X4.5118Y-2.0736
X4.5122Y-2.0106
X4.5126Y-2.1031
X4.5128Y-1.8877
X4.5138Y-2.1358
X4.5142Y-2.0445
X4.5173Y-1.7885
X4.5177Y-1.8472
X4.5182Y-2.4445
X4.5189Y-2.4051
X4.5189Y-1.8236
X4.5199Y-2.1681
X4.5199Y-2.3265
X4.5199Y-2.3695
X4.5233Y-1.9898
X4.528Y-1.7429
X4.5331Y-2.116
X4.536Y-1.8838
X4.5407Y-1.7817
X4.5413Y-1.8455
X4.5453Y-2.1362
X4.5476Y-1.9472
X4.5559Y-2.174
X4.5571Y-2.4444
X4.5583Y-2.3657
X4.5612Y-1.7584
X4.566Y-1.7283
X4.5685Y-2.0079
X4.579Y-2.1262
X4.5815Y-2.0721
X4.5959Y-2.4444
X4.5969Y-2.3654
X4.5976Y-2.4051
X4.6111Y-1.6388
X4.6266Y-1.898
X4.6346Y-2.2866
X4.6358Y-2.328
X4.6386Y-1.6357
X4.6619Y-1.6322
X4.6885Y-1.6093
X4.7063Y-2.0768
X4.7499Y-1.8525
X4.7499Y-1.9214
X4.7504Y-2.0068
X4.7509Y-2.0928
X4.7787Y-1.9382
X4.7811Y-1.8055
X4.7815Y-1.85
X4.7843Y-1.9807
X4.7884Y-2.0986
X4.7899Y-2.062
X4.7909Y-1.8953
X4.7936Y-2.0135
X4.7965Y-2.15
X4.811Y-2.2758
X4.8217Y-1.8299
X4.8306Y-2.0681
X4.8402Y-1.9815
X4.8437Y-2.2756
X4.8795Y-2.374
X4.8869Y-1.8549
X4.8913Y-2.1909
X4.8913Y-2.2287
X4.8921Y-1.9024
X4.8921Y-1.9606
X4.9001Y-2.3746
X4.9039Y-1.7213
X4.9118Y-2.1303
X4.9201Y-2.3744
X4.9272Y-1.8972
X4.9326Y-1.8732
X4.9339Y-2.0012
X4.9351Y-1.7756
X4.9417Y-2.052
X4.9531Y-2.4118
X4.9614Y-2.2215
X4.9732Y-2.4118
X4.9736Y-2.3374
X4.9743Y-1.8731
X4.9819Y-2.1254
X4.9925Y-1.8894
X4.9941Y-2.1766
X4.9949Y-2.4118
X5.0016Y-2.2228
X5.0106Y-1.8116
X5.024Y-1.8343
X5.0248Y-1.7398
X5.0252Y-2.0311
X5.0254Y-1.7634
X5.0258Y-1.9998
X5.026Y-1.7055
X5.0283Y-1.9626
X5.0295Y-2.0781
X5.0307Y-2.2772
X5.0331Y-2.3858
X5.0335Y-2.3587
X5.0374Y-1.7862
X5.0423Y-2.1254
X5.063Y-2.2758
X5.0713Y-2.3571
X5.0717Y-2.3839
X5.0961Y-2.2209
X5.0972Y-2.1827
X5.1138Y-2.2024
X5.1154Y-1.7728
X5.1303Y-2.1823
X5.1311Y-2.2205
X5.1673Y-2.3146
X5.1677Y-2.4303
X5.1685Y-2.2764
X5.1689Y-2.3921
X5.1728Y-1.9657
X5.185Y-2.2961
X5.1854Y-2.4118
X5.1878Y-2.1142
X5.1882Y-2.0878
X5.1988Y-1.9681
X5.2016Y-2.276
X5.202Y-2.3917
X5.2024Y-2.3142
X5.2028Y-2.4299
X5.2039Y-1.8059
X5.2051Y-1.8433
X5.2075Y-1.8189
X5.2106Y-2.222
X5.2118Y-2.1839
X5.2138Y-2.0874
X5.2138Y-2.1142
X5.2283Y-2.2035
X5.2398Y-1.9173
X5.2449Y-2.1835
X5.2457Y-2.2217
X5.2734Y-1.9
X5.2734Y-1.9362
X5.2896Y-2.1161
X5.2909Y-1.7039
X5.301Y-1.976
X5.3015Y-2.0735
X5.3016Y-2.2783
X5.3034Y-2.097
X5.3063Y-2.1657
X5.3091Y-1.6211
X5.3285Y-1.6066
X5.335Y-2.2783
X5.3352Y-2.1819
X5.3472Y-1.6406
X5.349Y-2.2088
X5.3664Y-2.2277
X5.3701Y-2.4839
X5.3705Y-2.5236
X5.3707Y-1.7685
X5.3707Y-1.8067
X5.3707Y-1.8469
X5.3707Y-1.9135
X5.3709Y-2.4394
X5.3752Y-2.3598
X5.3764Y-1.6917
X5.3776Y-2.3177
X5.3807Y-2.1008
X5.3823Y-2.0453
X5.3835Y-1.9835
X5.3943Y-1.9134
X5.4024Y-1.6689
X5.4083Y-2.4833
X5.4087Y-2.523
X5.4091Y-2.4388
X5.4147Y-2.2232
X5.417Y-2.2467
X5.4189Y-2.3323
X5.4283Y-2.1964
X5.4307Y-1.9854
X5.432Y-2.0488
X5.4343Y-2.0984
X5.4354Y-2.2189
X5.4465Y-2.4823
X5.4469Y-2.522
X5.4472Y-2.4378
X5.4598Y-2.3319
X5.4689Y-2.2169
X5.4703Y-2.1783
X5.4768Y-1.6902
X5.4774Y-1.7283
X5.4783Y-1.7665
X5.4795Y-1.8008
X5.4807Y-2.4811
X5.4811Y-2.5209
X5.4815Y-2.4366
X5.4874Y-1.9858
X5.4878Y-2.048
X5.4882Y-2.0909
X5.5158Y-2.1433
X5.5213Y-1.6909
X5.5219Y-1.7291
X5.522Y-2.2831
X5.5228Y-1.7673
X5.5232Y-2.2185
X5.524Y-1.8016
X5.5272Y-2.1748
X5.5291Y-2.0913
X5.5409Y-2.1386
X5.5514Y-2.0523
X5.5516Y-2.1508
X5.5535Y-2.2783
X5.5622Y-2.072
X5.5626Y-2.0878
X5.5626Y-2.1035
X5.5626Y-2.1622
X5.5626Y-2.178
X5.5626Y-2.1937
X5.563Y-2.1197
X5.5772Y-2.2051
X5.5866Y-2.0295
X5.5907Y-2.2165
X5.5986Y-2.2366
X5.6005Y-1.6205
X5.6005Y-1.6362
X5.6005Y-1.652
X5.6005Y-1.6677
X5.6005Y-1.6835
X5.6005Y-1.6992
X5.6005Y-1.715
X5.6005Y-1.7307
X5.6005Y-1.7465
X5.6005Y-1.7622
X5.6005Y-1.778
X5.6005Y-1.7937
X5.6005Y-1.8094
X5.6005Y-1.8252
X5.6005Y-1.8409
X5.6005Y-1.8567
X5.6005Y-1.8724
X5.6005Y-1.8882
X5.6005Y-1.9039
X5.6005Y-1.9197
X5.6005Y-1.9354
X5.6005Y-1.9512
X5.6005Y-1.9669
X5.6005Y-1.9827
X5.6005Y-1.9984
X5.6005Y-2.0142
X5.6005Y-2.0299
X5.6005Y-2.0457
X5.6143Y-2.1402
X5.6143Y-2.1559
X5.6143Y-2.1717
X5.6143Y-2.1874
X5.6143Y-2.2031
X5.6143Y-2.2189
X5.6143Y-2.2346
X5.6147Y-1.6134
X5.6147Y-1.6291
X5.6147Y-1.6449
X5.6147Y-1.6606
X5.6147Y-1.6764
X5.6147Y-1.6921
X5.6147Y-1.7079
X5.6147Y-1.7236
X5.6147Y-1.7394
X5.6147Y-1.7551
X5.6147Y-1.7709
X5.6147Y-1.7866
X5.6147Y-1.8024
X5.6147Y-1.8181
X5.6147Y-1.8339
X5.6147Y-1.8496
X5.6147Y-1.8654
X5.6147Y-1.8811
X5.6147Y-1.8969
X5.6147Y-1.9126
X5.6147Y-1.9283
X5.6147Y-1.9441
X5.6147Y-1.9598
X5.6147Y-1.9756
X5.6147Y-1.9913
X5.6147Y-2.0071
X5.6147Y-2.0228
X5.6147Y-2.0386
X5.6147Y-2.0543
X5.6147Y-2.0701
X5.6147Y-2.0858
X5.6147Y-2.1016
X5.619Y-2.2508
X5.6224Y-1.6008
X5.6301Y-1.6173
X5.6348Y-2.2508
X5.6375Y-1.6035
X5.6427Y-2.265
X5.6458Y-1.6173
X5.6505Y-2.2508
X5.6531Y-1.6035
X5.6584Y-2.265
X5.6616Y-1.6173
X5.6663Y-2.2508
X5.6742Y-2.265
X5.6776Y-1.6181
X5.682Y-2.2508
X5.6899Y-2.265
X5.6978Y-2.2508
X5.7057Y-2.265
X5.7135Y-2.2508
X5.7214Y-2.265
X5.7293Y-2.2508
X5.7371Y-2.2646
X5.745Y-2.2504
X5.7529Y-2.2646
X5.7608Y-2.2504
X5.7686Y-2.2646
X5.7717Y-1.6181
X5.7765Y-2.2504
X5.7844Y-2.2646
X5.7875Y-1.6185
X5.7923Y-2.2504
X5.7949Y-1.6047
X5.8001Y-2.2646
X5.8033Y-1.6185
X5.808Y-2.2504
X5.8108Y-1.6047
X5.8159Y-2.2646
X5.819Y-1.6185
X5.8238Y-2.2504
X5.8265Y-1.6047
X5.8316Y-2.2646
X5.8348Y-1.6185
X5.8395Y-2.2504
X5.8423Y-1.6047
X5.8474Y-2.2646
X5.8505Y-1.6185
X5.8553Y-2.2504
T2
X5.6401Y-2.1961
T4
X3.5776Y-2.2959
X3.5776Y-2.473
X4.0047Y-2.2959
X4.0047Y-2.473
T5
X3.9764Y-1.713
T6
X3.3709Y-1.7
X3.3709Y-1.8
X3.3709Y-1.9
X3.3709Y-2.0
X3.3709Y-2.1
X3.3709Y-2.2
X3.4709Y-1.7
X3.4709Y-1.8
X3.4709Y-1.9
X3.4709Y-2.0
X3.4709Y-2.1
X3.4709Y-2.2
X3.6307Y-1.4417
X3.6307Y-1.5417
X3.7307Y-1.4417
X3.7307Y-1.5417
X3.8307Y-1.4417
X3.8307Y-1.5417
X3.9307Y-1.4417
X3.9307Y-1.5417
X4.0307Y-1.4417
X4.0307Y-1.5417
X4.1307Y-1.4417
X4.1307Y-1.5417
X4.2307Y-1.4417
X4.2307Y-1.5417
X4.3307Y-1.4417
X4.3307Y-1.5417
X4.4307Y-1.4417
X4.4307Y-1.5417
X4.5307Y-1.4417
X4.5307Y-1.5417
X4.6307Y-1.4417
X4.6307Y-1.5417
X4.7307Y-1.4417
X4.7307Y-1.5417
X4.8307Y-1.4417
X4.8307Y-1.5417
X4.9307Y-1.4417
X4.9307Y-1.5417
X5.0307Y-1.4417
X5.0307Y-1.5417
X5.1307Y-1.4417
X5.1307Y-1.5417
X5.2307Y-1.4417
X5.2307Y-1.5417
X5.3307Y-1.4417
X5.3307Y-1.5417
X5.4307Y-1.4417
X5.4307Y-1.5417
X5.5307Y-1.4417
X5.5307Y-1.5417
T7
X3.4402Y-1.4969
X3.4441Y-2.4055
X5.7213Y-1.4957
X5.726Y-2.4016
T3
G00X4.7669Y-2.3203
M15
G01X4.7669Y-2.277
M16
G05
G00X4.7669Y-2.4785
M15
G01X4.7669Y-2.447
M16
G05
G00X5.1071Y-2.3203
M15
G01X5.1071Y-2.277
M16
G05
G00X5.1071Y-2.4785
M15
G01X5.1071Y-2.447
M16
G05
G00X5.2575Y-2.3228
M15
G01X5.2575Y-2.2795
M16
G05
G00X5.2575Y-2.4811
M15
G01X5.2575Y-2.4496
M16
G05
G00X5.5976Y-2.3228
M15
G01X5.5976Y-2.2795
M16
G05
G00X5.5976Y-2.4811
M15
G01X5.5976Y-2.4496
M16
G05
M30
