%TF.GenerationSoftware,KiCad,Pcbnew,8.0.6*%
%TF.CreationDate,2024-11-19T20:15:16-08:00*%
%TF.ProjectId,SYNC-VT,53594e43-2d56-4542-9e6b-696361645f70,rev?*%
%TF.SameCoordinates,Original*%
%TF.FileFunction,Paste,Bot*%
%TF.FilePolarity,Positive*%
%FSLAX46Y46*%
G04 Gerber Fmt 4.6, Leading zero omitted, Abs format (unit mm)*
G04 Created by KiCad (PCBNEW 8.0.6) date 2024-11-19 20:15:16*
%MOMM*%
%LPD*%
G01*
G04 APERTURE LIST*
G04 Aperture macros list*
%AMRoundRect*
0 Rectangle with rounded corners*
0 $1 Rounding radius*
0 $2 $3 $4 $5 $6 $7 $8 $9 X,Y pos of 4 corners*
0 Add a 4 corners polygon primitive as box body*
4,1,4,$2,$3,$4,$5,$6,$7,$8,$9,$2,$3,0*
0 Add four circle primitives for the rounded corners*
1,1,$1+$1,$2,$3*
1,1,$1+$1,$4,$5*
1,1,$1+$1,$6,$7*
1,1,$1+$1,$8,$9*
0 Add four rect primitives between the rounded corners*
20,1,$1+$1,$2,$3,$4,$5,0*
20,1,$1+$1,$4,$5,$6,$7,0*
20,1,$1+$1,$6,$7,$8,$9,0*
20,1,$1+$1,$8,$9,$2,$3,0*%
G04 Aperture macros list end*
%ADD10RoundRect,0.079500X0.079500X0.100500X-0.079500X0.100500X-0.079500X-0.100500X0.079500X-0.100500X0*%
%ADD11RoundRect,0.140000X0.140000X0.170000X-0.140000X0.170000X-0.140000X-0.170000X0.140000X-0.170000X0*%
%ADD12RoundRect,0.160000X0.160000X-0.197500X0.160000X0.197500X-0.160000X0.197500X-0.160000X-0.197500X0*%
%ADD13RoundRect,0.079500X-0.100500X0.079500X-0.100500X-0.079500X0.100500X-0.079500X0.100500X0.079500X0*%
%ADD14RoundRect,0.250000X-0.475000X0.250000X-0.475000X-0.250000X0.475000X-0.250000X0.475000X0.250000X0*%
%ADD15RoundRect,0.079500X-0.079500X-0.100500X0.079500X-0.100500X0.079500X0.100500X-0.079500X0.100500X0*%
%ADD16RoundRect,0.079500X0.100500X-0.079500X0.100500X0.079500X-0.100500X0.079500X-0.100500X-0.079500X0*%
%ADD17RoundRect,0.160000X-0.197500X-0.160000X0.197500X-0.160000X0.197500X0.160000X-0.197500X0.160000X0*%
%ADD18RoundRect,0.140000X-0.140000X-0.170000X0.140000X-0.170000X0.140000X0.170000X-0.140000X0.170000X0*%
%ADD19RoundRect,0.250000X-0.450000X0.400000X-0.450000X-0.400000X0.450000X-0.400000X0.450000X0.400000X0*%
%ADD20RoundRect,0.150000X-0.150000X0.650000X-0.150000X-0.650000X0.150000X-0.650000X0.150000X0.650000X0*%
%ADD21RoundRect,0.147500X0.147500X0.172500X-0.147500X0.172500X-0.147500X-0.172500X0.147500X-0.172500X0*%
%ADD22R,0.600000X0.250000*%
%ADD23R,0.900000X0.250000*%
%ADD24R,0.250000X0.450000*%
%ADD25R,0.900000X1.100000*%
%ADD26RoundRect,0.150000X-0.587500X-0.150000X0.587500X-0.150000X0.587500X0.150000X-0.587500X0.150000X0*%
%ADD27RoundRect,0.150000X0.587500X0.150000X-0.587500X0.150000X-0.587500X-0.150000X0.587500X-0.150000X0*%
%ADD28RoundRect,0.250000X0.475000X-0.250000X0.475000X0.250000X-0.475000X0.250000X-0.475000X-0.250000X0*%
%ADD29RoundRect,0.140000X-0.170000X0.140000X-0.170000X-0.140000X0.170000X-0.140000X0.170000X0.140000X0*%
%ADD30RoundRect,0.140000X0.170000X-0.140000X0.170000X0.140000X-0.170000X0.140000X-0.170000X-0.140000X0*%
%ADD31RoundRect,0.147500X0.172500X-0.147500X0.172500X0.147500X-0.172500X0.147500X-0.172500X-0.147500X0*%
%ADD32RoundRect,0.150000X0.150000X-0.512500X0.150000X0.512500X-0.150000X0.512500X-0.150000X-0.512500X0*%
%ADD33RoundRect,0.250000X0.400000X0.450000X-0.400000X0.450000X-0.400000X-0.450000X0.400000X-0.450000X0*%
%ADD34R,0.900000X0.800000*%
G04 APERTURE END LIST*
D10*
%TO.C,C11*%
X127680002Y-49770000D03*
X126990002Y-49770000D03*
%TD*%
D11*
%TO.C,R31*%
X95030000Y-51217500D03*
X94070000Y-51217500D03*
%TD*%
%TO.C,R26*%
X122410002Y-51420000D03*
X121450002Y-51420000D03*
%TD*%
D12*
%TO.C,R33*%
X89360000Y-58127500D03*
X89360000Y-56932500D03*
%TD*%
D13*
%TO.C,R11*%
X107830000Y-45205000D03*
X107830000Y-45895000D03*
%TD*%
D14*
%TO.C,C9*%
X124210002Y-43289998D03*
X124210002Y-45189998D03*
%TD*%
D11*
%TO.C,R6*%
X127810001Y-55285001D03*
X126850001Y-55285001D03*
%TD*%
D13*
%TO.C,C32*%
X96940000Y-42360000D03*
X96940000Y-43050000D03*
%TD*%
%TO.C,FB1*%
X108050000Y-46825000D03*
X108050000Y-47515000D03*
%TD*%
D15*
%TO.C,R12*%
X107725000Y-51080000D03*
X108415000Y-51080000D03*
%TD*%
D11*
%TO.C,R29*%
X93120000Y-51227500D03*
X92160000Y-51227500D03*
%TD*%
D15*
%TO.C,R14*%
X107445000Y-44380000D03*
X108135000Y-44380000D03*
%TD*%
D16*
%TO.C,C7*%
X127850000Y-60605000D03*
X127850000Y-59915000D03*
%TD*%
D17*
%TO.C,R34*%
X89850000Y-55790000D03*
X91045000Y-55790000D03*
%TD*%
D11*
%TO.C,R18*%
X110620000Y-45670000D03*
X109660000Y-45670000D03*
%TD*%
D18*
%TO.C,R23*%
X116500002Y-54200000D03*
X117460002Y-54200000D03*
%TD*%
D15*
%TO.C,C25*%
X113865000Y-44800000D03*
X114555000Y-44800000D03*
%TD*%
D19*
%TO.C,SS2FH10HM3/H2*%
X131700000Y-58320000D03*
X131700000Y-61220000D03*
%TD*%
D16*
%TO.C,R13*%
X109000000Y-53420000D03*
X109000000Y-52730000D03*
%TD*%
D11*
%TO.C,R19*%
X112290000Y-44730000D03*
X111330000Y-44730000D03*
%TD*%
%TO.C,C4*%
X139620000Y-53850000D03*
X138660000Y-53850000D03*
%TD*%
D18*
%TO.C,C1*%
X121460002Y-50340000D03*
X122420002Y-50340000D03*
%TD*%
D20*
%TO.C,U5*%
X102585000Y-46370000D03*
X103855000Y-46370000D03*
X105125000Y-46370000D03*
X106395000Y-46370000D03*
X106395000Y-53570000D03*
X105125000Y-53570000D03*
X103855000Y-53570000D03*
X102585000Y-53570000D03*
%TD*%
D11*
%TO.C,R32*%
X95050000Y-55717500D03*
X94090000Y-55717500D03*
%TD*%
D10*
%TO.C,C5*%
X127665002Y-43300000D03*
X126975002Y-43300000D03*
%TD*%
D21*
%TO.C,D2*%
X113835000Y-47240000D03*
X112865000Y-47240000D03*
%TD*%
D16*
%TO.C,R17*%
X108980000Y-44575000D03*
X108980000Y-43885000D03*
%TD*%
D11*
%TO.C,R27*%
X122410002Y-46990000D03*
X121450002Y-46990000D03*
%TD*%
%TO.C,R25*%
X122460002Y-52530000D03*
X121500002Y-52530000D03*
%TD*%
D14*
%TO.C,C19*%
X119770002Y-47220000D03*
X119770002Y-49120000D03*
%TD*%
D15*
%TO.C,R1*%
X126945002Y-44180000D03*
X127635002Y-44180000D03*
%TD*%
D14*
%TO.C,C12*%
X124240000Y-49800000D03*
X124240000Y-51700000D03*
%TD*%
D13*
%TO.C,C16*%
X106590000Y-55060000D03*
X106590000Y-55750000D03*
%TD*%
D22*
%TO.C,U2*%
X126200000Y-53310000D03*
D23*
X126350000Y-52810000D03*
D24*
X126050000Y-52135001D03*
X126550002Y-52135001D03*
X127050001Y-52135001D03*
X127550000Y-52135001D03*
X128050002Y-52135001D03*
D23*
X127750002Y-52810000D03*
X127750002Y-53310000D03*
D24*
X128050002Y-53984999D03*
X127550000Y-53984999D03*
X127050001Y-53984999D03*
X126550002Y-53984999D03*
X126050000Y-53984999D03*
%TD*%
D25*
%TO.C,X1*%
X117660002Y-47260000D03*
X117660002Y-48960000D03*
X116360002Y-48960000D03*
X116360002Y-47260000D03*
%TD*%
D11*
%TO.C,R24*%
X122460002Y-53630000D03*
X121500002Y-53630000D03*
%TD*%
D26*
%TO.C,Q1*%
X90682500Y-54420000D03*
X90682500Y-52520000D03*
X92557500Y-53470000D03*
%TD*%
D10*
%TO.C,C29*%
X98420000Y-45350000D03*
X97730000Y-45350000D03*
%TD*%
D13*
%TO.C,C26*%
X102360018Y-55135018D03*
X102360018Y-55825018D03*
%TD*%
D15*
%TO.C,C17*%
X108235000Y-51880000D03*
X108925000Y-51880000D03*
%TD*%
D10*
%TO.C,R15*%
X112115000Y-43460000D03*
X111425000Y-43460000D03*
%TD*%
D27*
%TO.C,Q2*%
X96515000Y-52527500D03*
X96515000Y-54427500D03*
X94640000Y-53477500D03*
%TD*%
D28*
%TO.C,C13*%
X119770002Y-52800000D03*
X119770002Y-50900000D03*
%TD*%
D29*
%TO.C,C6*%
X137680000Y-54650000D03*
X137680000Y-55610000D03*
%TD*%
D10*
%TO.C,R22*%
X113735000Y-46260000D03*
X113045000Y-46260000D03*
%TD*%
D15*
%TO.C,R20*%
X109925000Y-46510000D03*
X110615000Y-46510000D03*
%TD*%
%TO.C,C18*%
X109095000Y-47870000D03*
X109785000Y-47870000D03*
%TD*%
D10*
%TO.C,C24*%
X109885000Y-51050000D03*
X109195000Y-51050000D03*
%TD*%
D30*
%TO.C,C8*%
X124740002Y-54130000D03*
X124740002Y-53170000D03*
%TD*%
D13*
%TO.C,FB2*%
X109010000Y-49495000D03*
X109010000Y-50185000D03*
%TD*%
D10*
%TO.C,C30*%
X98430000Y-46230000D03*
X97740000Y-46230000D03*
%TD*%
%TO.C,C22*%
X111335000Y-50250000D03*
X110645000Y-50250000D03*
%TD*%
D11*
%TO.C,R39*%
X134670000Y-50210000D03*
X133710000Y-50210000D03*
%TD*%
%TO.C,R4*%
X127560002Y-48650000D03*
X126600002Y-48650000D03*
%TD*%
D10*
%TO.C,C31*%
X98410000Y-47150000D03*
X97720000Y-47150000D03*
%TD*%
D11*
%TO.C,R28*%
X122400002Y-45900000D03*
X121440002Y-45900000D03*
%TD*%
D30*
%TO.C,R2*%
X125990002Y-44170000D03*
X125990002Y-43210000D03*
%TD*%
D18*
%TO.C,R38*%
X126010000Y-56480000D03*
X126970000Y-56480000D03*
%TD*%
D15*
%TO.C,C15*%
X110650000Y-49440000D03*
X111340000Y-49440000D03*
%TD*%
D10*
%TO.C,FB3*%
X117980002Y-45910000D03*
X117290002Y-45910000D03*
%TD*%
D16*
%TO.C,C28*%
X128800000Y-60565000D03*
X128800000Y-59875000D03*
%TD*%
D15*
%TO.C,R3*%
X126990001Y-50795001D03*
X127680001Y-50795001D03*
%TD*%
D11*
%TO.C,R30*%
X93110000Y-55707500D03*
X92150000Y-55707500D03*
%TD*%
D10*
%TO.C,C20*%
X111355000Y-47240000D03*
X110665000Y-47240000D03*
%TD*%
D29*
%TO.C,R37*%
X124250000Y-55650000D03*
X124250000Y-56610000D03*
%TD*%
D15*
%TO.C,R21*%
X115775000Y-50320000D03*
X116465000Y-50320000D03*
%TD*%
D31*
%TO.C,D1*%
X113800000Y-53610000D03*
X113800000Y-52640000D03*
%TD*%
D27*
%TO.C,U9*%
X126337500Y-59365000D03*
X126337500Y-61265000D03*
X124462500Y-60315000D03*
%TD*%
D15*
%TO.C,C14*%
X110715000Y-51060000D03*
X111405000Y-51060000D03*
%TD*%
D13*
%TO.C,C23*%
X108220000Y-48705000D03*
X108220000Y-49395000D03*
%TD*%
D15*
%TO.C,C27*%
X117385002Y-50300000D03*
X118075002Y-50300000D03*
%TD*%
D18*
%TO.C,R36*%
X137650000Y-59240000D03*
X138610000Y-59240000D03*
%TD*%
D16*
%TO.C,R16*%
X109810000Y-44580000D03*
X109810000Y-43890000D03*
%TD*%
D30*
%TO.C,C10*%
X124560002Y-47460000D03*
X124560002Y-46500000D03*
%TD*%
D15*
%TO.C,C21*%
X111425000Y-51860000D03*
X112115000Y-51860000D03*
%TD*%
D22*
%TO.C,U1*%
X126060002Y-46564999D03*
D23*
X126210002Y-46064999D03*
D24*
X125910002Y-45390000D03*
X126410004Y-45390000D03*
X126910003Y-45390000D03*
X127410002Y-45390000D03*
X127910004Y-45390000D03*
D23*
X127610004Y-46064999D03*
X127610004Y-46564999D03*
D24*
X127910004Y-47239998D03*
X127410002Y-47239998D03*
X126910003Y-47239998D03*
X126410004Y-47239998D03*
X125910002Y-47239998D03*
%TD*%
D32*
%TO.C,U10*%
X134042500Y-48687500D03*
X133092500Y-48687500D03*
X132142500Y-48687500D03*
X132142500Y-46412500D03*
X134042500Y-46412500D03*
%TD*%
D30*
%TO.C,R35*%
X136530000Y-59900000D03*
X136530000Y-58940000D03*
%TD*%
%TO.C,R5*%
X125940002Y-50800000D03*
X125940002Y-49840000D03*
%TD*%
D33*
%TO.C,SS2FH10HM3/H1*%
X132790000Y-55940000D03*
X129890000Y-55940000D03*
%TD*%
D34*
%TO.C,Y1*%
X140310000Y-56340000D03*
X138910000Y-56340000D03*
X138910000Y-55240000D03*
X140310000Y-55240000D03*
%TD*%
M02*
