%TF.GenerationSoftware,KiCad,Pcbnew,8.0.6*%
%TF.CreationDate,2024-11-16T22:08:26-08:00*%
%TF.ProjectId,SYNC-VT,53594e43-2d56-4542-9e6b-696361645f70,rev?*%
%TF.SameCoordinates,Original*%
%TF.FileFunction,Soldermask,Bot*%
%TF.FilePolarity,Negative*%
%FSLAX46Y46*%
G04 Gerber Fmt 4.6, Leading zero omitted, Abs format (unit mm)*
G04 Created by KiCad (PCBNEW 8.0.6) date 2024-11-16 22:08:26*
%MOMM*%
%LPD*%
G01*
G04 APERTURE LIST*
G04 Aperture macros list*
%AMRoundRect*
0 Rectangle with rounded corners*
0 $1 Rounding radius*
0 $2 $3 $4 $5 $6 $7 $8 $9 X,Y pos of 4 corners*
0 Add a 4 corners polygon primitive as box body*
4,1,4,$2,$3,$4,$5,$6,$7,$8,$9,$2,$3,0*
0 Add four circle primitives for the rounded corners*
1,1,$1+$1,$2,$3*
1,1,$1+$1,$4,$5*
1,1,$1+$1,$6,$7*
1,1,$1+$1,$8,$9*
0 Add four rect primitives between the rounded corners*
20,1,$1+$1,$2,$3,$4,$5,0*
20,1,$1+$1,$4,$5,$6,$7,0*
20,1,$1+$1,$6,$7,$8,$9,0*
20,1,$1+$1,$8,$9,$2,$3,0*%
G04 Aperture macros list end*
%ADD10C,5.700000*%
%ADD11C,1.000000*%
%ADD12O,1.454000X2.704000*%
%ADD13RoundRect,0.150000X0.150000X-0.512500X0.150000X0.512500X-0.150000X0.512500X-0.150000X-0.512500X0*%
%ADD14R,1.000000X1.000000*%
%ADD15RoundRect,0.250000X-0.450000X0.400000X-0.450000X-0.400000X0.450000X-0.400000X0.450000X0.400000X0*%
%ADD16RoundRect,0.250000X0.400000X0.450000X-0.400000X0.450000X-0.400000X-0.450000X0.400000X-0.450000X0*%
%ADD17RoundRect,0.140000X0.140000X0.170000X-0.140000X0.170000X-0.140000X-0.170000X0.140000X-0.170000X0*%
%ADD18RoundRect,0.140000X-0.140000X-0.170000X0.140000X-0.170000X0.140000X0.170000X-0.140000X0.170000X0*%
%ADD19RoundRect,0.140000X-0.170000X0.140000X-0.170000X-0.140000X0.170000X-0.140000X0.170000X0.140000X0*%
%ADD20C,0.600000*%
%ADD21O,0.900000X2.000000*%
%ADD22O,0.900000X1.700000*%
%ADD23RoundRect,0.100000X0.100000X-0.130000X0.100000X0.130000X-0.100000X0.130000X-0.100000X-0.130000X0*%
%ADD24RoundRect,0.150000X0.587500X0.150000X-0.587500X0.150000X-0.587500X-0.150000X0.587500X-0.150000X0*%
%ADD25RoundRect,0.140000X0.170000X-0.140000X0.170000X0.140000X-0.170000X0.140000X-0.170000X-0.140000X0*%
%ADD26RoundRect,0.100000X-0.100000X0.130000X-0.100000X-0.130000X0.100000X-0.130000X0.100000X0.130000X0*%
%ADD27RoundRect,0.100000X-0.130000X-0.100000X0.130000X-0.100000X0.130000X0.100000X-0.130000X0.100000X0*%
%ADD28RoundRect,0.147500X0.172500X-0.147500X0.172500X0.147500X-0.172500X0.147500X-0.172500X-0.147500X0*%
%ADD29R,0.600000X0.250000*%
%ADD30R,0.900000X0.250000*%
%ADD31R,0.250000X0.450000*%
%ADD32RoundRect,0.250000X-0.475000X0.250000X-0.475000X-0.250000X0.475000X-0.250000X0.475000X0.250000X0*%
%ADD33RoundRect,0.100000X0.130000X0.100000X-0.130000X0.100000X-0.130000X-0.100000X0.130000X-0.100000X0*%
%ADD34R,0.900000X1.100000*%
%ADD35RoundRect,0.250000X0.475000X-0.250000X0.475000X0.250000X-0.475000X0.250000X-0.475000X-0.250000X0*%
%ADD36RoundRect,0.147500X0.147500X0.172500X-0.147500X0.172500X-0.147500X-0.172500X0.147500X-0.172500X0*%
%ADD37RoundRect,0.160000X-0.197500X-0.160000X0.197500X-0.160000X0.197500X0.160000X-0.197500X0.160000X0*%
%ADD38RoundRect,0.150000X-0.587500X-0.150000X0.587500X-0.150000X0.587500X0.150000X-0.587500X0.150000X0*%
%ADD39R,0.900000X0.800000*%
%ADD40R,1.700000X1.700000*%
%ADD41O,1.700000X1.700000*%
%ADD42RoundRect,0.150000X-0.150000X0.650000X-0.150000X-0.650000X0.150000X-0.650000X0.150000X0.650000X0*%
%ADD43RoundRect,0.160000X0.160000X-0.197500X0.160000X0.197500X-0.160000X0.197500X-0.160000X-0.197500X0*%
G04 APERTURE END LIST*
D10*
%TO.C,MT4*%
X87380000Y-38020000D03*
%TD*%
%TO.C,MT3*%
X145320000Y-37990000D03*
%TD*%
%TO.C,MT2*%
X87480000Y-61100000D03*
%TD*%
%TO.C,MT1*%
X145440000Y-61000000D03*
%TD*%
D11*
%TO.C,Jr1*%
X92550000Y-59115000D03*
X100050000Y-59115000D03*
D12*
X90870000Y-58315000D03*
X101720000Y-58315000D03*
X90870000Y-62815000D03*
X101720000Y-62815000D03*
%TD*%
D13*
%TO.C,U10*%
X134042500Y-48687500D03*
X133092500Y-48687500D03*
X132142500Y-48687500D03*
X132142500Y-46412500D03*
X134042500Y-46412500D03*
%TD*%
D14*
%TO.C,TP7*%
X132100000Y-53370000D03*
%TD*%
%TO.C,TP6*%
X132110000Y-51280000D03*
%TD*%
D15*
%TO.C,SS2FH10HM3/H2*%
X131700000Y-58320000D03*
X131700000Y-61220000D03*
%TD*%
D16*
%TO.C,SS2FH10HM3/H1*%
X129890000Y-55940000D03*
X132790000Y-55940000D03*
%TD*%
D17*
%TO.C,R39*%
X134670000Y-50210000D03*
X133710000Y-50210000D03*
%TD*%
D18*
%TO.C,R38*%
X126010000Y-56480000D03*
X126970000Y-56480000D03*
%TD*%
D19*
%TO.C,R37*%
X124250000Y-55650000D03*
X124250000Y-56610000D03*
%TD*%
D20*
%TO.C,J3*%
X122510000Y-58865000D03*
X128290000Y-58865000D03*
D21*
X121080000Y-58385000D03*
D22*
X121080000Y-62555000D03*
D21*
X129720000Y-58385000D03*
D22*
X129720000Y-62555000D03*
%TD*%
D23*
%TO.C,C28*%
X128800000Y-60540000D03*
X128800000Y-59900000D03*
%TD*%
D17*
%TO.C,C4*%
X139620000Y-53850000D03*
X138660000Y-53850000D03*
%TD*%
D24*
%TO.C,U9*%
X126337500Y-59365000D03*
X126337500Y-61265000D03*
X124462500Y-60315000D03*
%TD*%
D17*
%TO.C,R32*%
X94090000Y-55717500D03*
X95050000Y-55717500D03*
%TD*%
D20*
%TO.C,J2*%
X134970000Y-58930000D03*
X140750000Y-58930000D03*
D21*
X133540000Y-58450000D03*
D22*
X133540000Y-62620000D03*
D21*
X142180000Y-58450000D03*
D22*
X142180000Y-62620000D03*
%TD*%
D25*
%TO.C,R35*%
X136530000Y-59900000D03*
X136530000Y-58940000D03*
%TD*%
D26*
%TO.C,C23*%
X108220000Y-49370000D03*
X108220000Y-48730000D03*
%TD*%
D25*
%TO.C,R2*%
X125990002Y-44170000D03*
X125990002Y-43210000D03*
%TD*%
D27*
%TO.C,C27*%
X118050002Y-50300000D03*
X117410002Y-50300000D03*
%TD*%
D17*
%TO.C,R28*%
X122400002Y-45900000D03*
X121440002Y-45900000D03*
%TD*%
D25*
%TO.C,R5*%
X125940002Y-50800000D03*
X125940002Y-49840000D03*
%TD*%
D27*
%TO.C,C14*%
X111380000Y-51060000D03*
X110740000Y-51060000D03*
%TD*%
%TO.C,C15*%
X111315000Y-49440000D03*
X110675000Y-49440000D03*
%TD*%
D28*
%TO.C,D1*%
X113800000Y-53610000D03*
X113800000Y-52640000D03*
%TD*%
D29*
%TO.C,U2*%
X126200000Y-53310000D03*
D30*
X126350000Y-52810000D03*
D31*
X126050000Y-52135001D03*
X126550002Y-52135001D03*
X127050001Y-52135001D03*
X127550000Y-52135001D03*
X128050002Y-52135001D03*
D30*
X127750002Y-52810000D03*
X127750002Y-53310000D03*
D31*
X128050002Y-53984999D03*
X127550000Y-53984999D03*
X127050001Y-53984999D03*
X126550002Y-53984999D03*
X126050000Y-53984999D03*
%TD*%
D32*
%TO.C,C12*%
X124240000Y-49800000D03*
X124240000Y-51700000D03*
%TD*%
D33*
%TO.C,C22*%
X110670000Y-50250000D03*
X111310000Y-50250000D03*
%TD*%
D17*
%TO.C,R4*%
X127560002Y-48650000D03*
X126600002Y-48650000D03*
%TD*%
D14*
%TO.C,TP1*%
X129990018Y-53370018D03*
%TD*%
D27*
%TO.C,C18*%
X109760000Y-47870000D03*
X109120000Y-47870000D03*
%TD*%
D34*
%TO.C,X1*%
X117660002Y-47260000D03*
X117660002Y-48960000D03*
X116360002Y-48960000D03*
X116360002Y-47260000D03*
%TD*%
D33*
%TO.C,R22*%
X113070000Y-46260000D03*
X113710000Y-46260000D03*
%TD*%
D26*
%TO.C,C16*%
X106590000Y-55725000D03*
X106590000Y-55085000D03*
%TD*%
D29*
%TO.C,U1*%
X126060002Y-46564999D03*
D30*
X126210002Y-46064999D03*
D31*
X125910002Y-45390000D03*
X126410004Y-45390000D03*
X126910003Y-45390000D03*
X127410002Y-45390000D03*
X127910004Y-45390000D03*
D30*
X127610004Y-46064999D03*
X127610004Y-46564999D03*
D31*
X127910004Y-47239998D03*
X127410002Y-47239998D03*
X126910003Y-47239998D03*
X126410004Y-47239998D03*
X125910002Y-47239998D03*
%TD*%
D25*
%TO.C,C8*%
X124740002Y-54130000D03*
X124740002Y-53170000D03*
%TD*%
D17*
%TO.C,R29*%
X93120000Y-51227500D03*
X92160000Y-51227500D03*
%TD*%
D27*
%TO.C,R3*%
X127655001Y-50795001D03*
X127015001Y-50795001D03*
%TD*%
%TO.C,R20*%
X110590000Y-46510000D03*
X109950000Y-46510000D03*
%TD*%
%TO.C,C21*%
X112090000Y-51860000D03*
X111450000Y-51860000D03*
%TD*%
D35*
%TO.C,C13*%
X119770002Y-52800000D03*
X119770002Y-50900000D03*
%TD*%
D26*
%TO.C,FB2*%
X109010000Y-50160000D03*
X109010000Y-49520000D03*
%TD*%
D23*
%TO.C,C7*%
X127850000Y-59940000D03*
X127850000Y-60580000D03*
%TD*%
D19*
%TO.C,C6*%
X137680000Y-54650000D03*
X137680000Y-55610000D03*
%TD*%
D33*
%TO.C,R15*%
X111450000Y-43460000D03*
X112090000Y-43460000D03*
%TD*%
D27*
%TO.C,C17*%
X108900000Y-51880000D03*
X108260000Y-51880000D03*
%TD*%
D32*
%TO.C,C19*%
X119770002Y-47220000D03*
X119770002Y-49120000D03*
%TD*%
D17*
%TO.C,R25*%
X122460002Y-52530000D03*
X121500002Y-52530000D03*
%TD*%
D33*
%TO.C,C20*%
X110690000Y-47240000D03*
X111330000Y-47240000D03*
%TD*%
D27*
%TO.C,R14*%
X108110000Y-44380000D03*
X107470000Y-44380000D03*
%TD*%
D26*
%TO.C,FB1*%
X108050000Y-47490000D03*
X108050000Y-46850000D03*
%TD*%
D23*
%TO.C,R17*%
X108980000Y-43910000D03*
X108980000Y-44550000D03*
%TD*%
D36*
%TO.C,D2*%
X113835000Y-47240000D03*
X112865000Y-47240000D03*
%TD*%
D33*
%TO.C,C5*%
X127000002Y-43300000D03*
X127640002Y-43300000D03*
%TD*%
D18*
%TO.C,C1*%
X121460002Y-50340000D03*
X122420002Y-50340000D03*
%TD*%
D17*
%TO.C,R19*%
X112290000Y-44730000D03*
X111330000Y-44730000D03*
%TD*%
D27*
%TO.C,C25*%
X114530000Y-44800000D03*
X113890000Y-44800000D03*
%TD*%
D23*
%TO.C,R13*%
X109000000Y-52755000D03*
X109000000Y-53395000D03*
%TD*%
D17*
%TO.C,R6*%
X127810001Y-55285001D03*
X126850001Y-55285001D03*
%TD*%
%TO.C,R31*%
X94070000Y-51217500D03*
X95030000Y-51217500D03*
%TD*%
D27*
%TO.C,R1*%
X127610002Y-44180000D03*
X126970002Y-44180000D03*
%TD*%
D17*
%TO.C,R18*%
X110620000Y-45670000D03*
X109660000Y-45670000D03*
%TD*%
D18*
%TO.C,R36*%
X137650000Y-59240000D03*
X138610000Y-59240000D03*
%TD*%
D37*
%TO.C,R34*%
X89850000Y-55790000D03*
X91045000Y-55790000D03*
%TD*%
D14*
%TO.C,TP4*%
X129990018Y-51280018D03*
%TD*%
%TO.C,TP5*%
X129990018Y-47090018D03*
%TD*%
D38*
%TO.C,Q1*%
X90682500Y-54420000D03*
X90682500Y-52520000D03*
X92557500Y-53470000D03*
%TD*%
D27*
%TO.C,R21*%
X116440000Y-50320000D03*
X115800000Y-50320000D03*
%TD*%
D23*
%TO.C,R16*%
X109810000Y-43915000D03*
X109810000Y-44555000D03*
%TD*%
D39*
%TO.C,Y1*%
X140310000Y-56340000D03*
X138910000Y-56340000D03*
X138910000Y-55240000D03*
X140310000Y-55240000D03*
%TD*%
D17*
%TO.C,R30*%
X92150000Y-55707500D03*
X93110000Y-55707500D03*
%TD*%
D40*
%TO.C,J1*%
X92220000Y-39160000D03*
D41*
X92220000Y-36620000D03*
X94760000Y-39160000D03*
X94760000Y-36620000D03*
X97300000Y-39160000D03*
X97300000Y-36620000D03*
X99840000Y-39160000D03*
X99840000Y-36620000D03*
X102380000Y-39160000D03*
X102380000Y-36620000D03*
X104920000Y-39160000D03*
X104920000Y-36620000D03*
X107460000Y-39160000D03*
X107460000Y-36620000D03*
X110000000Y-39160000D03*
X110000000Y-36620000D03*
X112540000Y-39160000D03*
X112540000Y-36620000D03*
X115080000Y-39160000D03*
X115080000Y-36620000D03*
X117620000Y-39160000D03*
X117620000Y-36620000D03*
X120160000Y-39160000D03*
X120160000Y-36620000D03*
X122700000Y-39160000D03*
X122700000Y-36620000D03*
X125240000Y-39160000D03*
X125240000Y-36620000D03*
X127780000Y-39160000D03*
X127780000Y-36620000D03*
X130320000Y-39160000D03*
X130320000Y-36620000D03*
X132860000Y-39160000D03*
X132860000Y-36620000D03*
X135400000Y-39160000D03*
X135400000Y-36620000D03*
X137940000Y-39160000D03*
X137940000Y-36620000D03*
X140480000Y-39160000D03*
X140480000Y-36620000D03*
%TD*%
D42*
%TO.C,U5*%
X102585000Y-46370000D03*
X103855000Y-46370000D03*
X105125000Y-46370000D03*
X106395000Y-46370000D03*
X106395000Y-53570000D03*
X105125000Y-53570000D03*
X103855000Y-53570000D03*
X102585000Y-53570000D03*
%TD*%
D32*
%TO.C,C9*%
X124210002Y-43289998D03*
X124210002Y-45189998D03*
%TD*%
D17*
%TO.C,R26*%
X122410002Y-51420000D03*
X121450002Y-51420000D03*
%TD*%
%TO.C,R27*%
X122410002Y-46990000D03*
X121450002Y-46990000D03*
%TD*%
D26*
%TO.C,R11*%
X107830000Y-45870000D03*
X107830000Y-45230000D03*
%TD*%
D14*
%TO.C,TP3*%
X129980018Y-44990018D03*
%TD*%
D17*
%TO.C,R24*%
X122460002Y-53630000D03*
X121500002Y-53630000D03*
%TD*%
D33*
%TO.C,FB3*%
X117315002Y-45910000D03*
X117955002Y-45910000D03*
%TD*%
D25*
%TO.C,C10*%
X124560002Y-47460000D03*
X124560002Y-46500000D03*
%TD*%
D27*
%TO.C,R12*%
X108390000Y-51080000D03*
X107750000Y-51080000D03*
%TD*%
D33*
%TO.C,C24*%
X109220000Y-51050000D03*
X109860000Y-51050000D03*
%TD*%
D18*
%TO.C,R23*%
X116500002Y-54200000D03*
X117460002Y-54200000D03*
%TD*%
D43*
%TO.C,R33*%
X89360000Y-58127500D03*
X89360000Y-56932500D03*
%TD*%
D24*
%TO.C,Q2*%
X94640000Y-53477500D03*
X96515000Y-54427500D03*
X96515000Y-52527500D03*
%TD*%
D14*
%TO.C,TP2*%
X129980018Y-49170018D03*
%TD*%
D33*
%TO.C,C11*%
X127015002Y-49770000D03*
X127655002Y-49770000D03*
%TD*%
D26*
%TO.C,C26*%
X102360018Y-55800018D03*
X102360018Y-55160018D03*
%TD*%
M02*
