%TF.GenerationSoftware,KiCad,Pcbnew,8.0.6*%
%TF.CreationDate,2024-11-21T12:08:54-08:00*%
%TF.ProjectId,SYNC-VT,53594e43-2d56-4542-9e6b-696361645f70,rev?*%
%TF.SameCoordinates,Original*%
%TF.FileFunction,Paste,Top*%
%TF.FilePolarity,Positive*%
%FSLAX46Y46*%
G04 Gerber Fmt 4.6, Leading zero omitted, Abs format (unit mm)*
G04 Created by KiCad (PCBNEW 8.0.6) date 2024-11-21 12:08:54*
%MOMM*%
%LPD*%
G01*
G04 APERTURE LIST*
G04 Aperture macros list*
%AMRoundRect*
0 Rectangle with rounded corners*
0 $1 Rounding radius*
0 $2 $3 $4 $5 $6 $7 $8 $9 X,Y pos of 4 corners*
0 Add a 4 corners polygon primitive as box body*
4,1,4,$2,$3,$4,$5,$6,$7,$8,$9,$2,$3,0*
0 Add four circle primitives for the rounded corners*
1,1,$1+$1,$2,$3*
1,1,$1+$1,$4,$5*
1,1,$1+$1,$6,$7*
1,1,$1+$1,$8,$9*
0 Add four rect primitives between the rounded corners*
20,1,$1+$1,$2,$3,$4,$5,0*
20,1,$1+$1,$4,$5,$6,$7,0*
20,1,$1+$1,$6,$7,$8,$9,0*
20,1,$1+$1,$8,$9,$2,$3,0*%
G04 Aperture macros list end*
%ADD10RoundRect,0.079500X0.079500X0.100500X-0.079500X0.100500X-0.079500X-0.100500X0.079500X-0.100500X0*%
%ADD11R,0.230000X1.200000*%
%ADD12RoundRect,0.140000X0.170000X-0.140000X0.170000X0.140000X-0.170000X0.140000X-0.170000X-0.140000X0*%
%ADD13C,0.406400*%
%ADD14C,0.370000*%
%ADD15RoundRect,0.140000X0.140000X0.170000X-0.140000X0.170000X-0.140000X-0.170000X0.140000X-0.170000X0*%
%ADD16RoundRect,0.079500X-0.100500X0.079500X-0.100500X-0.079500X0.100500X-0.079500X0.100500X0.079500X0*%
%ADD17RoundRect,0.250000X-0.275000X-0.275000X0.275000X-0.275000X0.275000X0.275000X-0.275000X0.275000X0*%
%ADD18RoundRect,0.062500X-0.475000X-0.062500X0.475000X-0.062500X0.475000X0.062500X-0.475000X0.062500X0*%
%ADD19RoundRect,0.062500X-0.062500X-0.475000X0.062500X-0.475000X0.062500X0.475000X-0.062500X0.475000X0*%
%ADD20RoundRect,0.079500X0.100500X-0.079500X0.100500X0.079500X-0.100500X0.079500X-0.100500X-0.079500X0*%
%ADD21R,1.244600X0.609600*%
%ADD22R,3.784600X1.193800*%
%ADD23R,1.400000X1.447800*%
%ADD24R,0.609600X0.990600*%
%ADD25R,0.838200X0.939800*%
%ADD26RoundRect,0.079500X-0.079500X-0.100500X0.079500X-0.100500X0.079500X0.100500X-0.079500X0.100500X0*%
%ADD27RoundRect,0.249999X0.450001X1.450001X-0.450001X1.450001X-0.450001X-1.450001X0.450001X-1.450001X0*%
%ADD28R,1.100000X2.250000*%
%ADD29R,1.050000X1.100000*%
%ADD30R,0.300000X0.800000*%
%ADD31RoundRect,0.242500X0.242500X0.242500X-0.242500X0.242500X-0.242500X-0.242500X0.242500X-0.242500X0*%
%ADD32RoundRect,0.062500X0.350000X0.062500X-0.350000X0.062500X-0.350000X-0.062500X0.350000X-0.062500X0*%
%ADD33RoundRect,0.062500X0.062500X0.350000X-0.062500X0.350000X-0.062500X-0.350000X0.062500X-0.350000X0*%
%ADD34R,0.600000X1.160000*%
%ADD35R,0.300000X1.160000*%
%ADD36R,0.508000X0.774700*%
G04 APERTURE END LIST*
D10*
%TO.C,R10*%
X124845002Y-47047300D03*
X124155002Y-47047300D03*
%TD*%
D11*
%TO.C,Jr1*%
X99900000Y-57165000D03*
X99500000Y-57165000D03*
X99100000Y-57165000D03*
X98700000Y-57165000D03*
X98300000Y-57165000D03*
X97900000Y-57165000D03*
X97500000Y-57165000D03*
X97100000Y-57165000D03*
X96700000Y-57165000D03*
X96300000Y-57165000D03*
X95900000Y-57165000D03*
X95500000Y-57165000D03*
X95100000Y-57165000D03*
X94700000Y-57165000D03*
X94300000Y-57165000D03*
X93900000Y-57165000D03*
X93500000Y-57165000D03*
X93100000Y-57165000D03*
X92700000Y-57165000D03*
%TD*%
D12*
%TO.C,R9*%
X125770002Y-46997300D03*
X125770002Y-46037300D03*
%TD*%
D10*
%TO.C,C33*%
X93265000Y-50790000D03*
X92575000Y-50790000D03*
%TD*%
D13*
%TO.C,U7*%
X105070018Y-61070018D03*
X105070018Y-60070018D03*
X105070018Y-59070018D03*
X105070018Y-58070018D03*
X106070018Y-62070018D03*
X106070018Y-61070018D03*
X106070018Y-60070018D03*
X106070018Y-59070018D03*
X106070018Y-58070018D03*
X107070018Y-62070018D03*
X107070018Y-61070018D03*
X107070018Y-60070018D03*
X107070018Y-59070018D03*
X107070018Y-58070018D03*
X108070018Y-62070018D03*
X108070018Y-61070018D03*
X108070018Y-60070018D03*
X108070018Y-59070018D03*
X108070018Y-58070018D03*
X109070018Y-62070018D03*
X109070018Y-61070018D03*
X109070018Y-60070018D03*
X109070018Y-59070018D03*
X109070018Y-58070018D03*
%TD*%
D14*
%TO.C,U3*%
X104210000Y-43870000D03*
X105010000Y-43870000D03*
X105810000Y-43870000D03*
X106610000Y-43870000D03*
X107410000Y-43870000D03*
X108210000Y-43870000D03*
X109010000Y-43870000D03*
X109810000Y-43870000D03*
X110610000Y-43870000D03*
X111410000Y-43870000D03*
X112210000Y-43870000D03*
X113010000Y-43870000D03*
X113810000Y-43870000D03*
X114610000Y-43870000D03*
X115410000Y-43870000D03*
X104210000Y-44670000D03*
X105010000Y-44670000D03*
X105810000Y-44670000D03*
X106610000Y-44670000D03*
X107410000Y-44670000D03*
X108210000Y-44670000D03*
X109010000Y-44670000D03*
X109810000Y-44670000D03*
X110610000Y-44670000D03*
X111410000Y-44670000D03*
X112210000Y-44670000D03*
X113010000Y-44670000D03*
X113810000Y-44670000D03*
X114610000Y-44670000D03*
X115410000Y-44670000D03*
X104210000Y-45470000D03*
X105010000Y-45470000D03*
X105810000Y-45470000D03*
X106610000Y-45470000D03*
X107410000Y-45470000D03*
X108210000Y-45470000D03*
X109010000Y-45470000D03*
X109810000Y-45470000D03*
X110610000Y-45470000D03*
X111410000Y-45470000D03*
X112210000Y-45470000D03*
X113010000Y-45470000D03*
X113810000Y-45470000D03*
X114610000Y-45470000D03*
X115410000Y-45470000D03*
X104210000Y-46270000D03*
X105010000Y-46270000D03*
X105810000Y-46270000D03*
X106610000Y-46270000D03*
X107410000Y-46270000D03*
X108210000Y-46270000D03*
X109010000Y-46270000D03*
X109810000Y-46270000D03*
X110610000Y-46270000D03*
X111410000Y-46270000D03*
X112210000Y-46270000D03*
X113010000Y-46270000D03*
X113810000Y-46270000D03*
X114610000Y-46270000D03*
X115410000Y-46270000D03*
X104210000Y-47070000D03*
X105010000Y-47070000D03*
X105810000Y-47070000D03*
X106610000Y-47070000D03*
X107410000Y-47070000D03*
X108210000Y-47070000D03*
X109010000Y-47070000D03*
X109810000Y-47070000D03*
X110610000Y-47070000D03*
X111410000Y-47070000D03*
X112210000Y-47070000D03*
X113010000Y-47070000D03*
X113810000Y-47070000D03*
X114610000Y-47070000D03*
X115410000Y-47070000D03*
X104210000Y-47870000D03*
X105010000Y-47870000D03*
X105810000Y-47870000D03*
X106610000Y-47870000D03*
X107410000Y-47870000D03*
X108210000Y-47870000D03*
X109010000Y-47870000D03*
X109810000Y-47870000D03*
X110610000Y-47870000D03*
X111410000Y-47870000D03*
X112210000Y-47870000D03*
X113010000Y-47870000D03*
X113810000Y-47870000D03*
X114610000Y-47870000D03*
X115410000Y-47870000D03*
X104210000Y-48670000D03*
X105010000Y-48670000D03*
X105810000Y-48670000D03*
X106610000Y-48670000D03*
X107410000Y-48670000D03*
X108210000Y-48670000D03*
X109010000Y-48670000D03*
X109810000Y-48670000D03*
X110610000Y-48670000D03*
X111410000Y-48670000D03*
X112210000Y-48670000D03*
X113010000Y-48670000D03*
X113810000Y-48670000D03*
X114610000Y-48670000D03*
X115410000Y-48670000D03*
X104210000Y-49470000D03*
X105010000Y-49470000D03*
X105810000Y-49470000D03*
X106610000Y-49470000D03*
X107410000Y-49470000D03*
X108210000Y-49470000D03*
X109010000Y-49470000D03*
X109810000Y-49470000D03*
X110610000Y-49470000D03*
X111410000Y-49470000D03*
X112210000Y-49470000D03*
X113010000Y-49470000D03*
X113810000Y-49470000D03*
X114610000Y-49470000D03*
X115410000Y-49470000D03*
X104210000Y-50270000D03*
X105010000Y-50270000D03*
X105810000Y-50270000D03*
X106610000Y-50270000D03*
X107410000Y-50270000D03*
X108210000Y-50270000D03*
X109010000Y-50270000D03*
X109810000Y-50270000D03*
X110610000Y-50270000D03*
X111410000Y-50270000D03*
X112210000Y-50270000D03*
X113010000Y-50270000D03*
X113810000Y-50270000D03*
X114610000Y-50270000D03*
X115410000Y-50270000D03*
X104210000Y-51070000D03*
X105010000Y-51070000D03*
X105810000Y-51070000D03*
X106610000Y-51070000D03*
X107410000Y-51070000D03*
X108210000Y-51070000D03*
X109010000Y-51070000D03*
X109810000Y-51070000D03*
X110610000Y-51070000D03*
X111410000Y-51070000D03*
X112210000Y-51070000D03*
X113010000Y-51070000D03*
X113810000Y-51070000D03*
X114610000Y-51070000D03*
X115410000Y-51070000D03*
X104210000Y-51870000D03*
X105010000Y-51870000D03*
X105810000Y-51870000D03*
X106610000Y-51870000D03*
X107410000Y-51870000D03*
X108210000Y-51870000D03*
X109010000Y-51870000D03*
X109810000Y-51870000D03*
X110610000Y-51870000D03*
X111410000Y-51870000D03*
X112210000Y-51870000D03*
X113010000Y-51870000D03*
X113810000Y-51870000D03*
X114610000Y-51870000D03*
X115410000Y-51870000D03*
X104210000Y-52670000D03*
X105010000Y-52670000D03*
X105810000Y-52670000D03*
X106610000Y-52670000D03*
X107410000Y-52670000D03*
X108210000Y-52670000D03*
X109010000Y-52670000D03*
X109810000Y-52670000D03*
X110610000Y-52670000D03*
X111410000Y-52670000D03*
X112210000Y-52670000D03*
X113010000Y-52670000D03*
X113810000Y-52670000D03*
X114610000Y-52670000D03*
X115410000Y-52670000D03*
X104210000Y-53470000D03*
X105010000Y-53470000D03*
X105810000Y-53470000D03*
X106610000Y-53470000D03*
X107410000Y-53470000D03*
X108210000Y-53470000D03*
X109010000Y-53470000D03*
X109810000Y-53470000D03*
X110610000Y-53470000D03*
X111410000Y-53470000D03*
X112210000Y-53470000D03*
X113010000Y-53470000D03*
X113810000Y-53470000D03*
X114610000Y-53470000D03*
X115410000Y-53470000D03*
X104210000Y-54270000D03*
X105010000Y-54270000D03*
X105810000Y-54270000D03*
X106610000Y-54270000D03*
X107410000Y-54270000D03*
X108210000Y-54270000D03*
X109010000Y-54270000D03*
X109810000Y-54270000D03*
X110610000Y-54270000D03*
X111410000Y-54270000D03*
X112210000Y-54270000D03*
X113010000Y-54270000D03*
X113810000Y-54270000D03*
X114610000Y-54270000D03*
X115410000Y-54270000D03*
X104210000Y-55070000D03*
X105010000Y-55070000D03*
X105810000Y-55070000D03*
X106610000Y-55070000D03*
X107410000Y-55070000D03*
X108210000Y-55070000D03*
X109010000Y-55070000D03*
X109810000Y-55070000D03*
X110610000Y-55070000D03*
X111410000Y-55070000D03*
X112210000Y-55070000D03*
X113010000Y-55070000D03*
X113810000Y-55070000D03*
X114610000Y-55070000D03*
X115410000Y-55070000D03*
%TD*%
D15*
%TO.C,R7*%
X126430002Y-52147300D03*
X125470002Y-52147300D03*
%TD*%
D16*
%TO.C,L1*%
X141943531Y-54049993D03*
X141943531Y-54739993D03*
%TD*%
D17*
%TO.C,Ue1*%
X93500000Y-43412500D03*
X93500000Y-44712500D03*
X93500000Y-46012500D03*
X93500000Y-47312500D03*
X94800000Y-43412500D03*
X94800000Y-44712500D03*
X94800000Y-46012500D03*
X94800000Y-47312500D03*
X96100000Y-43412500D03*
X96100000Y-44712500D03*
X96100000Y-46012500D03*
X96100000Y-47312500D03*
X97400000Y-43412500D03*
X97400000Y-44712500D03*
X97400000Y-46012500D03*
X97400000Y-47312500D03*
D18*
X92112500Y-42862500D03*
X92112500Y-43362500D03*
X92112500Y-43862500D03*
X92112500Y-44362500D03*
X92112500Y-44862500D03*
X92112500Y-45362500D03*
X92112500Y-45862500D03*
X92112500Y-46362500D03*
X92112500Y-46862500D03*
X92112500Y-47362500D03*
X92112500Y-47862500D03*
D19*
X92950000Y-48700000D03*
X93450000Y-48700000D03*
X93950000Y-48700000D03*
X94450000Y-48700000D03*
X94950000Y-48700000D03*
X95450000Y-48700000D03*
X95950000Y-48700000D03*
X96450000Y-48700000D03*
X96950000Y-48700000D03*
X97450000Y-48700000D03*
X97950000Y-48700000D03*
D18*
X98787500Y-47862500D03*
X98787500Y-47362500D03*
X98787500Y-46862500D03*
X98787500Y-46362500D03*
X98787500Y-45862500D03*
X98787500Y-45362500D03*
X98787500Y-44862500D03*
X98787500Y-44362500D03*
X98787500Y-43862500D03*
X98787500Y-43362500D03*
X98787500Y-42862500D03*
D19*
X97950000Y-42025000D03*
X97450000Y-42025000D03*
X96950000Y-42025000D03*
X96450000Y-42025000D03*
X95950000Y-42025000D03*
X95450000Y-42025000D03*
X94950000Y-42025000D03*
X94450000Y-42025000D03*
X93950000Y-42025000D03*
X93450000Y-42025000D03*
X92950000Y-42025000D03*
%TD*%
D20*
%TO.C,C2*%
X141943531Y-53199993D03*
X141943531Y-52509993D03*
%TD*%
D21*
%TO.C,U6*%
X121673900Y-53610012D03*
X121673900Y-52510011D03*
X121673900Y-51410011D03*
X121673900Y-50310010D03*
X121673900Y-49210013D03*
X121673900Y-48110012D03*
X121673900Y-47010012D03*
X121673900Y-45910012D03*
D22*
X119193593Y-44454589D03*
D23*
X119945895Y-54938400D03*
D24*
X118691094Y-55167000D03*
D25*
X117703200Y-54214500D03*
%TD*%
D26*
%TO.C,C34*%
X95545000Y-50810000D03*
X96235000Y-50810000D03*
%TD*%
D27*
%TO.C,L2*%
X136350000Y-46040000D03*
X132250000Y-46040000D03*
%TD*%
D26*
%TO.C,L3*%
X94035000Y-50780000D03*
X94725000Y-50780000D03*
%TD*%
D16*
%TO.C,C3*%
X141963531Y-55619993D03*
X141963531Y-56309993D03*
%TD*%
D13*
%TO.C,U8*%
X113770018Y-61090018D03*
X113770018Y-60090018D03*
X113770018Y-59090018D03*
X113770018Y-58090018D03*
X114770018Y-62090018D03*
X114770018Y-61090018D03*
X114770018Y-60090018D03*
X114770018Y-59090018D03*
X114770018Y-58090018D03*
X115770018Y-62090018D03*
X115770018Y-61090018D03*
X115770018Y-60090018D03*
X115770018Y-59090018D03*
X115770018Y-58090018D03*
X116770018Y-62090018D03*
X116770018Y-61090018D03*
X116770018Y-60090018D03*
X116770018Y-59090018D03*
X116770018Y-58090018D03*
X117770018Y-62090018D03*
X117770018Y-61090018D03*
X117770018Y-60090018D03*
X117770018Y-59090018D03*
X117770018Y-58090018D03*
%TD*%
D16*
%TO.C,R8*%
X126740002Y-46377300D03*
X126740002Y-47067300D03*
%TD*%
D28*
%TO.C,J5*%
X94695000Y-53590000D03*
X91745000Y-53590000D03*
D29*
X93220000Y-52040000D03*
%TD*%
D30*
%TO.C,RN1*%
X99600000Y-53710000D03*
X99100000Y-53710000D03*
X98600000Y-53710000D03*
X98100000Y-53710000D03*
X97600000Y-53710000D03*
X97100000Y-53710000D03*
X96600000Y-53710000D03*
X96100000Y-53710000D03*
X96100000Y-55510000D03*
X96600000Y-55510000D03*
X97100000Y-55510000D03*
X97600000Y-55510000D03*
X98100000Y-55510000D03*
X98600000Y-55510000D03*
X99100000Y-55510000D03*
X99600000Y-55510000D03*
%TD*%
D31*
%TO.C,MCU1*%
X139100000Y-53127500D03*
X139100000Y-51927500D03*
X139100000Y-50727500D03*
X137900000Y-53127500D03*
X137900000Y-51927500D03*
X137900000Y-50727500D03*
X136700000Y-53127500D03*
X136700000Y-51927500D03*
X136700000Y-50727500D03*
D32*
X140337500Y-53727500D03*
X140337500Y-53327500D03*
X140337500Y-52927500D03*
X140337500Y-52527500D03*
X140337500Y-52127500D03*
X140337500Y-51727500D03*
X140337500Y-51327500D03*
X140337500Y-50927500D03*
X140337500Y-50527500D03*
X140337500Y-50127500D03*
D33*
X139700000Y-49490000D03*
X139300000Y-49490000D03*
X138900000Y-49490000D03*
X138500000Y-49490000D03*
X138100000Y-49490000D03*
X137700000Y-49490000D03*
X137300000Y-49490000D03*
X136900000Y-49490000D03*
X136500000Y-49490000D03*
X136100000Y-49490000D03*
D32*
X135462500Y-50127500D03*
X135462500Y-50527500D03*
X135462500Y-50927500D03*
X135462500Y-51327500D03*
X135462500Y-51727500D03*
X135462500Y-52127500D03*
X135462500Y-52527500D03*
X135462500Y-52927500D03*
X135462500Y-53327500D03*
X135462500Y-53727500D03*
D33*
X136100000Y-54365000D03*
X136500000Y-54365000D03*
X136900000Y-54365000D03*
X137300000Y-54365000D03*
X137700000Y-54365000D03*
X138100000Y-54365000D03*
X138500000Y-54365000D03*
X138900000Y-54365000D03*
X139300000Y-54365000D03*
X139700000Y-54365000D03*
%TD*%
D34*
%TO.C,J2*%
X134660000Y-57870000D03*
X135460000Y-57870000D03*
D35*
X136610000Y-57870000D03*
X137610000Y-57870000D03*
X138110000Y-57870000D03*
X139110000Y-57870000D03*
D34*
X140260000Y-57870000D03*
X141060000Y-57870000D03*
X141060000Y-57870000D03*
X140260000Y-57870000D03*
D35*
X139610000Y-57870000D03*
X138610000Y-57870000D03*
X137110000Y-57870000D03*
X136110000Y-57870000D03*
D34*
X135460000Y-57870000D03*
X134660000Y-57870000D03*
%TD*%
%TO.C,J3*%
X122200000Y-57805000D03*
X123000000Y-57805000D03*
D35*
X124150000Y-57805000D03*
X125150000Y-57805000D03*
X125650000Y-57805000D03*
X126650000Y-57805000D03*
D34*
X127800000Y-57805000D03*
X128600000Y-57805000D03*
X128600000Y-57805000D03*
X127800000Y-57805000D03*
D35*
X127150000Y-57805000D03*
X126150000Y-57805000D03*
X124650000Y-57805000D03*
X123650000Y-57805000D03*
D34*
X123000000Y-57805000D03*
X122200000Y-57805000D03*
%TD*%
D36*
%TO.C,U4*%
X124220000Y-50897300D03*
X125170001Y-50897300D03*
X126120002Y-50897300D03*
X126120002Y-48370000D03*
X125170001Y-48370000D03*
X124220000Y-48370000D03*
%TD*%
M02*
