%TF.GenerationSoftware,KiCad,Pcbnew,8.0.6*%
%TF.CreationDate,2024-11-21T12:08:54-08:00*%
%TF.ProjectId,SYNC-VT,53594e43-2d56-4542-9e6b-696361645f70,rev?*%
%TF.SameCoordinates,Original*%
%TF.FileFunction,Legend,Top*%
%TF.FilePolarity,Positive*%
%FSLAX46Y46*%
G04 Gerber Fmt 4.6, Leading zero omitted, Abs format (unit mm)*
G04 Created by KiCad (PCBNEW 8.0.6) date 2024-11-21 12:08:54*
%MOMM*%
%LPD*%
G01*
G04 APERTURE LIST*
%ADD10C,0.100000*%
%ADD11C,0.120000*%
%ADD12C,0.127000*%
%ADD13C,0.200000*%
%ADD14C,0.152400*%
%ADD15C,0.508000*%
G04 APERTURE END LIST*
D10*
X113019122Y-63446895D02*
X112866741Y-63446895D01*
X112866741Y-63446895D02*
X112790550Y-63484990D01*
X112790550Y-63484990D02*
X112752455Y-63523085D01*
X112752455Y-63523085D02*
X112676265Y-63637371D01*
X112676265Y-63637371D02*
X112638169Y-63789752D01*
X112638169Y-63789752D02*
X112638169Y-64094514D01*
X112638169Y-64094514D02*
X112676265Y-64170704D01*
X112676265Y-64170704D02*
X112714360Y-64208800D01*
X112714360Y-64208800D02*
X112790550Y-64246895D01*
X112790550Y-64246895D02*
X112942931Y-64246895D01*
X112942931Y-64246895D02*
X113019122Y-64208800D01*
X113019122Y-64208800D02*
X113057217Y-64170704D01*
X113057217Y-64170704D02*
X113095312Y-64094514D01*
X113095312Y-64094514D02*
X113095312Y-63904038D01*
X113095312Y-63904038D02*
X113057217Y-63827847D01*
X113057217Y-63827847D02*
X113019122Y-63789752D01*
X113019122Y-63789752D02*
X112942931Y-63751657D01*
X112942931Y-63751657D02*
X112790550Y-63751657D01*
X112790550Y-63751657D02*
X112714360Y-63789752D01*
X112714360Y-63789752D02*
X112676265Y-63827847D01*
X112676265Y-63827847D02*
X112638169Y-63904038D01*
X113781027Y-63713561D02*
X113781027Y-64246895D01*
X113590551Y-63408800D02*
X113400074Y-63980228D01*
X113400074Y-63980228D02*
X113895313Y-63980228D01*
X114200075Y-64246895D02*
X114200075Y-63446895D01*
X114200075Y-63446895D02*
X114466741Y-64018323D01*
X114466741Y-64018323D02*
X114733408Y-63446895D01*
X114733408Y-63446895D02*
X114733408Y-64246895D01*
X115381027Y-63827847D02*
X115495313Y-63865942D01*
X115495313Y-63865942D02*
X115533408Y-63904038D01*
X115533408Y-63904038D02*
X115571504Y-63980228D01*
X115571504Y-63980228D02*
X115571504Y-64094514D01*
X115571504Y-64094514D02*
X115533408Y-64170704D01*
X115533408Y-64170704D02*
X115495313Y-64208800D01*
X115495313Y-64208800D02*
X115419123Y-64246895D01*
X115419123Y-64246895D02*
X115114361Y-64246895D01*
X115114361Y-64246895D02*
X115114361Y-63446895D01*
X115114361Y-63446895D02*
X115381027Y-63446895D01*
X115381027Y-63446895D02*
X115457218Y-63484990D01*
X115457218Y-63484990D02*
X115495313Y-63523085D01*
X115495313Y-63523085D02*
X115533408Y-63599276D01*
X115533408Y-63599276D02*
X115533408Y-63675466D01*
X115533408Y-63675466D02*
X115495313Y-63751657D01*
X115495313Y-63751657D02*
X115457218Y-63789752D01*
X115457218Y-63789752D02*
X115381027Y-63827847D01*
X115381027Y-63827847D02*
X115114361Y-63827847D01*
X116981028Y-64246895D02*
X116714361Y-63865942D01*
X116523885Y-64246895D02*
X116523885Y-63446895D01*
X116523885Y-63446895D02*
X116828647Y-63446895D01*
X116828647Y-63446895D02*
X116904837Y-63484990D01*
X116904837Y-63484990D02*
X116942932Y-63523085D01*
X116942932Y-63523085D02*
X116981028Y-63599276D01*
X116981028Y-63599276D02*
X116981028Y-63713561D01*
X116981028Y-63713561D02*
X116942932Y-63789752D01*
X116942932Y-63789752D02*
X116904837Y-63827847D01*
X116904837Y-63827847D02*
X116828647Y-63865942D01*
X116828647Y-63865942D02*
X116523885Y-63865942D01*
X117285789Y-64018323D02*
X117666742Y-64018323D01*
X117209599Y-64246895D02*
X117476266Y-63446895D01*
X117476266Y-63446895D02*
X117742932Y-64246895D01*
X118009599Y-64246895D02*
X118009599Y-63446895D01*
X118009599Y-63446895D02*
X118276265Y-64018323D01*
X118276265Y-64018323D02*
X118542932Y-63446895D01*
X118542932Y-63446895D02*
X118542932Y-64246895D01*
X92783169Y-41420823D02*
X93164122Y-41420823D01*
X92706979Y-41649395D02*
X92973646Y-40849395D01*
X92973646Y-40849395D02*
X93240312Y-41649395D01*
X93506979Y-41649395D02*
X93506979Y-40849395D01*
X93506979Y-40849395D02*
X93964122Y-41649395D01*
X93964122Y-41649395D02*
X93964122Y-40849395D01*
X94306978Y-40925585D02*
X94345074Y-40887490D01*
X94345074Y-40887490D02*
X94421264Y-40849395D01*
X94421264Y-40849395D02*
X94611740Y-40849395D01*
X94611740Y-40849395D02*
X94687931Y-40887490D01*
X94687931Y-40887490D02*
X94726026Y-40925585D01*
X94726026Y-40925585D02*
X94764121Y-41001776D01*
X94764121Y-41001776D02*
X94764121Y-41077966D01*
X94764121Y-41077966D02*
X94726026Y-41192252D01*
X94726026Y-41192252D02*
X94268883Y-41649395D01*
X94268883Y-41649395D02*
X94764121Y-41649395D01*
X95030788Y-40849395D02*
X95526026Y-40849395D01*
X95526026Y-40849395D02*
X95259360Y-41154157D01*
X95259360Y-41154157D02*
X95373645Y-41154157D01*
X95373645Y-41154157D02*
X95449836Y-41192252D01*
X95449836Y-41192252D02*
X95487931Y-41230347D01*
X95487931Y-41230347D02*
X95526026Y-41306538D01*
X95526026Y-41306538D02*
X95526026Y-41497014D01*
X95526026Y-41497014D02*
X95487931Y-41573204D01*
X95487931Y-41573204D02*
X95449836Y-41611300D01*
X95449836Y-41611300D02*
X95373645Y-41649395D01*
X95373645Y-41649395D02*
X95145074Y-41649395D01*
X95145074Y-41649395D02*
X95068883Y-41611300D01*
X95068883Y-41611300D02*
X95030788Y-41573204D01*
X96287931Y-41649395D02*
X95830788Y-41649395D01*
X96059360Y-41649395D02*
X96059360Y-40849395D01*
X96059360Y-40849395D02*
X95983169Y-40963680D01*
X95983169Y-40963680D02*
X95906979Y-41039871D01*
X95906979Y-41039871D02*
X95830788Y-41077966D01*
X96630789Y-41230347D02*
X96897455Y-41230347D01*
X97011741Y-41649395D02*
X96630789Y-41649395D01*
X96630789Y-41649395D02*
X96630789Y-40849395D01*
X96630789Y-40849395D02*
X97011741Y-40849395D01*
X97506980Y-40849395D02*
X97583170Y-40849395D01*
X97583170Y-40849395D02*
X97659361Y-40887490D01*
X97659361Y-40887490D02*
X97697456Y-40925585D01*
X97697456Y-40925585D02*
X97735551Y-41001776D01*
X97735551Y-41001776D02*
X97773646Y-41154157D01*
X97773646Y-41154157D02*
X97773646Y-41344633D01*
X97773646Y-41344633D02*
X97735551Y-41497014D01*
X97735551Y-41497014D02*
X97697456Y-41573204D01*
X97697456Y-41573204D02*
X97659361Y-41611300D01*
X97659361Y-41611300D02*
X97583170Y-41649395D01*
X97583170Y-41649395D02*
X97506980Y-41649395D01*
X97506980Y-41649395D02*
X97430789Y-41611300D01*
X97430789Y-41611300D02*
X97392694Y-41573204D01*
X97392694Y-41573204D02*
X97354599Y-41497014D01*
X97354599Y-41497014D02*
X97316503Y-41344633D01*
X97316503Y-41344633D02*
X97316503Y-41154157D01*
X97316503Y-41154157D02*
X97354599Y-41001776D01*
X97354599Y-41001776D02*
X97392694Y-40925585D01*
X97392694Y-40925585D02*
X97430789Y-40887490D01*
X97430789Y-40887490D02*
X97506980Y-40849395D01*
X98459361Y-41116061D02*
X98459361Y-41649395D01*
X98268885Y-40811300D02*
X98078408Y-41382728D01*
X98078408Y-41382728D02*
X98573647Y-41382728D01*
X123673884Y-56372419D02*
X123673884Y-55372419D01*
X123673884Y-55372419D02*
X124054836Y-55372419D01*
X124054836Y-55372419D02*
X124150074Y-55420038D01*
X124150074Y-55420038D02*
X124197693Y-55467657D01*
X124197693Y-55467657D02*
X124245312Y-55562895D01*
X124245312Y-55562895D02*
X124245312Y-55705752D01*
X124245312Y-55705752D02*
X124197693Y-55800990D01*
X124197693Y-55800990D02*
X124150074Y-55848609D01*
X124150074Y-55848609D02*
X124054836Y-55896228D01*
X124054836Y-55896228D02*
X123673884Y-55896228D01*
X124816741Y-56372419D02*
X124721503Y-56324800D01*
X124721503Y-56324800D02*
X124673884Y-56277180D01*
X124673884Y-56277180D02*
X124626265Y-56181942D01*
X124626265Y-56181942D02*
X124626265Y-55896228D01*
X124626265Y-55896228D02*
X124673884Y-55800990D01*
X124673884Y-55800990D02*
X124721503Y-55753371D01*
X124721503Y-55753371D02*
X124816741Y-55705752D01*
X124816741Y-55705752D02*
X124959598Y-55705752D01*
X124959598Y-55705752D02*
X125054836Y-55753371D01*
X125054836Y-55753371D02*
X125102455Y-55800990D01*
X125102455Y-55800990D02*
X125150074Y-55896228D01*
X125150074Y-55896228D02*
X125150074Y-56181942D01*
X125150074Y-56181942D02*
X125102455Y-56277180D01*
X125102455Y-56277180D02*
X125054836Y-56324800D01*
X125054836Y-56324800D02*
X124959598Y-56372419D01*
X124959598Y-56372419D02*
X124816741Y-56372419D01*
X125483408Y-55705752D02*
X125673884Y-56372419D01*
X125673884Y-56372419D02*
X125864360Y-55896228D01*
X125864360Y-55896228D02*
X126054836Y-56372419D01*
X126054836Y-56372419D02*
X126245312Y-55705752D01*
X127007217Y-56324800D02*
X126911979Y-56372419D01*
X126911979Y-56372419D02*
X126721503Y-56372419D01*
X126721503Y-56372419D02*
X126626265Y-56324800D01*
X126626265Y-56324800D02*
X126578646Y-56229561D01*
X126578646Y-56229561D02*
X126578646Y-55848609D01*
X126578646Y-55848609D02*
X126626265Y-55753371D01*
X126626265Y-55753371D02*
X126721503Y-55705752D01*
X126721503Y-55705752D02*
X126911979Y-55705752D01*
X126911979Y-55705752D02*
X127007217Y-55753371D01*
X127007217Y-55753371D02*
X127054836Y-55848609D01*
X127054836Y-55848609D02*
X127054836Y-55943847D01*
X127054836Y-55943847D02*
X126578646Y-56039085D01*
X127483408Y-56372419D02*
X127483408Y-55705752D01*
X127483408Y-55896228D02*
X127531027Y-55800990D01*
X127531027Y-55800990D02*
X127578646Y-55753371D01*
X127578646Y-55753371D02*
X127673884Y-55705752D01*
X127673884Y-55705752D02*
X127769122Y-55705752D01*
X103780074Y-41496895D02*
X104313408Y-41496895D01*
X104313408Y-41496895D02*
X103780074Y-42296895D01*
X103780074Y-42296895D02*
X104313408Y-42296895D01*
X104541979Y-41763561D02*
X104732455Y-42296895D01*
X104922932Y-41763561D02*
X104732455Y-42296895D01*
X104732455Y-42296895D02*
X104656265Y-42487371D01*
X104656265Y-42487371D02*
X104618170Y-42525466D01*
X104618170Y-42525466D02*
X104541979Y-42563561D01*
X105227694Y-41763561D02*
X105227694Y-42296895D01*
X105227694Y-41839752D02*
X105265789Y-41801657D01*
X105265789Y-41801657D02*
X105341979Y-41763561D01*
X105341979Y-41763561D02*
X105456265Y-41763561D01*
X105456265Y-41763561D02*
X105532456Y-41801657D01*
X105532456Y-41801657D02*
X105570551Y-41877847D01*
X105570551Y-41877847D02*
X105570551Y-42296895D01*
X106294361Y-41763561D02*
X106294361Y-42563561D01*
X106294361Y-42258800D02*
X106218170Y-42296895D01*
X106218170Y-42296895D02*
X106065789Y-42296895D01*
X106065789Y-42296895D02*
X105989599Y-42258800D01*
X105989599Y-42258800D02*
X105951504Y-42220704D01*
X105951504Y-42220704D02*
X105913408Y-42144514D01*
X105913408Y-42144514D02*
X105913408Y-41915942D01*
X105913408Y-41915942D02*
X105951504Y-41839752D01*
X105951504Y-41839752D02*
X105989599Y-41801657D01*
X105989599Y-41801657D02*
X106065789Y-41763561D01*
X106065789Y-41763561D02*
X106218170Y-41763561D01*
X106218170Y-41763561D02*
X106294361Y-41801657D01*
X107208647Y-41496895D02*
X107741981Y-41496895D01*
X107741981Y-41496895D02*
X107208647Y-42296895D01*
X107208647Y-42296895D02*
X107741981Y-42296895D01*
X108503886Y-42220704D02*
X108465790Y-42258800D01*
X108465790Y-42258800D02*
X108351505Y-42296895D01*
X108351505Y-42296895D02*
X108275314Y-42296895D01*
X108275314Y-42296895D02*
X108161028Y-42258800D01*
X108161028Y-42258800D02*
X108084838Y-42182609D01*
X108084838Y-42182609D02*
X108046743Y-42106419D01*
X108046743Y-42106419D02*
X108008647Y-41954038D01*
X108008647Y-41954038D02*
X108008647Y-41839752D01*
X108008647Y-41839752D02*
X108046743Y-41687371D01*
X108046743Y-41687371D02*
X108084838Y-41611180D01*
X108084838Y-41611180D02*
X108161028Y-41534990D01*
X108161028Y-41534990D02*
X108275314Y-41496895D01*
X108275314Y-41496895D02*
X108351505Y-41496895D01*
X108351505Y-41496895D02*
X108465790Y-41534990D01*
X108465790Y-41534990D02*
X108503886Y-41573085D01*
X108770552Y-41496895D02*
X109303886Y-41496895D01*
X109303886Y-41496895D02*
X108961028Y-42296895D01*
X109761029Y-41496895D02*
X109837219Y-41496895D01*
X109837219Y-41496895D02*
X109913410Y-41534990D01*
X109913410Y-41534990D02*
X109951505Y-41573085D01*
X109951505Y-41573085D02*
X109989600Y-41649276D01*
X109989600Y-41649276D02*
X110027695Y-41801657D01*
X110027695Y-41801657D02*
X110027695Y-41992133D01*
X110027695Y-41992133D02*
X109989600Y-42144514D01*
X109989600Y-42144514D02*
X109951505Y-42220704D01*
X109951505Y-42220704D02*
X109913410Y-42258800D01*
X109913410Y-42258800D02*
X109837219Y-42296895D01*
X109837219Y-42296895D02*
X109761029Y-42296895D01*
X109761029Y-42296895D02*
X109684838Y-42258800D01*
X109684838Y-42258800D02*
X109646743Y-42220704D01*
X109646743Y-42220704D02*
X109608648Y-42144514D01*
X109608648Y-42144514D02*
X109570552Y-41992133D01*
X109570552Y-41992133D02*
X109570552Y-41801657D01*
X109570552Y-41801657D02*
X109608648Y-41649276D01*
X109608648Y-41649276D02*
X109646743Y-41573085D01*
X109646743Y-41573085D02*
X109684838Y-41534990D01*
X109684838Y-41534990D02*
X109761029Y-41496895D01*
X110789600Y-42296895D02*
X110332457Y-42296895D01*
X110561029Y-42296895D02*
X110561029Y-41496895D01*
X110561029Y-41496895D02*
X110484838Y-41611180D01*
X110484838Y-41611180D02*
X110408648Y-41687371D01*
X110408648Y-41687371D02*
X110332457Y-41725466D01*
X111284839Y-41496895D02*
X111361029Y-41496895D01*
X111361029Y-41496895D02*
X111437220Y-41534990D01*
X111437220Y-41534990D02*
X111475315Y-41573085D01*
X111475315Y-41573085D02*
X111513410Y-41649276D01*
X111513410Y-41649276D02*
X111551505Y-41801657D01*
X111551505Y-41801657D02*
X111551505Y-41992133D01*
X111551505Y-41992133D02*
X111513410Y-42144514D01*
X111513410Y-42144514D02*
X111475315Y-42220704D01*
X111475315Y-42220704D02*
X111437220Y-42258800D01*
X111437220Y-42258800D02*
X111361029Y-42296895D01*
X111361029Y-42296895D02*
X111284839Y-42296895D01*
X111284839Y-42296895D02*
X111208648Y-42258800D01*
X111208648Y-42258800D02*
X111170553Y-42220704D01*
X111170553Y-42220704D02*
X111132458Y-42144514D01*
X111132458Y-42144514D02*
X111094362Y-41992133D01*
X111094362Y-41992133D02*
X111094362Y-41801657D01*
X111094362Y-41801657D02*
X111132458Y-41649276D01*
X111132458Y-41649276D02*
X111170553Y-41573085D01*
X111170553Y-41573085D02*
X111208648Y-41534990D01*
X111208648Y-41534990D02*
X111284839Y-41496895D01*
X112465791Y-41458800D02*
X111780077Y-42487371D01*
X112884839Y-41496895D02*
X112961029Y-41496895D01*
X112961029Y-41496895D02*
X113037220Y-41534990D01*
X113037220Y-41534990D02*
X113075315Y-41573085D01*
X113075315Y-41573085D02*
X113113410Y-41649276D01*
X113113410Y-41649276D02*
X113151505Y-41801657D01*
X113151505Y-41801657D02*
X113151505Y-41992133D01*
X113151505Y-41992133D02*
X113113410Y-42144514D01*
X113113410Y-42144514D02*
X113075315Y-42220704D01*
X113075315Y-42220704D02*
X113037220Y-42258800D01*
X113037220Y-42258800D02*
X112961029Y-42296895D01*
X112961029Y-42296895D02*
X112884839Y-42296895D01*
X112884839Y-42296895D02*
X112808648Y-42258800D01*
X112808648Y-42258800D02*
X112770553Y-42220704D01*
X112770553Y-42220704D02*
X112732458Y-42144514D01*
X112732458Y-42144514D02*
X112694362Y-41992133D01*
X112694362Y-41992133D02*
X112694362Y-41801657D01*
X112694362Y-41801657D02*
X112732458Y-41649276D01*
X112732458Y-41649276D02*
X112770553Y-41573085D01*
X112770553Y-41573085D02*
X112808648Y-41534990D01*
X112808648Y-41534990D02*
X112884839Y-41496895D01*
X113418172Y-41496895D02*
X113951506Y-41496895D01*
X113951506Y-41496895D02*
X113608648Y-42296895D01*
X136133884Y-55392419D02*
X136133884Y-56201942D01*
X136133884Y-56201942D02*
X136181503Y-56297180D01*
X136181503Y-56297180D02*
X136229122Y-56344800D01*
X136229122Y-56344800D02*
X136324360Y-56392419D01*
X136324360Y-56392419D02*
X136514836Y-56392419D01*
X136514836Y-56392419D02*
X136610074Y-56344800D01*
X136610074Y-56344800D02*
X136657693Y-56297180D01*
X136657693Y-56297180D02*
X136705312Y-56201942D01*
X136705312Y-56201942D02*
X136705312Y-55392419D01*
X137133884Y-56106704D02*
X137610074Y-56106704D01*
X137038646Y-56392419D02*
X137371979Y-55392419D01*
X137371979Y-55392419D02*
X137705312Y-56392419D01*
X138610074Y-56392419D02*
X138276741Y-55916228D01*
X138038646Y-56392419D02*
X138038646Y-55392419D01*
X138038646Y-55392419D02*
X138419598Y-55392419D01*
X138419598Y-55392419D02*
X138514836Y-55440038D01*
X138514836Y-55440038D02*
X138562455Y-55487657D01*
X138562455Y-55487657D02*
X138610074Y-55582895D01*
X138610074Y-55582895D02*
X138610074Y-55725752D01*
X138610074Y-55725752D02*
X138562455Y-55820990D01*
X138562455Y-55820990D02*
X138514836Y-55868609D01*
X138514836Y-55868609D02*
X138419598Y-55916228D01*
X138419598Y-55916228D02*
X138038646Y-55916228D01*
X138895789Y-55392419D02*
X139467217Y-55392419D01*
X139181503Y-56392419D02*
X139181503Y-55392419D01*
X128365312Y-49707236D02*
X128317693Y-49754856D01*
X128317693Y-49754856D02*
X128174836Y-49802475D01*
X128174836Y-49802475D02*
X128079598Y-49802475D01*
X128079598Y-49802475D02*
X127936741Y-49754856D01*
X127936741Y-49754856D02*
X127841503Y-49659617D01*
X127841503Y-49659617D02*
X127793884Y-49564379D01*
X127793884Y-49564379D02*
X127746265Y-49373903D01*
X127746265Y-49373903D02*
X127746265Y-49231046D01*
X127746265Y-49231046D02*
X127793884Y-49040570D01*
X127793884Y-49040570D02*
X127841503Y-48945332D01*
X127841503Y-48945332D02*
X127936741Y-48850094D01*
X127936741Y-48850094D02*
X128079598Y-48802475D01*
X128079598Y-48802475D02*
X128174836Y-48802475D01*
X128174836Y-48802475D02*
X128317693Y-48850094D01*
X128317693Y-48850094D02*
X128365312Y-48897713D01*
X128793884Y-49802475D02*
X128793884Y-48802475D01*
X129222455Y-49802475D02*
X129222455Y-49278665D01*
X129222455Y-49278665D02*
X129174836Y-49183427D01*
X129174836Y-49183427D02*
X129079598Y-49135808D01*
X129079598Y-49135808D02*
X128936741Y-49135808D01*
X128936741Y-49135808D02*
X128841503Y-49183427D01*
X128841503Y-49183427D02*
X128793884Y-49231046D01*
X130127217Y-49802475D02*
X130127217Y-49278665D01*
X130127217Y-49278665D02*
X130079598Y-49183427D01*
X130079598Y-49183427D02*
X129984360Y-49135808D01*
X129984360Y-49135808D02*
X129793884Y-49135808D01*
X129793884Y-49135808D02*
X129698646Y-49183427D01*
X130127217Y-49754856D02*
X130031979Y-49802475D01*
X130031979Y-49802475D02*
X129793884Y-49802475D01*
X129793884Y-49802475D02*
X129698646Y-49754856D01*
X129698646Y-49754856D02*
X129651027Y-49659617D01*
X129651027Y-49659617D02*
X129651027Y-49564379D01*
X129651027Y-49564379D02*
X129698646Y-49469141D01*
X129698646Y-49469141D02*
X129793884Y-49421522D01*
X129793884Y-49421522D02*
X130031979Y-49421522D01*
X130031979Y-49421522D02*
X130127217Y-49373903D01*
X130603408Y-49802475D02*
X130603408Y-49135808D01*
X130603408Y-49326284D02*
X130651027Y-49231046D01*
X130651027Y-49231046D02*
X130698646Y-49183427D01*
X130698646Y-49183427D02*
X130793884Y-49135808D01*
X130793884Y-49135808D02*
X130889122Y-49135808D01*
X131365313Y-49802475D02*
X131270075Y-49754856D01*
X131270075Y-49754856D02*
X131222456Y-49659617D01*
X131222456Y-49659617D02*
X131222456Y-48802475D01*
X132127218Y-49754856D02*
X132031980Y-49802475D01*
X132031980Y-49802475D02*
X131841504Y-49802475D01*
X131841504Y-49802475D02*
X131746266Y-49754856D01*
X131746266Y-49754856D02*
X131698647Y-49659617D01*
X131698647Y-49659617D02*
X131698647Y-49278665D01*
X131698647Y-49278665D02*
X131746266Y-49183427D01*
X131746266Y-49183427D02*
X131841504Y-49135808D01*
X131841504Y-49135808D02*
X132031980Y-49135808D01*
X132031980Y-49135808D02*
X132127218Y-49183427D01*
X132127218Y-49183427D02*
X132174837Y-49278665D01*
X132174837Y-49278665D02*
X132174837Y-49373903D01*
X132174837Y-49373903D02*
X131698647Y-49469141D01*
X132555790Y-49754856D02*
X132651028Y-49802475D01*
X132651028Y-49802475D02*
X132841504Y-49802475D01*
X132841504Y-49802475D02*
X132936742Y-49754856D01*
X132936742Y-49754856D02*
X132984361Y-49659617D01*
X132984361Y-49659617D02*
X132984361Y-49611998D01*
X132984361Y-49611998D02*
X132936742Y-49516760D01*
X132936742Y-49516760D02*
X132841504Y-49469141D01*
X132841504Y-49469141D02*
X132698647Y-49469141D01*
X132698647Y-49469141D02*
X132603409Y-49421522D01*
X132603409Y-49421522D02*
X132555790Y-49326284D01*
X132555790Y-49326284D02*
X132555790Y-49278665D01*
X132555790Y-49278665D02*
X132603409Y-49183427D01*
X132603409Y-49183427D02*
X132698647Y-49135808D01*
X132698647Y-49135808D02*
X132841504Y-49135808D01*
X132841504Y-49135808D02*
X132936742Y-49183427D01*
X134031981Y-48802475D02*
X134603409Y-48802475D01*
X134317695Y-49802475D02*
X134317695Y-48802475D01*
X134936743Y-49707236D02*
X134984362Y-49754856D01*
X134984362Y-49754856D02*
X134936743Y-49802475D01*
X134936743Y-49802475D02*
X134889124Y-49754856D01*
X134889124Y-49754856D02*
X134936743Y-49707236D01*
X134936743Y-49707236D02*
X134936743Y-49802475D01*
X127746265Y-51364800D02*
X127889122Y-51412419D01*
X127889122Y-51412419D02*
X128127217Y-51412419D01*
X128127217Y-51412419D02*
X128222455Y-51364800D01*
X128222455Y-51364800D02*
X128270074Y-51317180D01*
X128270074Y-51317180D02*
X128317693Y-51221942D01*
X128317693Y-51221942D02*
X128317693Y-51126704D01*
X128317693Y-51126704D02*
X128270074Y-51031466D01*
X128270074Y-51031466D02*
X128222455Y-50983847D01*
X128222455Y-50983847D02*
X128127217Y-50936228D01*
X128127217Y-50936228D02*
X127936741Y-50888609D01*
X127936741Y-50888609D02*
X127841503Y-50840990D01*
X127841503Y-50840990D02*
X127793884Y-50793371D01*
X127793884Y-50793371D02*
X127746265Y-50698133D01*
X127746265Y-50698133D02*
X127746265Y-50602895D01*
X127746265Y-50602895D02*
X127793884Y-50507657D01*
X127793884Y-50507657D02*
X127841503Y-50460038D01*
X127841503Y-50460038D02*
X127936741Y-50412419D01*
X127936741Y-50412419D02*
X128174836Y-50412419D01*
X128174836Y-50412419D02*
X128317693Y-50460038D01*
X129174836Y-50745752D02*
X129174836Y-51412419D01*
X128746265Y-50745752D02*
X128746265Y-51269561D01*
X128746265Y-51269561D02*
X128793884Y-51364800D01*
X128793884Y-51364800D02*
X128889122Y-51412419D01*
X128889122Y-51412419D02*
X129031979Y-51412419D01*
X129031979Y-51412419D02*
X129127217Y-51364800D01*
X129127217Y-51364800D02*
X129174836Y-51317180D01*
X129651027Y-50745752D02*
X129651027Y-51412419D01*
X129651027Y-50840990D02*
X129698646Y-50793371D01*
X129698646Y-50793371D02*
X129793884Y-50745752D01*
X129793884Y-50745752D02*
X129936741Y-50745752D01*
X129936741Y-50745752D02*
X130031979Y-50793371D01*
X130031979Y-50793371D02*
X130079598Y-50888609D01*
X130079598Y-50888609D02*
X130079598Y-51412419D01*
X130555789Y-50745752D02*
X130555789Y-51412419D01*
X130555789Y-50840990D02*
X130603408Y-50793371D01*
X130603408Y-50793371D02*
X130698646Y-50745752D01*
X130698646Y-50745752D02*
X130841503Y-50745752D01*
X130841503Y-50745752D02*
X130936741Y-50793371D01*
X130936741Y-50793371D02*
X130984360Y-50888609D01*
X130984360Y-50888609D02*
X130984360Y-51412419D01*
X131365313Y-50745752D02*
X131603408Y-51412419D01*
X131841503Y-50745752D02*
X131603408Y-51412419D01*
X131603408Y-51412419D02*
X131508170Y-51650514D01*
X131508170Y-51650514D02*
X131460551Y-51698133D01*
X131460551Y-51698133D02*
X131365313Y-51745752D01*
X132984361Y-51412419D02*
X132984361Y-50412419D01*
X132984361Y-50412419D02*
X133555789Y-51412419D01*
X133555789Y-51412419D02*
X133555789Y-50412419D01*
X134031980Y-51317180D02*
X134079599Y-51364800D01*
X134079599Y-51364800D02*
X134031980Y-51412419D01*
X134031980Y-51412419D02*
X133984361Y-51364800D01*
X133984361Y-51364800D02*
X134031980Y-51317180D01*
X134031980Y-51317180D02*
X134031980Y-51412419D01*
X124206265Y-42124856D02*
X124349122Y-42172475D01*
X124349122Y-42172475D02*
X124587217Y-42172475D01*
X124587217Y-42172475D02*
X124682455Y-42124856D01*
X124682455Y-42124856D02*
X124730074Y-42077236D01*
X124730074Y-42077236D02*
X124777693Y-41981998D01*
X124777693Y-41981998D02*
X124777693Y-41886760D01*
X124777693Y-41886760D02*
X124730074Y-41791522D01*
X124730074Y-41791522D02*
X124682455Y-41743903D01*
X124682455Y-41743903D02*
X124587217Y-41696284D01*
X124587217Y-41696284D02*
X124396741Y-41648665D01*
X124396741Y-41648665D02*
X124301503Y-41601046D01*
X124301503Y-41601046D02*
X124253884Y-41553427D01*
X124253884Y-41553427D02*
X124206265Y-41458189D01*
X124206265Y-41458189D02*
X124206265Y-41362951D01*
X124206265Y-41362951D02*
X124253884Y-41267713D01*
X124253884Y-41267713D02*
X124301503Y-41220094D01*
X124301503Y-41220094D02*
X124396741Y-41172475D01*
X124396741Y-41172475D02*
X124634836Y-41172475D01*
X124634836Y-41172475D02*
X124777693Y-41220094D01*
X125396741Y-41696284D02*
X125396741Y-42172475D01*
X125063408Y-41172475D02*
X125396741Y-41696284D01*
X125396741Y-41696284D02*
X125730074Y-41172475D01*
X126063408Y-42172475D02*
X126063408Y-41172475D01*
X126063408Y-41172475D02*
X126634836Y-42172475D01*
X126634836Y-42172475D02*
X126634836Y-41172475D01*
X127682455Y-42077236D02*
X127634836Y-42124856D01*
X127634836Y-42124856D02*
X127491979Y-42172475D01*
X127491979Y-42172475D02*
X127396741Y-42172475D01*
X127396741Y-42172475D02*
X127253884Y-42124856D01*
X127253884Y-42124856D02*
X127158646Y-42029617D01*
X127158646Y-42029617D02*
X127111027Y-41934379D01*
X127111027Y-41934379D02*
X127063408Y-41743903D01*
X127063408Y-41743903D02*
X127063408Y-41601046D01*
X127063408Y-41601046D02*
X127111027Y-41410570D01*
X127111027Y-41410570D02*
X127158646Y-41315332D01*
X127158646Y-41315332D02*
X127253884Y-41220094D01*
X127253884Y-41220094D02*
X127396741Y-41172475D01*
X127396741Y-41172475D02*
X127491979Y-41172475D01*
X127491979Y-41172475D02*
X127634836Y-41220094D01*
X127634836Y-41220094D02*
X127682455Y-41267713D01*
X128111027Y-41791522D02*
X128872932Y-41791522D01*
X129206265Y-41172475D02*
X129539598Y-42172475D01*
X129539598Y-42172475D02*
X129872931Y-41172475D01*
X130063408Y-41172475D02*
X130634836Y-41172475D01*
X130349122Y-42172475D02*
X130349122Y-41172475D01*
X132301503Y-42077236D02*
X132253884Y-42124856D01*
X132253884Y-42124856D02*
X132111027Y-42172475D01*
X132111027Y-42172475D02*
X132015789Y-42172475D01*
X132015789Y-42172475D02*
X131872932Y-42124856D01*
X131872932Y-42124856D02*
X131777694Y-42029617D01*
X131777694Y-42029617D02*
X131730075Y-41934379D01*
X131730075Y-41934379D02*
X131682456Y-41743903D01*
X131682456Y-41743903D02*
X131682456Y-41601046D01*
X131682456Y-41601046D02*
X131730075Y-41410570D01*
X131730075Y-41410570D02*
X131777694Y-41315332D01*
X131777694Y-41315332D02*
X131872932Y-41220094D01*
X131872932Y-41220094D02*
X132015789Y-41172475D01*
X132015789Y-41172475D02*
X132111027Y-41172475D01*
X132111027Y-41172475D02*
X132253884Y-41220094D01*
X132253884Y-41220094D02*
X132301503Y-41267713D01*
X132872932Y-42172475D02*
X132777694Y-42124856D01*
X132777694Y-42124856D02*
X132730075Y-42077236D01*
X132730075Y-42077236D02*
X132682456Y-41981998D01*
X132682456Y-41981998D02*
X132682456Y-41696284D01*
X132682456Y-41696284D02*
X132730075Y-41601046D01*
X132730075Y-41601046D02*
X132777694Y-41553427D01*
X132777694Y-41553427D02*
X132872932Y-41505808D01*
X132872932Y-41505808D02*
X133015789Y-41505808D01*
X133015789Y-41505808D02*
X133111027Y-41553427D01*
X133111027Y-41553427D02*
X133158646Y-41601046D01*
X133158646Y-41601046D02*
X133206265Y-41696284D01*
X133206265Y-41696284D02*
X133206265Y-41981998D01*
X133206265Y-41981998D02*
X133158646Y-42077236D01*
X133158646Y-42077236D02*
X133111027Y-42124856D01*
X133111027Y-42124856D02*
X133015789Y-42172475D01*
X133015789Y-42172475D02*
X132872932Y-42172475D01*
X133634837Y-42172475D02*
X133634837Y-41505808D01*
X133634837Y-41601046D02*
X133682456Y-41553427D01*
X133682456Y-41553427D02*
X133777694Y-41505808D01*
X133777694Y-41505808D02*
X133920551Y-41505808D01*
X133920551Y-41505808D02*
X134015789Y-41553427D01*
X134015789Y-41553427D02*
X134063408Y-41648665D01*
X134063408Y-41648665D02*
X134063408Y-42172475D01*
X134063408Y-41648665D02*
X134111027Y-41553427D01*
X134111027Y-41553427D02*
X134206265Y-41505808D01*
X134206265Y-41505808D02*
X134349122Y-41505808D01*
X134349122Y-41505808D02*
X134444361Y-41553427D01*
X134444361Y-41553427D02*
X134491980Y-41648665D01*
X134491980Y-41648665D02*
X134491980Y-42172475D01*
X134968170Y-41505808D02*
X134968170Y-42505808D01*
X134968170Y-41553427D02*
X135063408Y-41505808D01*
X135063408Y-41505808D02*
X135253884Y-41505808D01*
X135253884Y-41505808D02*
X135349122Y-41553427D01*
X135349122Y-41553427D02*
X135396741Y-41601046D01*
X135396741Y-41601046D02*
X135444360Y-41696284D01*
X135444360Y-41696284D02*
X135444360Y-41981998D01*
X135444360Y-41981998D02*
X135396741Y-42077236D01*
X135396741Y-42077236D02*
X135349122Y-42124856D01*
X135349122Y-42124856D02*
X135253884Y-42172475D01*
X135253884Y-42172475D02*
X135063408Y-42172475D01*
X135063408Y-42172475D02*
X134968170Y-42124856D01*
X136301503Y-41505808D02*
X136301503Y-42172475D01*
X135872932Y-41505808D02*
X135872932Y-42029617D01*
X135872932Y-42029617D02*
X135920551Y-42124856D01*
X135920551Y-42124856D02*
X136015789Y-42172475D01*
X136015789Y-42172475D02*
X136158646Y-42172475D01*
X136158646Y-42172475D02*
X136253884Y-42124856D01*
X136253884Y-42124856D02*
X136301503Y-42077236D01*
X136634837Y-41505808D02*
X137015789Y-41505808D01*
X136777694Y-41172475D02*
X136777694Y-42029617D01*
X136777694Y-42029617D02*
X136825313Y-42124856D01*
X136825313Y-42124856D02*
X136920551Y-42172475D01*
X136920551Y-42172475D02*
X137015789Y-42172475D01*
X137730075Y-42124856D02*
X137634837Y-42172475D01*
X137634837Y-42172475D02*
X137444361Y-42172475D01*
X137444361Y-42172475D02*
X137349123Y-42124856D01*
X137349123Y-42124856D02*
X137301504Y-42029617D01*
X137301504Y-42029617D02*
X137301504Y-41648665D01*
X137301504Y-41648665D02*
X137349123Y-41553427D01*
X137349123Y-41553427D02*
X137444361Y-41505808D01*
X137444361Y-41505808D02*
X137634837Y-41505808D01*
X137634837Y-41505808D02*
X137730075Y-41553427D01*
X137730075Y-41553427D02*
X137777694Y-41648665D01*
X137777694Y-41648665D02*
X137777694Y-41743903D01*
X137777694Y-41743903D02*
X137301504Y-41839141D01*
X138206266Y-42172475D02*
X138206266Y-41505808D01*
X138206266Y-41696284D02*
X138253885Y-41601046D01*
X138253885Y-41601046D02*
X138301504Y-41553427D01*
X138301504Y-41553427D02*
X138396742Y-41505808D01*
X138396742Y-41505808D02*
X138491980Y-41505808D01*
X124825312Y-43687180D02*
X124777693Y-43734800D01*
X124777693Y-43734800D02*
X124634836Y-43782419D01*
X124634836Y-43782419D02*
X124539598Y-43782419D01*
X124539598Y-43782419D02*
X124396741Y-43734800D01*
X124396741Y-43734800D02*
X124301503Y-43639561D01*
X124301503Y-43639561D02*
X124253884Y-43544323D01*
X124253884Y-43544323D02*
X124206265Y-43353847D01*
X124206265Y-43353847D02*
X124206265Y-43210990D01*
X124206265Y-43210990D02*
X124253884Y-43020514D01*
X124253884Y-43020514D02*
X124301503Y-42925276D01*
X124301503Y-42925276D02*
X124396741Y-42830038D01*
X124396741Y-42830038D02*
X124539598Y-42782419D01*
X124539598Y-42782419D02*
X124634836Y-42782419D01*
X124634836Y-42782419D02*
X124777693Y-42830038D01*
X124777693Y-42830038D02*
X124825312Y-42877657D01*
X125253884Y-43782419D02*
X125253884Y-42782419D01*
X125253884Y-42782419D02*
X125634836Y-42782419D01*
X125634836Y-42782419D02*
X125730074Y-42830038D01*
X125730074Y-42830038D02*
X125777693Y-42877657D01*
X125777693Y-42877657D02*
X125825312Y-42972895D01*
X125825312Y-42972895D02*
X125825312Y-43115752D01*
X125825312Y-43115752D02*
X125777693Y-43210990D01*
X125777693Y-43210990D02*
X125730074Y-43258609D01*
X125730074Y-43258609D02*
X125634836Y-43306228D01*
X125634836Y-43306228D02*
X125253884Y-43306228D01*
X126253884Y-43782419D02*
X126253884Y-42782419D01*
X126253884Y-42782419D02*
X126634836Y-42782419D01*
X126634836Y-42782419D02*
X126730074Y-42830038D01*
X126730074Y-42830038D02*
X126777693Y-42877657D01*
X126777693Y-42877657D02*
X126825312Y-42972895D01*
X126825312Y-42972895D02*
X126825312Y-43115752D01*
X126825312Y-43115752D02*
X126777693Y-43210990D01*
X126777693Y-43210990D02*
X126730074Y-43258609D01*
X126730074Y-43258609D02*
X126634836Y-43306228D01*
X126634836Y-43306228D02*
X126253884Y-43306228D01*
X128015789Y-43782419D02*
X128015789Y-42782419D01*
X128015789Y-42782419D02*
X128587217Y-43782419D01*
X128587217Y-43782419D02*
X128587217Y-42782419D01*
X129206265Y-43782419D02*
X129111027Y-43734800D01*
X129111027Y-43734800D02*
X129063408Y-43687180D01*
X129063408Y-43687180D02*
X129015789Y-43591942D01*
X129015789Y-43591942D02*
X129015789Y-43306228D01*
X129015789Y-43306228D02*
X129063408Y-43210990D01*
X129063408Y-43210990D02*
X129111027Y-43163371D01*
X129111027Y-43163371D02*
X129206265Y-43115752D01*
X129206265Y-43115752D02*
X129349122Y-43115752D01*
X129349122Y-43115752D02*
X129444360Y-43163371D01*
X129444360Y-43163371D02*
X129491979Y-43210990D01*
X129491979Y-43210990D02*
X129539598Y-43306228D01*
X129539598Y-43306228D02*
X129539598Y-43591942D01*
X129539598Y-43591942D02*
X129491979Y-43687180D01*
X129491979Y-43687180D02*
X129444360Y-43734800D01*
X129444360Y-43734800D02*
X129349122Y-43782419D01*
X129349122Y-43782419D02*
X129206265Y-43782419D01*
X129872932Y-43115752D02*
X130111027Y-43782419D01*
X130111027Y-43782419D02*
X130349122Y-43115752D01*
X131444361Y-42877657D02*
X131491980Y-42830038D01*
X131491980Y-42830038D02*
X131587218Y-42782419D01*
X131587218Y-42782419D02*
X131825313Y-42782419D01*
X131825313Y-42782419D02*
X131920551Y-42830038D01*
X131920551Y-42830038D02*
X131968170Y-42877657D01*
X131968170Y-42877657D02*
X132015789Y-42972895D01*
X132015789Y-42972895D02*
X132015789Y-43068133D01*
X132015789Y-43068133D02*
X131968170Y-43210990D01*
X131968170Y-43210990D02*
X131396742Y-43782419D01*
X131396742Y-43782419D02*
X132015789Y-43782419D01*
X132634837Y-42782419D02*
X132730075Y-42782419D01*
X132730075Y-42782419D02*
X132825313Y-42830038D01*
X132825313Y-42830038D02*
X132872932Y-42877657D01*
X132872932Y-42877657D02*
X132920551Y-42972895D01*
X132920551Y-42972895D02*
X132968170Y-43163371D01*
X132968170Y-43163371D02*
X132968170Y-43401466D01*
X132968170Y-43401466D02*
X132920551Y-43591942D01*
X132920551Y-43591942D02*
X132872932Y-43687180D01*
X132872932Y-43687180D02*
X132825313Y-43734800D01*
X132825313Y-43734800D02*
X132730075Y-43782419D01*
X132730075Y-43782419D02*
X132634837Y-43782419D01*
X132634837Y-43782419D02*
X132539599Y-43734800D01*
X132539599Y-43734800D02*
X132491980Y-43687180D01*
X132491980Y-43687180D02*
X132444361Y-43591942D01*
X132444361Y-43591942D02*
X132396742Y-43401466D01*
X132396742Y-43401466D02*
X132396742Y-43163371D01*
X132396742Y-43163371D02*
X132444361Y-42972895D01*
X132444361Y-42972895D02*
X132491980Y-42877657D01*
X132491980Y-42877657D02*
X132539599Y-42830038D01*
X132539599Y-42830038D02*
X132634837Y-42782419D01*
X133349123Y-42877657D02*
X133396742Y-42830038D01*
X133396742Y-42830038D02*
X133491980Y-42782419D01*
X133491980Y-42782419D02*
X133730075Y-42782419D01*
X133730075Y-42782419D02*
X133825313Y-42830038D01*
X133825313Y-42830038D02*
X133872932Y-42877657D01*
X133872932Y-42877657D02*
X133920551Y-42972895D01*
X133920551Y-42972895D02*
X133920551Y-43068133D01*
X133920551Y-43068133D02*
X133872932Y-43210990D01*
X133872932Y-43210990D02*
X133301504Y-43782419D01*
X133301504Y-43782419D02*
X133920551Y-43782419D01*
X134777694Y-43115752D02*
X134777694Y-43782419D01*
X134539599Y-42734800D02*
X134301504Y-43449085D01*
X134301504Y-43449085D02*
X134920551Y-43449085D01*
X136634837Y-43782419D02*
X136301504Y-43306228D01*
X136063409Y-43782419D02*
X136063409Y-42782419D01*
X136063409Y-42782419D02*
X136444361Y-42782419D01*
X136444361Y-42782419D02*
X136539599Y-42830038D01*
X136539599Y-42830038D02*
X136587218Y-42877657D01*
X136587218Y-42877657D02*
X136634837Y-42972895D01*
X136634837Y-42972895D02*
X136634837Y-43115752D01*
X136634837Y-43115752D02*
X136587218Y-43210990D01*
X136587218Y-43210990D02*
X136539599Y-43258609D01*
X136539599Y-43258609D02*
X136444361Y-43306228D01*
X136444361Y-43306228D02*
X136063409Y-43306228D01*
X137444361Y-43734800D02*
X137349123Y-43782419D01*
X137349123Y-43782419D02*
X137158647Y-43782419D01*
X137158647Y-43782419D02*
X137063409Y-43734800D01*
X137063409Y-43734800D02*
X137015790Y-43639561D01*
X137015790Y-43639561D02*
X137015790Y-43258609D01*
X137015790Y-43258609D02*
X137063409Y-43163371D01*
X137063409Y-43163371D02*
X137158647Y-43115752D01*
X137158647Y-43115752D02*
X137349123Y-43115752D01*
X137349123Y-43115752D02*
X137444361Y-43163371D01*
X137444361Y-43163371D02*
X137491980Y-43258609D01*
X137491980Y-43258609D02*
X137491980Y-43353847D01*
X137491980Y-43353847D02*
X137015790Y-43449085D01*
X137825314Y-43115752D02*
X138063409Y-43782419D01*
X138063409Y-43782419D02*
X138301504Y-43115752D01*
X138682457Y-43687180D02*
X138730076Y-43734800D01*
X138730076Y-43734800D02*
X138682457Y-43782419D01*
X138682457Y-43782419D02*
X138634838Y-43734800D01*
X138634838Y-43734800D02*
X138682457Y-43687180D01*
X138682457Y-43687180D02*
X138682457Y-43782419D01*
X139111028Y-42877657D02*
X139158647Y-42830038D01*
X139158647Y-42830038D02*
X139253885Y-42782419D01*
X139253885Y-42782419D02*
X139491980Y-42782419D01*
X139491980Y-42782419D02*
X139587218Y-42830038D01*
X139587218Y-42830038D02*
X139634837Y-42877657D01*
X139634837Y-42877657D02*
X139682456Y-42972895D01*
X139682456Y-42972895D02*
X139682456Y-43068133D01*
X139682456Y-43068133D02*
X139634837Y-43210990D01*
X139634837Y-43210990D02*
X139063409Y-43782419D01*
X139063409Y-43782419D02*
X139682456Y-43782419D01*
X100192455Y-45099133D02*
X100425789Y-45799133D01*
X100425789Y-45799133D02*
X100659122Y-45099133D01*
X100892455Y-45799133D02*
X100892455Y-45099133D01*
X100892455Y-45099133D02*
X101125789Y-45599133D01*
X101125789Y-45599133D02*
X101359122Y-45099133D01*
X101359122Y-45099133D02*
X101359122Y-45799133D01*
X102092455Y-45799133D02*
X101859122Y-45465800D01*
X101692455Y-45799133D02*
X101692455Y-45099133D01*
X101692455Y-45099133D02*
X101959122Y-45099133D01*
X101959122Y-45099133D02*
X102025789Y-45132466D01*
X102025789Y-45132466D02*
X102059122Y-45165800D01*
X102059122Y-45165800D02*
X102092455Y-45232466D01*
X102092455Y-45232466D02*
X102092455Y-45332466D01*
X102092455Y-45332466D02*
X102059122Y-45399133D01*
X102059122Y-45399133D02*
X102025789Y-45432466D01*
X102025789Y-45432466D02*
X101959122Y-45465800D01*
X101959122Y-45465800D02*
X101692455Y-45465800D01*
X104549122Y-63446895D02*
X104396741Y-63446895D01*
X104396741Y-63446895D02*
X104320550Y-63484990D01*
X104320550Y-63484990D02*
X104282455Y-63523085D01*
X104282455Y-63523085D02*
X104206265Y-63637371D01*
X104206265Y-63637371D02*
X104168169Y-63789752D01*
X104168169Y-63789752D02*
X104168169Y-64094514D01*
X104168169Y-64094514D02*
X104206265Y-64170704D01*
X104206265Y-64170704D02*
X104244360Y-64208800D01*
X104244360Y-64208800D02*
X104320550Y-64246895D01*
X104320550Y-64246895D02*
X104472931Y-64246895D01*
X104472931Y-64246895D02*
X104549122Y-64208800D01*
X104549122Y-64208800D02*
X104587217Y-64170704D01*
X104587217Y-64170704D02*
X104625312Y-64094514D01*
X104625312Y-64094514D02*
X104625312Y-63904038D01*
X104625312Y-63904038D02*
X104587217Y-63827847D01*
X104587217Y-63827847D02*
X104549122Y-63789752D01*
X104549122Y-63789752D02*
X104472931Y-63751657D01*
X104472931Y-63751657D02*
X104320550Y-63751657D01*
X104320550Y-63751657D02*
X104244360Y-63789752D01*
X104244360Y-63789752D02*
X104206265Y-63827847D01*
X104206265Y-63827847D02*
X104168169Y-63904038D01*
X105311027Y-63713561D02*
X105311027Y-64246895D01*
X105120551Y-63408800D02*
X104930074Y-63980228D01*
X104930074Y-63980228D02*
X105425313Y-63980228D01*
X105730075Y-64246895D02*
X105730075Y-63446895D01*
X105730075Y-63446895D02*
X105996741Y-64018323D01*
X105996741Y-64018323D02*
X106263408Y-63446895D01*
X106263408Y-63446895D02*
X106263408Y-64246895D01*
X106911027Y-63827847D02*
X107025313Y-63865942D01*
X107025313Y-63865942D02*
X107063408Y-63904038D01*
X107063408Y-63904038D02*
X107101504Y-63980228D01*
X107101504Y-63980228D02*
X107101504Y-64094514D01*
X107101504Y-64094514D02*
X107063408Y-64170704D01*
X107063408Y-64170704D02*
X107025313Y-64208800D01*
X107025313Y-64208800D02*
X106949123Y-64246895D01*
X106949123Y-64246895D02*
X106644361Y-64246895D01*
X106644361Y-64246895D02*
X106644361Y-63446895D01*
X106644361Y-63446895D02*
X106911027Y-63446895D01*
X106911027Y-63446895D02*
X106987218Y-63484990D01*
X106987218Y-63484990D02*
X107025313Y-63523085D01*
X107025313Y-63523085D02*
X107063408Y-63599276D01*
X107063408Y-63599276D02*
X107063408Y-63675466D01*
X107063408Y-63675466D02*
X107025313Y-63751657D01*
X107025313Y-63751657D02*
X106987218Y-63789752D01*
X106987218Y-63789752D02*
X106911027Y-63827847D01*
X106911027Y-63827847D02*
X106644361Y-63827847D01*
X108511028Y-64246895D02*
X108244361Y-63865942D01*
X108053885Y-64246895D02*
X108053885Y-63446895D01*
X108053885Y-63446895D02*
X108358647Y-63446895D01*
X108358647Y-63446895D02*
X108434837Y-63484990D01*
X108434837Y-63484990D02*
X108472932Y-63523085D01*
X108472932Y-63523085D02*
X108511028Y-63599276D01*
X108511028Y-63599276D02*
X108511028Y-63713561D01*
X108511028Y-63713561D02*
X108472932Y-63789752D01*
X108472932Y-63789752D02*
X108434837Y-63827847D01*
X108434837Y-63827847D02*
X108358647Y-63865942D01*
X108358647Y-63865942D02*
X108053885Y-63865942D01*
X108815789Y-64018323D02*
X109196742Y-64018323D01*
X108739599Y-64246895D02*
X109006266Y-63446895D01*
X109006266Y-63446895D02*
X109272932Y-64246895D01*
X109539599Y-64246895D02*
X109539599Y-63446895D01*
X109539599Y-63446895D02*
X109806265Y-64018323D01*
X109806265Y-64018323D02*
X110072932Y-63446895D01*
X110072932Y-63446895D02*
X110072932Y-64246895D01*
X100222455Y-51649133D02*
X100222455Y-52149133D01*
X100222455Y-52149133D02*
X100189122Y-52249133D01*
X100189122Y-52249133D02*
X100122455Y-52315800D01*
X100122455Y-52315800D02*
X100022455Y-52349133D01*
X100022455Y-52349133D02*
X99955789Y-52349133D01*
X100455788Y-51649133D02*
X100855788Y-51649133D01*
X100655788Y-52349133D02*
X100655788Y-51649133D01*
X101055788Y-52149133D02*
X101389121Y-52149133D01*
X100989121Y-52349133D02*
X101222455Y-51649133D01*
X101222455Y-51649133D02*
X101455788Y-52349133D01*
X102055788Y-51682466D02*
X101989121Y-51649133D01*
X101989121Y-51649133D02*
X101889121Y-51649133D01*
X101889121Y-51649133D02*
X101789121Y-51682466D01*
X101789121Y-51682466D02*
X101722455Y-51749133D01*
X101722455Y-51749133D02*
X101689121Y-51815800D01*
X101689121Y-51815800D02*
X101655788Y-51949133D01*
X101655788Y-51949133D02*
X101655788Y-52049133D01*
X101655788Y-52049133D02*
X101689121Y-52182466D01*
X101689121Y-52182466D02*
X101722455Y-52249133D01*
X101722455Y-52249133D02*
X101789121Y-52315800D01*
X101789121Y-52315800D02*
X101889121Y-52349133D01*
X101889121Y-52349133D02*
X101955788Y-52349133D01*
X101955788Y-52349133D02*
X102055788Y-52315800D01*
X102055788Y-52315800D02*
X102089121Y-52282466D01*
X102089121Y-52282466D02*
X102089121Y-52049133D01*
X102089121Y-52049133D02*
X101955788Y-52049133D01*
X137146265Y-48307847D02*
X137412931Y-48307847D01*
X137527217Y-48726895D02*
X137146265Y-48726895D01*
X137146265Y-48726895D02*
X137146265Y-47926895D01*
X137146265Y-47926895D02*
X137527217Y-47926895D01*
X137831979Y-48688800D02*
X137946265Y-48726895D01*
X137946265Y-48726895D02*
X138136741Y-48726895D01*
X138136741Y-48726895D02*
X138212932Y-48688800D01*
X138212932Y-48688800D02*
X138251027Y-48650704D01*
X138251027Y-48650704D02*
X138289122Y-48574514D01*
X138289122Y-48574514D02*
X138289122Y-48498323D01*
X138289122Y-48498323D02*
X138251027Y-48422133D01*
X138251027Y-48422133D02*
X138212932Y-48384038D01*
X138212932Y-48384038D02*
X138136741Y-48345942D01*
X138136741Y-48345942D02*
X137984360Y-48307847D01*
X137984360Y-48307847D02*
X137908170Y-48269752D01*
X137908170Y-48269752D02*
X137870075Y-48231657D01*
X137870075Y-48231657D02*
X137831979Y-48155466D01*
X137831979Y-48155466D02*
X137831979Y-48079276D01*
X137831979Y-48079276D02*
X137870075Y-48003085D01*
X137870075Y-48003085D02*
X137908170Y-47964990D01*
X137908170Y-47964990D02*
X137984360Y-47926895D01*
X137984360Y-47926895D02*
X138174837Y-47926895D01*
X138174837Y-47926895D02*
X138289122Y-47964990D01*
X138631980Y-48726895D02*
X138631980Y-47926895D01*
X138631980Y-47926895D02*
X138936742Y-47926895D01*
X138936742Y-47926895D02*
X139012932Y-47964990D01*
X139012932Y-47964990D02*
X139051027Y-48003085D01*
X139051027Y-48003085D02*
X139089123Y-48079276D01*
X139089123Y-48079276D02*
X139089123Y-48193561D01*
X139089123Y-48193561D02*
X139051027Y-48269752D01*
X139051027Y-48269752D02*
X139012932Y-48307847D01*
X139012932Y-48307847D02*
X138936742Y-48345942D01*
X138936742Y-48345942D02*
X138631980Y-48345942D01*
X139355789Y-47926895D02*
X139851027Y-47926895D01*
X139851027Y-47926895D02*
X139584361Y-48231657D01*
X139584361Y-48231657D02*
X139698646Y-48231657D01*
X139698646Y-48231657D02*
X139774837Y-48269752D01*
X139774837Y-48269752D02*
X139812932Y-48307847D01*
X139812932Y-48307847D02*
X139851027Y-48384038D01*
X139851027Y-48384038D02*
X139851027Y-48574514D01*
X139851027Y-48574514D02*
X139812932Y-48650704D01*
X139812932Y-48650704D02*
X139774837Y-48688800D01*
X139774837Y-48688800D02*
X139698646Y-48726895D01*
X139698646Y-48726895D02*
X139470075Y-48726895D01*
X139470075Y-48726895D02*
X139393884Y-48688800D01*
X139393884Y-48688800D02*
X139355789Y-48650704D01*
X140155789Y-48003085D02*
X140193885Y-47964990D01*
X140193885Y-47964990D02*
X140270075Y-47926895D01*
X140270075Y-47926895D02*
X140460551Y-47926895D01*
X140460551Y-47926895D02*
X140536742Y-47964990D01*
X140536742Y-47964990D02*
X140574837Y-48003085D01*
X140574837Y-48003085D02*
X140612932Y-48079276D01*
X140612932Y-48079276D02*
X140612932Y-48155466D01*
X140612932Y-48155466D02*
X140574837Y-48269752D01*
X140574837Y-48269752D02*
X140117694Y-48726895D01*
X140117694Y-48726895D02*
X140612932Y-48726895D01*
X141412933Y-48650704D02*
X141374837Y-48688800D01*
X141374837Y-48688800D02*
X141260552Y-48726895D01*
X141260552Y-48726895D02*
X141184361Y-48726895D01*
X141184361Y-48726895D02*
X141070075Y-48688800D01*
X141070075Y-48688800D02*
X140993885Y-48612609D01*
X140993885Y-48612609D02*
X140955790Y-48536419D01*
X140955790Y-48536419D02*
X140917694Y-48384038D01*
X140917694Y-48384038D02*
X140917694Y-48269752D01*
X140917694Y-48269752D02*
X140955790Y-48117371D01*
X140955790Y-48117371D02*
X140993885Y-48041180D01*
X140993885Y-48041180D02*
X141070075Y-47964990D01*
X141070075Y-47964990D02*
X141184361Y-47926895D01*
X141184361Y-47926895D02*
X141260552Y-47926895D01*
X141260552Y-47926895D02*
X141374837Y-47964990D01*
X141374837Y-47964990D02*
X141412933Y-48003085D01*
X142098647Y-47926895D02*
X141946266Y-47926895D01*
X141946266Y-47926895D02*
X141870075Y-47964990D01*
X141870075Y-47964990D02*
X141831980Y-48003085D01*
X141831980Y-48003085D02*
X141755790Y-48117371D01*
X141755790Y-48117371D02*
X141717694Y-48269752D01*
X141717694Y-48269752D02*
X141717694Y-48574514D01*
X141717694Y-48574514D02*
X141755790Y-48650704D01*
X141755790Y-48650704D02*
X141793885Y-48688800D01*
X141793885Y-48688800D02*
X141870075Y-48726895D01*
X141870075Y-48726895D02*
X142022456Y-48726895D01*
X142022456Y-48726895D02*
X142098647Y-48688800D01*
X142098647Y-48688800D02*
X142136742Y-48650704D01*
X142136742Y-48650704D02*
X142174837Y-48574514D01*
X142174837Y-48574514D02*
X142174837Y-48384038D01*
X142174837Y-48384038D02*
X142136742Y-48307847D01*
X142136742Y-48307847D02*
X142098647Y-48269752D01*
X142098647Y-48269752D02*
X142022456Y-48231657D01*
X142022456Y-48231657D02*
X141870075Y-48231657D01*
X141870075Y-48231657D02*
X141793885Y-48269752D01*
X141793885Y-48269752D02*
X141755790Y-48307847D01*
X141755790Y-48307847D02*
X141717694Y-48384038D01*
D11*
%TO.C,J8*%
X99205000Y-42455000D02*
X99205000Y-41760000D01*
X99890000Y-42455000D02*
X99205000Y-42455000D01*
X100575000Y-42455000D02*
X106450000Y-42455000D01*
X100575000Y-42455000D02*
X100575000Y-42368276D01*
X106450000Y-42455000D02*
X106450000Y-42154493D01*
X106450000Y-41365507D02*
X106450000Y-41065000D01*
X100575000Y-41151724D02*
X100575000Y-41065000D01*
X100575000Y-41065000D02*
X106450000Y-41065000D01*
D12*
%TO.C,Jr1*%
X90700000Y-61115000D02*
X90700000Y-60015000D01*
X92200000Y-57315000D02*
X91900000Y-57315000D01*
X100400000Y-57315000D02*
X100700000Y-57315000D01*
X101900000Y-61115000D02*
X101900000Y-60015000D01*
X101900000Y-64815000D02*
X90700000Y-64815000D01*
D13*
X100700000Y-56815000D02*
G75*
G02*
X100500000Y-56815000I-100000J0D01*
G01*
X100500000Y-56815000D02*
G75*
G02*
X100700000Y-56815000I100000J0D01*
G01*
D11*
%TO.C,J6*%
X100120000Y-43490000D02*
X101180000Y-43490000D01*
X100120000Y-44550000D02*
X100120000Y-43490000D01*
X100120000Y-45550000D02*
X100120000Y-45610000D01*
X100120000Y-45550000D02*
X102240000Y-45550000D01*
X100120000Y-45610000D02*
X102240000Y-45610000D01*
X102240000Y-45550000D02*
X102240000Y-45610000D01*
%TO.C,R9*%
X125410002Y-46625136D02*
X125410002Y-46409464D01*
X126130002Y-46625136D02*
X126130002Y-46409464D01*
%TO.C,J4*%
X84290000Y-41850000D02*
X85620000Y-41850000D01*
X84290000Y-43180000D02*
X84290000Y-41850000D01*
X84290000Y-44450000D02*
X84290000Y-57210000D01*
X84290000Y-44450000D02*
X86890000Y-44450000D01*
X84290000Y-57210000D02*
X89490000Y-57210000D01*
X86890000Y-41850000D02*
X89490000Y-41850000D01*
X86890000Y-44450000D02*
X86890000Y-41850000D01*
X89490000Y-41850000D02*
X89490000Y-57210000D01*
D14*
%TO.C,U7*%
X102942518Y-56945818D02*
X102942518Y-63194218D01*
X102942518Y-63194218D02*
X111197518Y-63194218D01*
X103069518Y-58070022D02*
X102815518Y-58070022D01*
X109070014Y-57072818D02*
X109070014Y-56818818D01*
X109070014Y-63067218D02*
X109070014Y-63321218D01*
X111070518Y-58070022D02*
X111324518Y-58070022D01*
X111197518Y-56945818D02*
X102942518Y-56945818D01*
X111197518Y-63194218D02*
X111197518Y-56945818D01*
D11*
%TO.C,J7*%
X99725000Y-47470000D02*
X99725000Y-48292470D01*
X99725000Y-48907530D02*
X99725000Y-49562470D01*
X99725000Y-50177530D02*
X99725000Y-51000000D01*
X100930000Y-47470000D02*
X99725000Y-47470000D01*
X100930000Y-47470000D02*
X100930000Y-48036529D01*
X100930000Y-49163471D02*
X100930000Y-49306529D01*
X100983471Y-49360000D02*
X101126529Y-49360000D01*
X101690000Y-47470000D02*
X102450000Y-47470000D01*
X102253471Y-49360000D02*
X102385000Y-49360000D01*
X102385000Y-49360000D02*
X102385000Y-49562470D01*
X102385000Y-50177530D02*
X102385000Y-51000000D01*
X102385000Y-51000000D02*
X99725000Y-51000000D01*
X102450000Y-47470000D02*
X102450000Y-48600000D01*
D12*
%TO.C,U3*%
X103310000Y-42970000D02*
X116310000Y-42970000D01*
X103310000Y-55970000D02*
X103310000Y-42970000D01*
X116310000Y-42970000D02*
X116310000Y-55970000D01*
X116310000Y-55970000D02*
X103310000Y-55970000D01*
D13*
X103091000Y-43870000D02*
G75*
G02*
X102891000Y-43870000I-100000J0D01*
G01*
X102891000Y-43870000D02*
G75*
G02*
X103091000Y-43870000I100000J0D01*
G01*
D11*
%TO.C,R7*%
X126057838Y-51787300D02*
X125842166Y-51787300D01*
X126057838Y-52507300D02*
X125842166Y-52507300D01*
%TO.C,Ue1*%
X91840000Y-42477500D02*
X91840000Y-41992500D01*
X91840000Y-48972500D02*
X91840000Y-48247500D01*
X92565000Y-41752500D02*
X92140000Y-41752500D01*
X92565000Y-48972500D02*
X91840000Y-48972500D01*
X98335000Y-41752500D02*
X99060000Y-41752500D01*
X98335000Y-48972500D02*
X99060000Y-48972500D01*
X99060000Y-41752500D02*
X99060000Y-42477500D01*
X99060000Y-48972500D02*
X99060000Y-48247500D01*
X91840000Y-41752500D02*
X91600000Y-41422500D01*
X92080000Y-41422500D01*
X91840000Y-41752500D01*
G36*
X91840000Y-41752500D02*
G01*
X91600000Y-41422500D01*
X92080000Y-41422500D01*
X91840000Y-41752500D01*
G37*
D14*
%TO.C,U6*%
X117357101Y-53411860D02*
X117357101Y-45384229D01*
X117357101Y-55589300D02*
X117357101Y-55017140D01*
X118053554Y-55589300D02*
X117357101Y-55589300D01*
X121418633Y-43930700D02*
X123122900Y-43930700D01*
X123122900Y-43930700D02*
X123122900Y-55589300D01*
X123122900Y-55589300D02*
X120978635Y-55589300D01*
D15*
X122054900Y-56224300D02*
G75*
G02*
X121292900Y-56224300I-381000J0D01*
G01*
X121292900Y-56224300D02*
G75*
G02*
X122054900Y-56224300I381000J0D01*
G01*
D11*
%TO.C,L2*%
X135461252Y-44330000D02*
X133138748Y-44330000D01*
X135461252Y-47750000D02*
X133138748Y-47750000D01*
D14*
%TO.C,U8*%
X111642518Y-56965818D02*
X111642518Y-63214218D01*
X111642518Y-63214218D02*
X119897518Y-63214218D01*
X111769518Y-58090022D02*
X111515518Y-58090022D01*
X117770014Y-57092818D02*
X117770014Y-56838818D01*
X117770014Y-63087218D02*
X117770014Y-63341218D01*
X119770518Y-58090022D02*
X120024518Y-58090022D01*
X119897518Y-56965818D02*
X111642518Y-56965818D01*
X119897518Y-63214218D02*
X119897518Y-56965818D01*
D12*
%TO.C,J5*%
X91920000Y-54890000D02*
X94520000Y-54890000D01*
D11*
%TO.C,RN1*%
X95730000Y-55110000D02*
X95730000Y-54110000D01*
X99970000Y-55110000D02*
X99970000Y-54110000D01*
%TO.C,MCU1*%
X135290000Y-49317500D02*
X135290000Y-49742500D01*
X135290000Y-54537500D02*
X135290000Y-54112500D01*
X135715000Y-49317500D02*
X135290000Y-49317500D01*
X135715000Y-54537500D02*
X135290000Y-54537500D01*
X140085000Y-49317500D02*
X140510000Y-49317500D01*
X140085000Y-54537500D02*
X140210000Y-54537500D01*
X140510000Y-49317500D02*
X140510000Y-49742500D01*
X140510000Y-54112500D02*
X140510000Y-54297500D01*
X140750000Y-54867500D02*
X140270000Y-54867500D01*
X140510000Y-54537500D01*
X140750000Y-54867500D01*
G36*
X140750000Y-54867500D02*
G01*
X140270000Y-54867500D01*
X140510000Y-54537500D01*
X140750000Y-54867500D01*
G37*
%TO.C,J2*%
X133390000Y-59710000D02*
X133390000Y-61510000D01*
X133390000Y-65220000D02*
X133390000Y-63760000D01*
X142330000Y-59710000D02*
X142330000Y-61510000D01*
X142330000Y-65220000D02*
X133390000Y-65220000D01*
X142330000Y-65220000D02*
X142330000Y-63760000D01*
%TO.C,J3*%
X120930000Y-59645000D02*
X120930000Y-61445000D01*
X120930000Y-65155000D02*
X120930000Y-63695000D01*
X129870000Y-59645000D02*
X129870000Y-61445000D01*
X129870000Y-65155000D02*
X120930000Y-65155000D01*
X129870000Y-65155000D02*
X129870000Y-63695000D01*
D14*
%TO.C,U4*%
X123519001Y-48630350D02*
X123519001Y-50636950D01*
X126821001Y-50636950D02*
X126821001Y-48630350D01*
D11*
%TO.C,J1*%
X90890000Y-35290000D02*
X141810000Y-35290000D01*
X90890000Y-37890000D02*
X90890000Y-35290000D01*
X90890000Y-40490000D02*
X90890000Y-39160000D01*
X92220000Y-40490000D02*
X90890000Y-40490000D01*
X93490000Y-37890000D02*
X90890000Y-37890000D01*
X93490000Y-40490000D02*
X93490000Y-37890000D01*
X93490000Y-40490000D02*
X141810000Y-40490000D01*
X141810000Y-40490000D02*
X141810000Y-35290000D01*
%TD*%
M02*
